%FSLAX25Y25*%
%MOIN*%
G70*
G01*
G75*
G04 Layer_Color=65535*
%ADD10R,0.03150X0.03150*%
%ADD11O,0.00984X0.05906*%
%ADD12O,0.05906X0.00984*%
%ADD13R,0.03543X0.02559*%
%ADD14R,0.01575X0.01378*%
%ADD15R,0.09449X0.06693*%
%ADD16R,0.04528X0.02756*%
%ADD17R,0.03150X0.02362*%
%ADD18R,0.03543X0.02362*%
%ADD19R,0.05000X0.10000*%
%ADD20C,0.04000*%
%ADD21R,0.02400X0.07400*%
%ADD22C,0.03000*%
%ADD23C,0.00800*%
%ADD24C,0.02000*%
%ADD25C,0.01500*%
%ADD26C,0.02500*%
%ADD27C,0.01000*%
%ADD28C,0.00700*%
%ADD29C,0.01200*%
%ADD30R,0.05700X0.15400*%
%ADD31R,0.07500X0.37100*%
%ADD32R,0.06900X0.17500*%
%ADD33R,0.31800X0.05600*%
%ADD34R,0.45600X0.06300*%
%ADD35R,0.08100X0.04200*%
%ADD36R,0.09200X0.14200*%
%ADD37R,0.09400X0.04200*%
%ADD38R,0.23100X0.07700*%
%ADD39R,0.14800X0.05700*%
%ADD40R,0.03600X0.14100*%
%ADD41R,0.02200X0.05400*%
%ADD42R,0.02158X0.06200*%
%ADD43R,0.22800X0.13900*%
%ADD44C,0.05906*%
%ADD45C,0.05512*%
%ADD46C,0.14173*%
%ADD47C,0.02500*%
%ADD48R,0.09449X0.02992*%
%ADD49R,0.38300X0.04600*%
%ADD50R,0.25500X0.07100*%
%ADD51R,0.15800X0.14200*%
%ADD52R,0.21700X0.05400*%
%ADD53R,0.25000X0.07200*%
%ADD54R,0.23800X0.05800*%
%ADD55R,0.25700X0.08500*%
%ADD56R,0.24900X0.08000*%
%ADD57C,0.02362*%
%ADD58C,0.00984*%
%ADD59C,0.00600*%
%ADD60C,0.00787*%
D27*
X291900Y393112D02*
X300597D01*
Y412797D01*
X283006D02*
X300597D01*
X283006Y393112D02*
Y412797D01*
Y393112D02*
X291900D01*
X383000Y393458D02*
X391697D01*
Y413142D01*
X374106D02*
X391697D01*
X374106Y393458D02*
Y413142D01*
Y393458D02*
X383000D01*
X352600Y393657D02*
X361297D01*
Y413343D01*
X343706D02*
X361297D01*
X343706Y393657D02*
Y413343D01*
Y393657D02*
X352600D01*
X322200Y393572D02*
X330897D01*
Y413257D01*
X313306D02*
X330897D01*
X313306Y393572D02*
Y413257D01*
Y393572D02*
X322200D01*
X261200Y393657D02*
X269897D01*
Y413343D01*
X252306D02*
X269897D01*
X252306Y393657D02*
Y413343D01*
Y393657D02*
X261200D01*
X397579Y447165D02*
Y496378D01*
X242106Y447165D02*
X397579D01*
X242087Y447185D02*
X242106Y447165D01*
X242087Y447185D02*
Y496476D01*
X280621Y417627D02*
Y420973D01*
Y423828D02*
X283179D01*
Y417627D02*
Y421072D01*
X278579Y417627D02*
Y420973D01*
X276021Y414772D02*
X278579D01*
X276021Y417528D02*
Y420973D01*
X371721Y417972D02*
Y421319D01*
Y424173D02*
X374279D01*
Y417972D02*
Y421417D01*
X369679Y417972D02*
Y421319D01*
X367121Y415118D02*
X369679D01*
X367121Y417874D02*
Y421319D01*
X341320Y418172D02*
Y421519D01*
Y424373D02*
X343880D01*
Y418172D02*
Y421617D01*
X339280Y418172D02*
Y421519D01*
X336720Y415318D02*
X339280D01*
X336720Y418074D02*
Y421519D01*
X310921Y418087D02*
Y421433D01*
Y424287D02*
X313479D01*
Y418087D02*
Y421531D01*
X308879Y418087D02*
Y421433D01*
X306321Y415232D02*
X308879D01*
X306321Y417988D02*
Y421433D01*
X249921Y418172D02*
Y421519D01*
Y424373D02*
X252480D01*
Y418172D02*
Y421617D01*
X247880Y418172D02*
Y421519D01*
X245321Y415318D02*
X247880D01*
X245321Y418074D02*
Y421519D01*
X422666Y462534D02*
X422765Y462435D01*
Y428774D02*
Y462435D01*
X405343Y428774D02*
X422765D01*
X405245Y428872D02*
X405343Y428774D01*
X405245Y428872D02*
Y462534D01*
X422666D01*
X260708Y295800D02*
X400692D01*
X260708D02*
Y334000D01*
X400692D01*
Y295800D02*
Y334000D01*
X387700Y334900D02*
Y338400D01*
X386700Y335900D02*
X387700Y334900D01*
X388700Y335900D01*
X409699Y471998D02*
X407699D01*
X408699D01*
Y467000D01*
X407699Y466000D01*
X406700D01*
X405700Y467000D01*
X411698Y470998D02*
X412698Y471998D01*
X414697D01*
X415697Y470998D01*
Y469999D01*
X414697Y468999D01*
X413697D01*
X414697D01*
X415697Y467999D01*
Y467000D01*
X414697Y466000D01*
X412698D01*
X411698Y467000D01*
X265241Y347899D02*
X263242D01*
X264241D01*
Y342900D01*
X263242Y341900D01*
X262242D01*
X261242Y342900D01*
X267240Y341900D02*
X269240D01*
X268240D01*
Y347899D01*
X267240Y346899D01*
D28*
X463600Y416400D02*
X459601D01*
X460934Y417733D01*
X459601Y419066D01*
X463600D01*
X460934Y421065D02*
Y422398D01*
X461601Y423065D01*
X463600D01*
Y421065D01*
X462934Y420399D01*
X462267Y421065D01*
Y423065D01*
X460934Y424397D02*
X463600D01*
X462267D01*
X461601Y425064D01*
X460934Y425730D01*
Y426397D01*
X463600Y428396D02*
X459601D01*
X462267D02*
X460934Y430396D01*
X462267Y428396D02*
X463600Y430396D01*
Y436393D02*
X459601D01*
X463600Y439059D01*
X459601D01*
X463600Y442392D02*
Y441059D01*
X462934Y440392D01*
X461601D01*
X460934Y441059D01*
Y442392D01*
X461601Y443058D01*
X462267D01*
Y440392D01*
X460934Y444391D02*
X462934D01*
X463600Y445057D01*
X462934Y445724D01*
X463600Y446390D01*
X462934Y447057D01*
X460934D01*
Y451055D02*
Y449056D01*
X461601Y448390D01*
X462934D01*
X463600Y449056D01*
Y451055D01*
Y453055D02*
Y454388D01*
X462934Y455054D01*
X461601D01*
X460934Y454388D01*
Y453055D01*
X461601Y452388D01*
X462934D01*
X463600Y453055D01*
Y456387D02*
X460934D01*
Y457054D01*
X461601Y457720D01*
X463600D01*
X461601D01*
X460934Y458386D01*
X461601Y459053D01*
X463600D01*
X459601Y460386D02*
X463600D01*
Y462385D01*
X462934Y463052D01*
X462267D01*
X461601D01*
X460934Y462385D01*
Y460386D01*
X456600Y416200D02*
X453934D01*
X452601Y417533D01*
X453934Y418866D01*
X456600D01*
X454601D01*
Y416200D01*
X457933Y420199D02*
X453934D01*
Y422198D01*
X454601Y422864D01*
X455934D01*
X456600Y422198D01*
Y420199D01*
X453934Y424197D02*
X456600D01*
X455267D01*
X454601Y424864D01*
X453934Y425530D01*
Y426197D01*
X456600Y428196D02*
Y429529D01*
Y428863D01*
X453934D01*
Y428196D01*
X456600Y431528D02*
Y432861D01*
Y432195D01*
X452601D01*
Y431528D01*
X453268Y438859D02*
X452601Y439526D01*
Y440859D01*
X453268Y441525D01*
X453934D01*
X454601Y440859D01*
Y440192D01*
Y440859D01*
X455267Y441525D01*
X455934D01*
X456600Y440859D01*
Y439526D01*
X455934Y438859D01*
X457266Y443525D02*
X456600Y444191D01*
X455934D01*
Y443525D01*
X456600D01*
Y444191D01*
X457266Y443525D01*
X457933Y442858D01*
X456600Y453521D02*
Y450855D01*
X453934Y453521D01*
X453268D01*
X452601Y452855D01*
Y451522D01*
X453268Y450855D01*
Y454854D02*
X452601Y455521D01*
Y456853D01*
X453268Y457520D01*
X455934D01*
X456600Y456853D01*
Y455521D01*
X455934Y454854D01*
X453268D01*
X456600Y458853D02*
Y460186D01*
Y459519D01*
X452601D01*
X453268Y458853D01*
Y462185D02*
X452601Y462852D01*
Y464185D01*
X453268Y464851D01*
X453934D01*
X454601Y464185D01*
Y463518D01*
Y464185D01*
X455267Y464851D01*
X455934D01*
X456600Y464185D01*
Y462852D01*
X455934Y462185D01*
X450000Y416200D02*
X446001D01*
Y418199D01*
X446668Y418866D01*
X448001D01*
X448667Y418199D01*
Y416200D01*
Y417533D02*
X450000Y418866D01*
Y422198D02*
Y420865D01*
X449334Y420199D01*
X448001D01*
X447334Y420865D01*
Y422198D01*
X448001Y422864D01*
X448667D01*
Y420199D01*
X447334Y424197D02*
X450000Y425530D01*
X447334Y426863D01*
X446668Y432195D02*
X446001Y432861D01*
Y434194D01*
X446668Y434861D01*
X449334D01*
X450000Y434194D01*
Y432861D01*
X449334Y432195D01*
X446668D01*
X450000Y436194D02*
X449334D01*
Y436860D01*
X450000D01*
Y436194D01*
Y442192D02*
Y439526D01*
X447334Y442192D01*
X446668D01*
X446001Y441525D01*
Y440192D01*
X446668Y439526D01*
X443600Y418099D02*
Y416766D01*
X442934Y416100D01*
X441601D01*
X440934Y416766D01*
Y418099D01*
X441601Y418766D01*
X442267D01*
Y416100D01*
X440934Y420099D02*
Y422764D01*
X443600Y420099D01*
Y422764D01*
X439601Y424097D02*
X443600D01*
Y426097D01*
X442934Y426763D01*
X440268D01*
X439601Y426097D01*
Y424097D01*
X440268Y430762D02*
X439601Y430095D01*
Y428763D01*
X440268Y428096D01*
X440934D01*
X441601Y428763D01*
Y430095D01*
X442267Y430762D01*
X442934D01*
X443600Y430095D01*
Y428763D01*
X442934Y428096D01*
X443600Y432095D02*
X439601D01*
Y434094D01*
X440268Y434761D01*
X441601D01*
X442267Y434094D01*
Y432095D01*
X439601Y442758D02*
Y440092D01*
X443600D01*
Y442758D01*
X441601Y440092D02*
Y441425D01*
X440268Y446757D02*
X439601Y446090D01*
Y444757D01*
X440268Y444091D01*
X442934D01*
X443600Y444757D01*
Y446090D01*
X442934Y446757D01*
X440268Y450756D02*
X439601Y450089D01*
Y448756D01*
X440268Y448090D01*
X442934D01*
X443600Y448756D01*
Y450089D01*
X442934Y450756D01*
X441601D01*
Y449423D01*
X439601Y458753D02*
Y456087D01*
X443600D01*
Y458753D01*
X441601Y456087D02*
Y457420D01*
X440934Y460086D02*
X443600Y462752D01*
X442267Y461419D01*
X440934Y462752D01*
X443600Y460086D01*
X444933Y464084D02*
X440934D01*
Y466084D01*
X441601Y466750D01*
X442934D01*
X443600Y466084D01*
Y464084D01*
X440934Y468750D02*
Y470083D01*
X441601Y470749D01*
X443600D01*
Y468750D01*
X442934Y468083D01*
X442267Y468750D01*
Y470749D01*
X443600Y472082D02*
X440934D01*
Y474081D01*
X441601Y474748D01*
X443600D01*
Y476081D02*
Y478080D01*
X442934Y478747D01*
X442267Y478080D01*
Y476747D01*
X441601Y476081D01*
X440934Y476747D01*
Y478747D01*
X443600Y480079D02*
Y481412D01*
Y480746D01*
X440934D01*
Y480079D01*
X443600Y484078D02*
Y485411D01*
X442934Y486077D01*
X441601D01*
X440934Y485411D01*
Y484078D01*
X441601Y483412D01*
X442934D01*
X443600Y484078D01*
Y487410D02*
X440934D01*
Y489410D01*
X441601Y490076D01*
X443600D01*
D57*
X418138Y377920D02*
G03*
X418138Y377920I-1181J0D01*
G01*
D58*
X408984Y381955D02*
G03*
X408984Y381955I-492J0D01*
G01*
X419816Y411013D02*
G03*
X419816Y411013I-492J0D01*
G01*
D59*
X312422Y376000D02*
X315178D01*
X345422D02*
X348178D01*
X334378D02*
X337134D01*
X323522D02*
X326278D01*
X437385Y398234D02*
X440140D01*
X432845D02*
X435601D01*
X445465Y330934D02*
X448220D01*
X432065Y331034D02*
X434821D01*
X436265D02*
X439020D01*
X444016D02*
X444508Y330542D01*
X443720Y331034D02*
X444016D01*
X439882Y330542D02*
X440374Y331034D01*
X440965D01*
X443720D01*
X427765D02*
X430520D01*
X413465Y330978D02*
X416221D01*
X417965D02*
X420720D01*
X422465D02*
X425220D01*
X350269Y364679D02*
X354599D01*
X344769Y364655D02*
X349099D01*
X339268Y364679D02*
X343599D01*
X333769D02*
X338099D01*
X328269Y364600D02*
X332599D01*
X322768D02*
X327099D01*
X317268Y364679D02*
X321599D01*
X311769D02*
X316099D01*
X291769Y422336D02*
Y432572D01*
Y422336D02*
X300431D01*
Y432572D01*
X291769D02*
X300431D01*
X284938Y421475D02*
X289662D01*
Y418325D02*
Y421475D01*
X284938Y418325D02*
X289662D01*
X284938D02*
Y421475D01*
X382869Y422682D02*
Y432918D01*
Y422682D02*
X391531D01*
Y432918D01*
X382869D02*
X391531D01*
X376038Y421820D02*
X380762D01*
Y418671D02*
Y421820D01*
X376038Y418671D02*
X380762D01*
X376038D02*
Y421820D01*
X352469Y422882D02*
Y433118D01*
Y422882D02*
X361131D01*
Y433118D01*
X352469D02*
X361131D01*
X345638Y422020D02*
X350362D01*
Y418871D02*
Y422020D01*
X345638Y418871D02*
X350362D01*
X345638D02*
Y422020D01*
X322069Y422796D02*
Y433032D01*
Y422796D02*
X330731D01*
Y433032D01*
X322069D02*
X330731D01*
X315238Y421935D02*
X319962D01*
Y418785D02*
Y421935D01*
X315238Y418785D02*
X319962D01*
X315238D02*
Y421935D01*
X254238Y422020D02*
X258962D01*
Y418871D02*
Y422020D01*
X254238Y418871D02*
X258962D01*
X254238D02*
Y422020D01*
X261069Y422882D02*
Y433118D01*
Y422882D02*
X269731D01*
Y433118D01*
X261069D02*
X269731D01*
X453135Y339600D02*
X457465D01*
X460535Y397400D02*
X464865D01*
X412222Y396100D02*
X414978D01*
X416435D02*
X420765D01*
X400435D02*
X404765D01*
X406135D02*
X410465D01*
X409901Y339000D02*
X412400D01*
X412900Y339500D01*
Y340499D01*
X412400Y340999D01*
X409901D01*
X412900Y341999D02*
Y342999D01*
Y342499D01*
X409901D01*
X410401Y341999D01*
X288700Y425900D02*
X285701D01*
Y427399D01*
X286201Y427899D01*
X287200D01*
X287700Y427399D01*
Y425900D01*
Y426900D02*
X288700Y427899D01*
Y430898D02*
Y428899D01*
X286701Y430898D01*
X286201D01*
X285701Y430399D01*
Y429399D01*
X286201Y428899D01*
Y431898D02*
X285701Y432398D01*
Y433398D01*
X286201Y433897D01*
X288200D01*
X288700Y433398D01*
Y432398D01*
X288200Y431898D01*
X286201D01*
X289200Y434897D02*
Y436896D01*
X285701Y439895D02*
Y437896D01*
X288700D01*
Y439895D01*
X287200Y437896D02*
Y438896D01*
X286201Y442895D02*
X285701Y442395D01*
Y441395D01*
X286201Y440895D01*
X286701D01*
X287200Y441395D01*
Y442395D01*
X287700Y442895D01*
X288200D01*
X288700Y442395D01*
Y441395D01*
X288200Y440895D01*
X285701Y443894D02*
X288700D01*
Y445394D01*
X288200Y445893D01*
X286201D01*
X285701Y445394D01*
Y443894D01*
Y448893D02*
Y446893D01*
X287200D01*
X286701Y447893D01*
Y448393D01*
X287200Y448893D01*
X288200D01*
X288700Y448393D01*
Y447393D01*
X288200Y446893D01*
X379800Y426246D02*
X376801D01*
Y427745D01*
X377301Y428245D01*
X378300D01*
X378800Y427745D01*
Y426246D01*
Y427245D02*
X379800Y428245D01*
Y431244D02*
Y429245D01*
X377801Y431244D01*
X377301D01*
X376801Y430744D01*
Y429744D01*
X377301Y429245D01*
Y432244D02*
X376801Y432744D01*
Y433743D01*
X377301Y434243D01*
X379300D01*
X379800Y433743D01*
Y432744D01*
X379300Y432244D01*
X377301D01*
X380300Y435243D02*
Y437242D01*
X376801Y440241D02*
Y438242D01*
X379800D01*
Y440241D01*
X378300Y438242D02*
Y439242D01*
X377301Y443240D02*
X376801Y442740D01*
Y441741D01*
X377301Y441241D01*
X377801D01*
X378300Y441741D01*
Y442740D01*
X378800Y443240D01*
X379300D01*
X379800Y442740D01*
Y441741D01*
X379300Y441241D01*
X376801Y444240D02*
X379800D01*
Y445739D01*
X379300Y446239D01*
X377301D01*
X376801Y445739D01*
Y444240D01*
X379800Y448738D02*
X376801D01*
X378300Y447239D01*
Y449238D01*
X349400Y426446D02*
X346401D01*
Y427945D01*
X346901Y428445D01*
X347901D01*
X348400Y427945D01*
Y426446D01*
Y427445D02*
X349400Y428445D01*
Y431444D02*
Y429445D01*
X347401Y431444D01*
X346901D01*
X346401Y430944D01*
Y429945D01*
X346901Y429445D01*
Y432444D02*
X346401Y432944D01*
Y433943D01*
X346901Y434443D01*
X348900D01*
X349400Y433943D01*
Y432944D01*
X348900Y432444D01*
X346901D01*
X349900Y435443D02*
Y437442D01*
X346401Y440441D02*
Y438442D01*
X349400D01*
Y440441D01*
X347901Y438442D02*
Y439441D01*
X346901Y443440D02*
X346401Y442940D01*
Y441941D01*
X346901Y441441D01*
X347401D01*
X347901Y441941D01*
Y442940D01*
X348400Y443440D01*
X348900D01*
X349400Y442940D01*
Y441941D01*
X348900Y441441D01*
X346401Y444440D02*
X349400D01*
Y445939D01*
X348900Y446439D01*
X346901D01*
X346401Y445939D01*
Y444440D01*
X346901Y447439D02*
X346401Y447939D01*
Y448938D01*
X346901Y449438D01*
X347401D01*
X347901Y448938D01*
Y448439D01*
Y448938D01*
X348400Y449438D01*
X348900D01*
X349400Y448938D01*
Y447939D01*
X348900Y447439D01*
X319000Y426360D02*
X316001D01*
Y427859D01*
X316501Y428359D01*
X317500D01*
X318000Y427859D01*
Y426360D01*
Y427359D02*
X319000Y428359D01*
Y431358D02*
Y429359D01*
X317001Y431358D01*
X316501D01*
X316001Y430858D01*
Y429859D01*
X316501Y429359D01*
Y432358D02*
X316001Y432858D01*
Y433857D01*
X316501Y434357D01*
X318500D01*
X319000Y433857D01*
Y432858D01*
X318500Y432358D01*
X316501D01*
X319500Y435357D02*
Y437356D01*
X316001Y440355D02*
Y438356D01*
X319000D01*
Y440355D01*
X317500Y438356D02*
Y439356D01*
X316501Y443354D02*
X316001Y442854D01*
Y441855D01*
X316501Y441355D01*
X317001D01*
X317500Y441855D01*
Y442854D01*
X318000Y443354D01*
X318500D01*
X319000Y442854D01*
Y441855D01*
X318500Y441355D01*
X316001Y444354D02*
X319000D01*
Y445854D01*
X318500Y446353D01*
X316501D01*
X316001Y445854D01*
Y444354D01*
X319000Y449352D02*
Y447353D01*
X317001Y449352D01*
X316501D01*
X316001Y448853D01*
Y447853D01*
X316501Y447353D01*
X258000Y426446D02*
X255001D01*
Y427945D01*
X255501Y428445D01*
X256501D01*
X257000Y427945D01*
Y426446D01*
Y427445D02*
X258000Y428445D01*
Y431444D02*
Y429445D01*
X256001Y431444D01*
X255501D01*
X255001Y430944D01*
Y429945D01*
X255501Y429445D01*
Y432444D02*
X255001Y432944D01*
Y433943D01*
X255501Y434443D01*
X257500D01*
X258000Y433943D01*
Y432944D01*
X257500Y432444D01*
X255501D01*
X258500Y435443D02*
Y437442D01*
X255001Y440441D02*
Y438442D01*
X258000D01*
Y440441D01*
X256501Y438442D02*
Y439441D01*
X255501Y443440D02*
X255001Y442940D01*
Y441941D01*
X255501Y441441D01*
X256001D01*
X256501Y441941D01*
Y442940D01*
X257000Y443440D01*
X257500D01*
X258000Y442940D01*
Y441941D01*
X257500Y441441D01*
X255001Y444440D02*
X258000D01*
Y445939D01*
X257500Y446439D01*
X255501D01*
X255001Y445939D01*
Y444440D01*
X258000Y447439D02*
Y448439D01*
Y447939D01*
X255001D01*
X255501Y447439D01*
X304700Y415100D02*
X301701D01*
Y416600D01*
X302201Y417099D01*
X303201D01*
X303700Y416600D01*
Y415100D01*
Y416100D02*
X304700Y417099D01*
Y418099D02*
Y419099D01*
Y418599D01*
X301701D01*
X302201Y418099D01*
X304200Y420598D02*
X304700Y421098D01*
Y422098D01*
X304200Y422598D01*
X302201D01*
X301701Y422098D01*
Y421098D01*
X302201Y420598D01*
X302701D01*
X303201Y421098D01*
Y422598D01*
X305200Y423597D02*
Y425597D01*
X301701Y428596D02*
Y426596D01*
X304700D01*
Y428596D01*
X303201Y426596D02*
Y427596D01*
X302201Y431595D02*
X301701Y431095D01*
Y430095D01*
X302201Y429595D01*
X302701D01*
X303201Y430095D01*
Y431095D01*
X303700Y431595D01*
X304200D01*
X304700Y431095D01*
Y430095D01*
X304200Y429595D01*
X301701Y432594D02*
X304700D01*
Y434094D01*
X304200Y434594D01*
X302201D01*
X301701Y434094D01*
Y432594D01*
Y437593D02*
Y435593D01*
X303201D01*
X302701Y436593D01*
Y437093D01*
X303201Y437593D01*
X304200D01*
X304700Y437093D01*
Y436093D01*
X304200Y435593D01*
X395800Y415446D02*
X392801D01*
Y416945D01*
X393301Y417445D01*
X394301D01*
X394800Y416945D01*
Y415446D01*
Y416445D02*
X395800Y417445D01*
Y418445D02*
Y419444D01*
Y418945D01*
X392801D01*
X393301Y418445D01*
X395300Y420944D02*
X395800Y421444D01*
Y422443D01*
X395300Y422943D01*
X393301D01*
X392801Y422443D01*
Y421444D01*
X393301Y420944D01*
X393801D01*
X394301Y421444D01*
Y422943D01*
X396300Y423943D02*
Y425942D01*
X392801Y428941D02*
Y426942D01*
X395800D01*
Y428941D01*
X394301Y426942D02*
Y427942D01*
X393301Y431940D02*
X392801Y431440D01*
Y430441D01*
X393301Y429941D01*
X393801D01*
X394301Y430441D01*
Y431440D01*
X394800Y431940D01*
X395300D01*
X395800Y431440D01*
Y430441D01*
X395300Y429941D01*
X392801Y432940D02*
X395800D01*
Y434440D01*
X395300Y434939D01*
X393301D01*
X392801Y434440D01*
Y432940D01*
X395800Y437439D02*
X392801D01*
X394301Y435939D01*
Y437938D01*
X365400Y415646D02*
X362401D01*
Y417145D01*
X362901Y417645D01*
X363900D01*
X364400Y417145D01*
Y415646D01*
Y416645D02*
X365400Y417645D01*
Y418645D02*
Y419644D01*
Y419144D01*
X362401D01*
X362901Y418645D01*
X364900Y421144D02*
X365400Y421644D01*
Y422643D01*
X364900Y423143D01*
X362901D01*
X362401Y422643D01*
Y421644D01*
X362901Y421144D01*
X363401D01*
X363900Y421644D01*
Y423143D01*
X365900Y424143D02*
Y426142D01*
X362401Y429141D02*
Y427142D01*
X365400D01*
Y429141D01*
X363900Y427142D02*
Y428142D01*
X362901Y432140D02*
X362401Y431640D01*
Y430641D01*
X362901Y430141D01*
X363401D01*
X363900Y430641D01*
Y431640D01*
X364400Y432140D01*
X364900D01*
X365400Y431640D01*
Y430641D01*
X364900Y430141D01*
X362401Y433140D02*
X365400D01*
Y434640D01*
X364900Y435139D01*
X362901D01*
X362401Y434640D01*
Y433140D01*
X362901Y436139D02*
X362401Y436639D01*
Y437639D01*
X362901Y438138D01*
X363401D01*
X363900Y437639D01*
Y437139D01*
Y437639D01*
X364400Y438138D01*
X364900D01*
X365400Y437639D01*
Y436639D01*
X364900Y436139D01*
X335000Y415560D02*
X332001D01*
Y417059D01*
X332501Y417559D01*
X333501D01*
X334000Y417059D01*
Y415560D01*
Y416560D02*
X335000Y417559D01*
Y418559D02*
Y419559D01*
Y419059D01*
X332001D01*
X332501Y418559D01*
X334500Y421058D02*
X335000Y421558D01*
Y422558D01*
X334500Y423057D01*
X332501D01*
X332001Y422558D01*
Y421558D01*
X332501Y421058D01*
X333001D01*
X333501Y421558D01*
Y423057D01*
X335500Y424057D02*
Y426056D01*
X332001Y429056D02*
Y427056D01*
X335000D01*
Y429056D01*
X333501Y427056D02*
Y428056D01*
X332501Y432055D02*
X332001Y431555D01*
Y430555D01*
X332501Y430055D01*
X333001D01*
X333501Y430555D01*
Y431555D01*
X334000Y432055D01*
X334500D01*
X335000Y431555D01*
Y430555D01*
X334500Y430055D01*
X332001Y433054D02*
X335000D01*
Y434554D01*
X334500Y435053D01*
X332501D01*
X332001Y434554D01*
Y433054D01*
X335000Y438053D02*
Y436053D01*
X333001Y438053D01*
X332501D01*
X332001Y437553D01*
Y436553D01*
X332501Y436053D01*
X274000Y415646D02*
X271001D01*
Y417145D01*
X271501Y417645D01*
X272500D01*
X273000Y417145D01*
Y415646D01*
Y416645D02*
X274000Y417645D01*
Y418645D02*
Y419644D01*
Y419144D01*
X271001D01*
X271501Y418645D01*
X273500Y421144D02*
X274000Y421644D01*
Y422643D01*
X273500Y423143D01*
X271501D01*
X271001Y422643D01*
Y421644D01*
X271501Y421144D01*
X272001D01*
X272500Y421644D01*
Y423143D01*
X274500Y424143D02*
Y426142D01*
X271001Y429141D02*
Y427142D01*
X274000D01*
Y429141D01*
X272500Y427142D02*
Y428142D01*
X271501Y432140D02*
X271001Y431640D01*
Y430641D01*
X271501Y430141D01*
X272001D01*
X272500Y430641D01*
Y431640D01*
X273000Y432140D01*
X273500D01*
X274000Y431640D01*
Y430641D01*
X273500Y430141D01*
X271001Y433140D02*
X274000D01*
Y434640D01*
X273500Y435139D01*
X271501D01*
X271001Y434640D01*
Y433140D01*
X274000Y436139D02*
Y437139D01*
Y436639D01*
X271001D01*
X271501Y436139D01*
X449200Y343300D02*
X452199D01*
Y341800D01*
X451699Y341301D01*
X450700D01*
X450200Y341800D01*
Y343300D01*
Y342300D02*
X449200Y341301D01*
Y340301D02*
Y339301D01*
Y339801D01*
X452199D01*
X451699Y340301D01*
Y337802D02*
X452199Y337302D01*
Y336302D01*
X451699Y335802D01*
X451199D01*
X450700Y336302D01*
X450200Y335802D01*
X449700D01*
X449200Y336302D01*
Y337302D01*
X449700Y337802D01*
X450200D01*
X450700Y337302D01*
X451199Y337802D01*
X451699D01*
X450700Y337302D02*
Y336302D01*
X315234Y351879D02*
X312235D01*
Y353378D01*
X312735Y353878D01*
X313734D01*
X314234Y353378D01*
Y351879D01*
Y352878D02*
X315234Y353878D01*
Y354878D02*
Y355877D01*
Y355378D01*
X312235D01*
X312735Y354878D01*
X312235Y357377D02*
Y359376D01*
X312735D01*
X314734Y357377D01*
X315234D01*
X320734Y351879D02*
X317735D01*
Y353378D01*
X318235Y353878D01*
X319234D01*
X319734Y353378D01*
Y351879D01*
Y352878D02*
X320734Y353878D01*
Y354878D02*
Y355877D01*
Y355378D01*
X317735D01*
X318235Y354878D01*
X317735Y359376D02*
X318235Y358377D01*
X319234Y357377D01*
X320234D01*
X320734Y357877D01*
Y358876D01*
X320234Y359376D01*
X319734D01*
X319234Y358876D01*
Y357377D01*
X326234Y351800D02*
X323235D01*
Y353299D01*
X323735Y353799D01*
X324734D01*
X325234Y353299D01*
Y351800D01*
Y352800D02*
X326234Y353799D01*
Y354799D02*
Y355799D01*
Y355299D01*
X323235D01*
X323735Y354799D01*
X323235Y359298D02*
Y357298D01*
X324734D01*
X324235Y358298D01*
Y358798D01*
X324734Y359298D01*
X325734D01*
X326234Y358798D01*
Y357798D01*
X325734Y357298D01*
X331734Y351800D02*
X328735D01*
Y353299D01*
X329235Y353799D01*
X330234D01*
X330734Y353299D01*
Y351800D01*
Y352800D02*
X331734Y353799D01*
Y354799D02*
Y355799D01*
Y355299D01*
X328735D01*
X329235Y354799D01*
X331734Y358798D02*
X328735D01*
X330234Y357298D01*
Y359298D01*
X337234Y351879D02*
X334235D01*
Y353378D01*
X334735Y353878D01*
X335734D01*
X336234Y353378D01*
Y351879D01*
Y352878D02*
X337234Y353878D01*
Y354878D02*
Y355877D01*
Y355378D01*
X334235D01*
X334735Y354878D01*
Y357377D02*
X334235Y357877D01*
Y358876D01*
X334735Y359376D01*
X335234D01*
X335734Y358876D01*
Y358377D01*
Y358876D01*
X336234Y359376D01*
X336734D01*
X337234Y358876D01*
Y357877D01*
X336734Y357377D01*
X342734Y351879D02*
X339735D01*
Y353378D01*
X340235Y353878D01*
X341234D01*
X341734Y353378D01*
Y351879D01*
Y352878D02*
X342734Y353878D01*
Y354878D02*
Y355877D01*
Y355378D01*
X339735D01*
X340235Y354878D01*
X342734Y359376D02*
Y357377D01*
X340735Y359376D01*
X340235D01*
X339735Y358876D01*
Y357877D01*
X340235Y357377D01*
X348702Y352261D02*
X345703D01*
Y353760D01*
X346203Y354260D01*
X347203D01*
X347703Y353760D01*
Y352261D01*
Y353260D02*
X348702Y354260D01*
Y355260D02*
Y356259D01*
Y355760D01*
X345703D01*
X346203Y355260D01*
X348702Y357759D02*
Y358758D01*
Y358259D01*
X345703D01*
X346203Y357759D01*
X353734Y351879D02*
X350735D01*
Y353378D01*
X351235Y353878D01*
X352234D01*
X352734Y353378D01*
Y351879D01*
Y352878D02*
X353734Y353878D01*
Y354878D02*
Y355877D01*
Y355378D01*
X350735D01*
X351235Y354878D01*
Y357377D02*
X350735Y357877D01*
Y358876D01*
X351235Y359376D01*
X353234D01*
X353734Y358876D01*
Y357877D01*
X353234Y357377D01*
X351235D01*
X468599Y399800D02*
X465600D01*
Y397801D01*
Y396801D02*
Y395801D01*
Y396301D01*
X468599D01*
X468099Y396801D01*
X236690Y488276D02*
Y487276D01*
Y487776D01*
X239189D01*
X239689Y487276D01*
Y486776D01*
X239189Y486276D01*
X239689Y491275D02*
Y489275D01*
X237690Y491275D01*
X237190D01*
X236690Y490775D01*
Y489775D01*
X237190Y489275D01*
X276801Y391854D02*
X279800D01*
Y393354D01*
X279300Y393854D01*
X277301D01*
X276801Y393354D01*
Y391854D01*
X277301Y396853D02*
X276801Y396353D01*
Y395353D01*
X277301Y394853D01*
X277801D01*
X278300Y395353D01*
Y396353D01*
X278800Y396853D01*
X279300D01*
X279800Y396353D01*
Y395353D01*
X279300Y394853D01*
X279800Y397852D02*
Y398852D01*
Y398352D01*
X276801D01*
X277301Y397852D01*
X280300Y400352D02*
Y402351D01*
X276801Y405350D02*
Y403351D01*
X279800D01*
Y405350D01*
X278300Y403351D02*
Y404350D01*
X277301Y408349D02*
X276801Y407849D01*
Y406849D01*
X277301Y406350D01*
X277801D01*
X278300Y406849D01*
Y407849D01*
X278800Y408349D01*
X279300D01*
X279800Y407849D01*
Y406849D01*
X279300Y406350D01*
X276801Y409349D02*
X279800D01*
Y410848D01*
X279300Y411348D01*
X277301D01*
X276801Y410848D01*
Y409349D01*
Y414347D02*
Y412348D01*
X278300D01*
X277801Y413347D01*
Y413847D01*
X278300Y414347D01*
X279300D01*
X279800Y413847D01*
Y412848D01*
X279300Y412348D01*
X367901Y392200D02*
X370900D01*
Y393700D01*
X370400Y394199D01*
X368401D01*
X367901Y393700D01*
Y392200D01*
X368401Y397198D02*
X367901Y396698D01*
Y395699D01*
X368401Y395199D01*
X368901D01*
X369401Y395699D01*
Y396698D01*
X369900Y397198D01*
X370400D01*
X370900Y396698D01*
Y395699D01*
X370400Y395199D01*
X370900Y398198D02*
Y399198D01*
Y398698D01*
X367901D01*
X368401Y398198D01*
X371400Y400697D02*
Y402697D01*
X367901Y405696D02*
Y403696D01*
X370900D01*
Y405696D01*
X369401Y403696D02*
Y404696D01*
X368401Y408695D02*
X367901Y408195D01*
Y407195D01*
X368401Y406695D01*
X368901D01*
X369401Y407195D01*
Y408195D01*
X369900Y408695D01*
X370400D01*
X370900Y408195D01*
Y407195D01*
X370400Y406695D01*
X367901Y409694D02*
X370900D01*
Y411194D01*
X370400Y411694D01*
X368401D01*
X367901Y411194D01*
Y409694D01*
X370900Y414193D02*
X367901D01*
X369401Y412693D01*
Y414693D01*
X337501Y392400D02*
X340500D01*
Y393899D01*
X340000Y394399D01*
X338001D01*
X337501Y393899D01*
Y392400D01*
X338001Y397398D02*
X337501Y396899D01*
Y395899D01*
X338001Y395399D01*
X338501D01*
X339001Y395899D01*
Y396899D01*
X339500Y397398D01*
X340000D01*
X340500Y396899D01*
Y395899D01*
X340000Y395399D01*
X340500Y398398D02*
Y399398D01*
Y398898D01*
X337501D01*
X338001Y398398D01*
X341000Y400897D02*
Y402897D01*
X337501Y405896D02*
Y403896D01*
X340500D01*
Y405896D01*
X339001Y403896D02*
Y404896D01*
X338001Y408895D02*
X337501Y408395D01*
Y407395D01*
X338001Y406895D01*
X338501D01*
X339001Y407395D01*
Y408395D01*
X339500Y408895D01*
X340000D01*
X340500Y408395D01*
Y407395D01*
X340000Y406895D01*
X337501Y409894D02*
X340500D01*
Y411394D01*
X340000Y411894D01*
X338001D01*
X337501Y411394D01*
Y409894D01*
X338001Y412893D02*
X337501Y413393D01*
Y414393D01*
X338001Y414893D01*
X338501D01*
X339001Y414393D01*
Y413893D01*
Y414393D01*
X339500Y414893D01*
X340000D01*
X340500Y414393D01*
Y413393D01*
X340000Y412893D01*
X307101Y392314D02*
X310100D01*
Y393814D01*
X309600Y394314D01*
X307601D01*
X307101Y393814D01*
Y392314D01*
X307601Y397313D02*
X307101Y396813D01*
Y395813D01*
X307601Y395313D01*
X308101D01*
X308600Y395813D01*
Y396813D01*
X309100Y397313D01*
X309600D01*
X310100Y396813D01*
Y395813D01*
X309600Y395313D01*
X310100Y398312D02*
Y399312D01*
Y398812D01*
X307101D01*
X307601Y398312D01*
X310600Y400811D02*
Y402811D01*
X307101Y405810D02*
Y403811D01*
X310100D01*
Y405810D01*
X308600Y403811D02*
Y404810D01*
X307601Y408809D02*
X307101Y408309D01*
Y407309D01*
X307601Y406810D01*
X308101D01*
X308600Y407309D01*
Y408309D01*
X309100Y408809D01*
X309600D01*
X310100Y408309D01*
Y407309D01*
X309600Y406810D01*
X307101Y409808D02*
X310100D01*
Y411308D01*
X309600Y411808D01*
X307601D01*
X307101Y411308D01*
Y409808D01*
X310100Y414807D02*
Y412808D01*
X308101Y414807D01*
X307601D01*
X307101Y414307D01*
Y413307D01*
X307601Y412808D01*
X246101Y392400D02*
X249100D01*
Y393899D01*
X248600Y394399D01*
X246601D01*
X246101Y393899D01*
Y392400D01*
X246601Y397398D02*
X246101Y396899D01*
Y395899D01*
X246601Y395399D01*
X247101D01*
X247601Y395899D01*
Y396899D01*
X248100Y397398D01*
X248600D01*
X249100Y396899D01*
Y395899D01*
X248600Y395399D01*
X249100Y398398D02*
Y399398D01*
Y398898D01*
X246101D01*
X246601Y398398D01*
X249600Y400897D02*
Y402897D01*
X246101Y405896D02*
Y403896D01*
X249100D01*
Y405896D01*
X247601Y403896D02*
Y404896D01*
X246601Y408895D02*
X246101Y408395D01*
Y407395D01*
X246601Y406895D01*
X247101D01*
X247601Y407395D01*
Y408395D01*
X248100Y408895D01*
X248600D01*
X249100Y408395D01*
Y407395D01*
X248600Y406895D01*
X246101Y409894D02*
X249100D01*
Y411394D01*
X248600Y411894D01*
X246601D01*
X246101Y411394D01*
Y409894D01*
X249100Y412893D02*
Y413893D01*
Y413393D01*
X246101D01*
X246601Y412893D01*
X275701Y423800D02*
X278700D01*
Y425300D01*
X278200Y425799D01*
X276201D01*
X275701Y425300D01*
Y423800D01*
X278700Y428798D02*
Y426799D01*
X276701Y428798D01*
X276201D01*
X275701Y428299D01*
Y427299D01*
X276201Y426799D01*
X279200Y429798D02*
Y431797D01*
X275701Y434796D02*
Y432797D01*
X278700D01*
Y434796D01*
X277201Y432797D02*
Y433797D01*
X276201Y437795D02*
X275701Y437296D01*
Y436296D01*
X276201Y435796D01*
X276701D01*
X277201Y436296D01*
Y437296D01*
X277700Y437795D01*
X278200D01*
X278700Y437296D01*
Y436296D01*
X278200Y435796D01*
X275701Y438795D02*
X278700D01*
Y440295D01*
X278200Y440795D01*
X276201D01*
X275701Y440295D01*
Y438795D01*
Y443793D02*
Y441794D01*
X277201D01*
X276701Y442794D01*
Y443294D01*
X277201Y443793D01*
X278200D01*
X278700Y443294D01*
Y442294D01*
X278200Y441794D01*
X366801Y424146D02*
X369800D01*
Y425645D01*
X369300Y426145D01*
X367301D01*
X366801Y425645D01*
Y424146D01*
X369800Y429144D02*
Y427145D01*
X367801Y429144D01*
X367301D01*
X366801Y428644D01*
Y427644D01*
X367301Y427145D01*
X370300Y430144D02*
Y432143D01*
X366801Y435142D02*
Y433143D01*
X369800D01*
Y435142D01*
X368301Y433143D02*
Y434142D01*
X367301Y438141D02*
X366801Y437641D01*
Y436642D01*
X367301Y436142D01*
X367801D01*
X368301Y436642D01*
Y437641D01*
X368800Y438141D01*
X369300D01*
X369800Y437641D01*
Y436642D01*
X369300Y436142D01*
X366801Y439141D02*
X369800D01*
Y440640D01*
X369300Y441140D01*
X367301D01*
X366801Y440640D01*
Y439141D01*
X369800Y443639D02*
X366801D01*
X368301Y442140D01*
Y444139D01*
X336401Y424346D02*
X339400D01*
Y425845D01*
X338900Y426345D01*
X336901D01*
X336401Y425845D01*
Y424346D01*
X339400Y429344D02*
Y427345D01*
X337401Y429344D01*
X336901D01*
X336401Y428844D01*
Y427844D01*
X336901Y427345D01*
X339900Y430344D02*
Y432343D01*
X336401Y435342D02*
Y433343D01*
X339400D01*
Y435342D01*
X337900Y433343D02*
Y434342D01*
X336901Y438341D02*
X336401Y437841D01*
Y436842D01*
X336901Y436342D01*
X337401D01*
X337900Y436842D01*
Y437841D01*
X338400Y438341D01*
X338900D01*
X339400Y437841D01*
Y436842D01*
X338900Y436342D01*
X336401Y439341D02*
X339400D01*
Y440840D01*
X338900Y441340D01*
X336901D01*
X336401Y440840D01*
Y439341D01*
X336901Y442340D02*
X336401Y442840D01*
Y443839D01*
X336901Y444339D01*
X337401D01*
X337900Y443839D01*
Y443339D01*
Y443839D01*
X338400Y444339D01*
X338900D01*
X339400Y443839D01*
Y442840D01*
X338900Y442340D01*
X306001Y424260D02*
X309000D01*
Y425759D01*
X308500Y426259D01*
X306501D01*
X306001Y425759D01*
Y424260D01*
X309000Y429258D02*
Y427259D01*
X307001Y429258D01*
X306501D01*
X306001Y428758D01*
Y427759D01*
X306501Y427259D01*
X309500Y430258D02*
Y432257D01*
X306001Y435256D02*
Y433257D01*
X309000D01*
Y435256D01*
X307501Y433257D02*
Y434257D01*
X306501Y438255D02*
X306001Y437755D01*
Y436756D01*
X306501Y436256D01*
X307001D01*
X307501Y436756D01*
Y437755D01*
X308000Y438255D01*
X308500D01*
X309000Y437755D01*
Y436756D01*
X308500Y436256D01*
X306001Y439255D02*
X309000D01*
Y440755D01*
X308500Y441254D01*
X306501D01*
X306001Y440755D01*
Y439255D01*
X309000Y444253D02*
Y442254D01*
X307001Y444253D01*
X306501D01*
X306001Y443753D01*
Y442754D01*
X306501Y442254D01*
X245001Y424346D02*
X248000D01*
Y425845D01*
X247500Y426345D01*
X245501D01*
X245001Y425845D01*
Y424346D01*
X248000Y429344D02*
Y427345D01*
X246001Y429344D01*
X245501D01*
X245001Y428844D01*
Y427844D01*
X245501Y427345D01*
X248500Y430344D02*
Y432343D01*
X245001Y435342D02*
Y433343D01*
X248000D01*
Y435342D01*
X246500Y433343D02*
Y434342D01*
X245501Y438341D02*
X245001Y437841D01*
Y436842D01*
X245501Y436342D01*
X246001D01*
X246500Y436842D01*
Y437841D01*
X247000Y438341D01*
X247500D01*
X248000Y437841D01*
Y436842D01*
X247500Y436342D01*
X245001Y439341D02*
X248000D01*
Y440840D01*
X247500Y441340D01*
X245501D01*
X245001Y440840D01*
Y439341D01*
X248000Y442340D02*
Y443339D01*
Y442840D01*
X245001D01*
X245501Y442340D01*
X280301Y424954D02*
X283300D01*
Y426454D01*
X282800Y426954D01*
X280801D01*
X280301Y426454D01*
Y424954D01*
X283300Y427953D02*
Y428953D01*
Y428453D01*
X280301D01*
X280801Y427953D01*
X283800Y430452D02*
Y432452D01*
X280301Y435451D02*
Y433452D01*
X283300D01*
Y435451D01*
X281801Y433452D02*
Y434451D01*
X280801Y438450D02*
X280301Y437950D01*
Y436950D01*
X280801Y436451D01*
X281301D01*
X281801Y436950D01*
Y437950D01*
X282300Y438450D01*
X282800D01*
X283300Y437950D01*
Y436950D01*
X282800Y436451D01*
X280301Y439450D02*
X283300D01*
Y440949D01*
X282800Y441449D01*
X280801D01*
X280301Y440949D01*
Y439450D01*
Y444448D02*
Y442449D01*
X281801D01*
X281301Y443448D01*
Y443948D01*
X281801Y444448D01*
X282800D01*
X283300Y443948D01*
Y442948D01*
X282800Y442449D01*
X371401Y425300D02*
X374400D01*
Y426799D01*
X373900Y427299D01*
X371901D01*
X371401Y426799D01*
Y425300D01*
X374400Y428299D02*
Y429299D01*
Y428799D01*
X371401D01*
X371901Y428299D01*
X374900Y430798D02*
Y432798D01*
X371401Y435797D02*
Y433797D01*
X374400D01*
Y435797D01*
X372901Y433797D02*
Y434797D01*
X371901Y438796D02*
X371401Y438296D01*
Y437296D01*
X371901Y436796D01*
X372401D01*
X372901Y437296D01*
Y438296D01*
X373400Y438796D01*
X373900D01*
X374400Y438296D01*
Y437296D01*
X373900Y436796D01*
X371401Y439795D02*
X374400D01*
Y441295D01*
X373900Y441795D01*
X371901D01*
X371401Y441295D01*
Y439795D01*
X374400Y444294D02*
X371401D01*
X372901Y442794D01*
Y444794D01*
X341001Y425500D02*
X344000D01*
Y427000D01*
X343500Y427499D01*
X341501D01*
X341001Y427000D01*
Y425500D01*
X344000Y428499D02*
Y429499D01*
Y428999D01*
X341001D01*
X341501Y428499D01*
X344500Y430998D02*
Y432998D01*
X341001Y435997D02*
Y433997D01*
X344000D01*
Y435997D01*
X342500Y433997D02*
Y434997D01*
X341501Y438996D02*
X341001Y438496D01*
Y437496D01*
X341501Y436996D01*
X342001D01*
X342500Y437496D01*
Y438496D01*
X343000Y438996D01*
X343500D01*
X344000Y438496D01*
Y437496D01*
X343500Y436996D01*
X341001Y439995D02*
X344000D01*
Y441495D01*
X343500Y441995D01*
X341501D01*
X341001Y441495D01*
Y439995D01*
X341501Y442994D02*
X341001Y443494D01*
Y444494D01*
X341501Y444994D01*
X342001D01*
X342500Y444494D01*
Y443994D01*
Y444494D01*
X343000Y444994D01*
X343500D01*
X344000Y444494D01*
Y443494D01*
X343500Y442994D01*
X310601Y425414D02*
X313600D01*
Y426914D01*
X313100Y427414D01*
X311101D01*
X310601Y426914D01*
Y425414D01*
X313600Y428413D02*
Y429413D01*
Y428913D01*
X310601D01*
X311101Y428413D01*
X314100Y430912D02*
Y432912D01*
X310601Y435911D02*
Y433911D01*
X313600D01*
Y435911D01*
X312101Y433911D02*
Y434911D01*
X311101Y438910D02*
X310601Y438410D01*
Y437410D01*
X311101Y436910D01*
X311601D01*
X312101Y437410D01*
Y438410D01*
X312600Y438910D01*
X313100D01*
X313600Y438410D01*
Y437410D01*
X313100Y436910D01*
X310601Y439910D02*
X313600D01*
Y441409D01*
X313100Y441909D01*
X311101D01*
X310601Y441409D01*
Y439910D01*
X313600Y444908D02*
Y442908D01*
X311601Y444908D01*
X311101D01*
X310601Y444408D01*
Y443408D01*
X311101Y442908D01*
X249601Y425500D02*
X252600D01*
Y427000D01*
X252100Y427499D01*
X250101D01*
X249601Y427000D01*
Y425500D01*
X252600Y428499D02*
Y429499D01*
Y428999D01*
X249601D01*
X250101Y428499D01*
X253100Y430998D02*
Y432998D01*
X249601Y435997D02*
Y433997D01*
X252600D01*
Y435997D01*
X251100Y433997D02*
Y434997D01*
X250101Y438996D02*
X249601Y438496D01*
Y437496D01*
X250101Y436996D01*
X250601D01*
X251100Y437496D01*
Y438496D01*
X251600Y438996D01*
X252100D01*
X252600Y438496D01*
Y437496D01*
X252100Y436996D01*
X249601Y439995D02*
X252600D01*
Y441495D01*
X252100Y441995D01*
X250101D01*
X249601Y441495D01*
Y439995D01*
X252600Y442994D02*
Y443994D01*
Y443494D01*
X249601D01*
X250101Y442994D01*
X413843Y320233D02*
X413343Y319733D01*
Y318734D01*
X413843Y318234D01*
X415843D01*
X416342Y318734D01*
Y319733D01*
X415843Y320233D01*
X416342Y321233D02*
Y322233D01*
Y321733D01*
X413343D01*
X413843Y321233D01*
X416342Y325731D02*
Y323732D01*
X414343Y325731D01*
X413843D01*
X413343Y325232D01*
Y324232D01*
X413843Y323732D01*
X422843Y319977D02*
X422343Y319478D01*
Y318478D01*
X422843Y317978D01*
X424843D01*
X425343Y318478D01*
Y319478D01*
X424843Y319977D01*
X425343Y320977D02*
Y321977D01*
Y321477D01*
X422343D01*
X422843Y320977D01*
X425343Y323476D02*
Y324476D01*
Y323976D01*
X422343D01*
X422843Y323476D01*
X418343Y319977D02*
X417843Y319478D01*
Y318478D01*
X418343Y317978D01*
X420343D01*
X420843Y318478D01*
Y319478D01*
X420343Y319977D01*
X420843Y320977D02*
Y321977D01*
Y321477D01*
X417843D01*
X418343Y320977D01*
Y323476D02*
X417843Y323976D01*
Y324976D01*
X418343Y325476D01*
X420343D01*
X420843Y324976D01*
Y323976D01*
X420343Y323476D01*
X418343D01*
X432343Y322433D02*
X431844Y321933D01*
Y320934D01*
X432343Y320434D01*
X434343D01*
X434842Y320934D01*
Y321933D01*
X434343Y322433D01*
X431844Y323433D02*
Y325432D01*
X432343D01*
X434343Y323433D01*
X434842D01*
X445843Y322433D02*
X445343Y321933D01*
Y320934D01*
X445843Y320434D01*
X447843D01*
X448343Y320934D01*
Y321933D01*
X447843Y322433D01*
X445343Y325432D02*
X445843Y324433D01*
X446843Y323433D01*
X447843D01*
X448343Y323933D01*
Y324932D01*
X447843Y325432D01*
X447343D01*
X446843Y324932D01*
Y323433D01*
X436643Y322433D02*
X436143Y321933D01*
Y320934D01*
X436643Y320434D01*
X438643D01*
X439143Y320934D01*
Y321933D01*
X438643Y322433D01*
X436143Y325432D02*
Y323433D01*
X437643D01*
X437143Y324433D01*
Y324932D01*
X437643Y325432D01*
X438643D01*
X439143Y324932D01*
Y323933D01*
X438643Y323433D01*
X441143Y322433D02*
X440644Y321933D01*
Y320934D01*
X441143Y320434D01*
X443143D01*
X443643Y320934D01*
Y321933D01*
X443143Y322433D01*
X443643Y324932D02*
X440644D01*
X442143Y323433D01*
Y325432D01*
X428143Y322433D02*
X427643Y321933D01*
Y320934D01*
X428143Y320434D01*
X430143D01*
X430643Y320934D01*
Y321933D01*
X430143Y322433D01*
X428143Y323433D02*
X427643Y323933D01*
Y324932D01*
X428143Y325432D01*
X428643D01*
X429143Y324932D01*
Y324433D01*
Y324932D01*
X429643Y325432D01*
X430143D01*
X430643Y324932D01*
Y323933D01*
X430143Y323433D01*
X437763Y405977D02*
X437263Y405478D01*
Y404478D01*
X437763Y403978D01*
X439763D01*
X440263Y404478D01*
Y405478D01*
X439763Y405977D01*
X440263Y408976D02*
Y406977D01*
X438263Y408976D01*
X437763D01*
X437263Y408476D01*
Y407477D01*
X437763Y406977D01*
X433223Y405733D02*
X432724Y405233D01*
Y404234D01*
X433223Y403734D01*
X435223D01*
X435722Y404234D01*
Y405233D01*
X435223Y405733D01*
X435722Y406733D02*
Y407733D01*
Y407233D01*
X432724D01*
X433223Y406733D01*
X321899Y378501D02*
X322399Y379000D01*
Y380000D01*
X321899Y380500D01*
X319900D01*
X319400Y380000D01*
Y379000D01*
X319900Y378501D01*
X319400Y377501D02*
Y376501D01*
Y377001D01*
X322399D01*
X321899Y377501D01*
X322399Y373002D02*
Y375002D01*
X320900D01*
X321399Y374002D01*
Y373502D01*
X320900Y373002D01*
X319900D01*
X319400Y373502D01*
Y374502D01*
X319900Y375002D01*
X332799Y378501D02*
X333299Y379000D01*
Y380000D01*
X332799Y380500D01*
X330800D01*
X330300Y380000D01*
Y379000D01*
X330800Y378501D01*
X330300Y377501D02*
Y376501D01*
Y377001D01*
X333299D01*
X332799Y377501D01*
X333299Y373002D02*
X332799Y374002D01*
X331800Y375002D01*
X330800D01*
X330300Y374502D01*
Y373502D01*
X330800Y373002D01*
X331300D01*
X331800Y373502D01*
Y375002D01*
X343599Y378501D02*
X344099Y379000D01*
Y380000D01*
X343599Y380500D01*
X341600D01*
X341100Y380000D01*
Y379000D01*
X341600Y378501D01*
X341100Y377501D02*
Y376501D01*
Y377001D01*
X344099D01*
X343599Y377501D01*
X344099Y375002D02*
Y373002D01*
X343599D01*
X341600Y375002D01*
X341100D01*
X310099Y378501D02*
X310599Y379000D01*
Y380000D01*
X310099Y380500D01*
X308100D01*
X307600Y380000D01*
Y379000D01*
X308100Y378501D01*
X307600Y377501D02*
Y376501D01*
Y377001D01*
X310599D01*
X310099Y377501D01*
Y375002D02*
X310599Y374502D01*
Y373502D01*
X310099Y373002D01*
X309599D01*
X309100Y373502D01*
X308600Y373002D01*
X308100D01*
X307600Y373502D01*
Y374502D01*
X308100Y375002D01*
X308600D01*
X309100Y374502D01*
X309599Y375002D01*
X310099D01*
X309100Y374502D02*
Y373502D01*
X412401Y403899D02*
X411901Y403400D01*
Y402400D01*
X412401Y401900D01*
X414400D01*
X414900Y402400D01*
Y403400D01*
X414400Y403899D01*
X414900Y406898D02*
Y404899D01*
X412901Y406898D01*
X412401D01*
X411901Y406398D01*
Y405399D01*
X412401Y404899D01*
Y407898D02*
X411901Y408398D01*
Y409398D01*
X412401Y409897D01*
X414400D01*
X414900Y409398D01*
Y408398D01*
X414400Y407898D01*
X412401D01*
X403800Y402000D02*
X400801D01*
Y403500D01*
X401301Y403999D01*
X402301D01*
X402800Y403500D01*
Y402000D01*
Y403000D02*
X403800Y403999D01*
Y406998D02*
Y404999D01*
X401801Y406998D01*
X401301D01*
X400801Y406498D01*
Y405499D01*
X401301Y404999D01*
X403800Y407998D02*
Y408998D01*
Y408498D01*
X400801D01*
X401301Y407998D01*
X419700Y402100D02*
X416701D01*
Y403600D01*
X417201Y404099D01*
X418200D01*
X418700Y403600D01*
Y402100D01*
Y403100D02*
X419700Y404099D01*
Y407098D02*
Y405099D01*
X417701Y407098D01*
X417201D01*
X416701Y406599D01*
Y405599D01*
X417201Y405099D01*
X419700Y410097D02*
Y408098D01*
X417701Y410097D01*
X417201D01*
X416701Y409598D01*
Y408598D01*
X417201Y408098D01*
X409300Y402500D02*
X406301D01*
Y404000D01*
X406801Y404499D01*
X407800D01*
X408300Y404000D01*
Y402500D01*
Y403500D02*
X409300Y404499D01*
Y407498D02*
Y405499D01*
X407301Y407498D01*
X406801D01*
X406301Y406998D01*
Y405999D01*
X406801Y405499D01*
Y408498D02*
X406301Y408998D01*
Y409998D01*
X406801Y410497D01*
X407301D01*
X407800Y409998D01*
Y409498D01*
Y409998D01*
X408300Y410497D01*
X408800D01*
X409300Y409998D01*
Y408998D01*
X408800Y408498D01*
X424100Y425299D02*
Y422800D01*
X424600Y422300D01*
X425599D01*
X426099Y422800D01*
Y425299D01*
X429098Y422300D02*
X427099D01*
X429098Y424299D01*
Y424799D01*
X428598Y425299D01*
X427599D01*
X427099Y424799D01*
X419900Y308599D02*
X421899D01*
X420900D01*
Y305600D01*
X422899D02*
Y308599D01*
X424399D01*
X424898Y308099D01*
Y307100D01*
X424399Y306600D01*
X422899D01*
X427897Y308599D02*
X426898Y308099D01*
X425898Y307100D01*
Y306100D01*
X426398Y305600D01*
X427398D01*
X427897Y306100D01*
Y306600D01*
X427398Y307100D01*
X425898D01*
X402500Y327699D02*
X404499D01*
X403500D01*
Y324700D01*
X405499D02*
Y327699D01*
X406998D01*
X407498Y327199D01*
Y326200D01*
X406998Y325700D01*
X405499D01*
X408498Y325200D02*
X408998Y324700D01*
X409998D01*
X410497Y325200D01*
Y327199D01*
X409998Y327699D01*
X408998D01*
X408498Y327199D01*
Y326699D01*
X408998Y326200D01*
X410497D01*
X450300Y327199D02*
X452299D01*
X451300D01*
Y324200D01*
X453299D02*
Y327199D01*
X454799D01*
X455298Y326699D01*
Y325699D01*
X454799Y325200D01*
X453299D01*
X456298Y327199D02*
X458297D01*
Y326699D01*
X456298Y324700D01*
Y324200D01*
X405600Y308599D02*
X407599D01*
X406600D01*
Y305600D01*
X408599D02*
Y308599D01*
X410099D01*
X410598Y308099D01*
Y307100D01*
X410099Y306600D01*
X408599D01*
X411598Y308099D02*
X412098Y308599D01*
X413098D01*
X413597Y308099D01*
Y307599D01*
X413098Y307100D01*
X413597Y306600D01*
Y306100D01*
X413098Y305600D01*
X412098D01*
X411598Y306100D01*
Y306600D01*
X412098Y307100D01*
X411598Y307599D01*
Y308099D01*
X412098Y307100D02*
X413098D01*
X424101Y430300D02*
X427100D01*
Y431800D01*
X426600Y432299D01*
X424601D01*
X424101Y431800D01*
Y430300D01*
X427100Y433299D02*
X424101D01*
Y434798D01*
X424601Y435298D01*
X425600D01*
X426100Y434798D01*
Y433299D01*
Y434299D02*
X427100Y435298D01*
X424101Y436298D02*
Y437298D01*
Y436798D01*
X427100D01*
Y436298D01*
Y437298D01*
X424101Y438797D02*
X426100D01*
X427100Y439797D01*
X426100Y440797D01*
X424101D01*
Y443796D02*
Y441796D01*
X427100D01*
Y443796D01*
X425600Y441796D02*
Y442796D01*
X401501Y433099D02*
X401001Y432599D01*
Y431600D01*
X401501Y431100D01*
X403500D01*
X404000Y431600D01*
Y432599D01*
X403500Y433099D01*
X402500D01*
Y432100D01*
X404000Y434099D02*
X401001D01*
X404000Y436098D01*
X401001D01*
Y437098D02*
X404000D01*
Y438598D01*
X403500Y439097D01*
X401501D01*
X401001Y438598D01*
Y437098D01*
D60*
X413020Y347211D02*
X447665D01*
X413020Y381857D02*
X447665D01*
Y347211D02*
Y381857D01*
X413020Y347211D02*
Y381857D01*
X413222Y411998D02*
X415978D01*
X413222Y424202D02*
X415978D01*
Y411998D02*
Y424202D01*
X413222Y411998D02*
Y424202D01*
M02*
