%FSLAX25Y25*%
%MOIN*%
G70*
G01*
G75*
G04 Layer_Physical_Order=4*
G04 Layer_Color=16711680*
%ADD10R,0.03150X0.03150*%
%ADD11O,0.00984X0.05906*%
%ADD12O,0.05906X0.00984*%
%ADD13R,0.03543X0.02559*%
%ADD14R,0.01575X0.01378*%
%ADD15R,0.09449X0.06693*%
%ADD16R,0.04528X0.02756*%
%ADD17R,0.03150X0.02362*%
%ADD18R,0.03543X0.02362*%
%ADD19R,0.05000X0.10000*%
%ADD20C,0.04000*%
%ADD21R,0.02400X0.07400*%
%ADD22C,0.03000*%
%ADD23C,0.00800*%
%ADD24C,0.02000*%
%ADD25C,0.01500*%
%ADD26C,0.02500*%
%ADD27C,0.01000*%
%ADD28C,0.00700*%
%ADD29C,0.01200*%
%ADD30R,0.05700X0.15400*%
%ADD31R,0.07500X0.37100*%
%ADD32R,0.06900X0.17500*%
%ADD33R,0.31800X0.05600*%
%ADD34R,0.45600X0.06300*%
%ADD35R,0.08100X0.04200*%
%ADD36R,0.09200X0.14200*%
%ADD37R,0.09400X0.04200*%
%ADD38R,0.23100X0.07700*%
%ADD39R,0.14800X0.05700*%
%ADD40R,0.03600X0.14100*%
%ADD41R,0.02200X0.05400*%
%ADD42R,0.02158X0.06200*%
%ADD43R,0.22800X0.13900*%
%ADD44C,0.05906*%
%ADD45C,0.05512*%
%ADD46C,0.14173*%
%ADD47C,0.02500*%
%ADD48R,0.09449X0.02992*%
%ADD49R,0.38300X0.04600*%
%ADD50R,0.25500X0.07100*%
%ADD51R,0.15800X0.14200*%
%ADD52R,0.21700X0.05400*%
%ADD53R,0.25000X0.07200*%
%ADD54R,0.23800X0.05800*%
%ADD55R,0.25700X0.08500*%
%ADD56R,0.24900X0.08000*%
D10*
X335700Y371944D02*
D03*
Y377456D02*
D03*
X452400Y384844D02*
D03*
Y390356D02*
D03*
X448100Y384744D02*
D03*
Y390256D02*
D03*
X431300Y384744D02*
D03*
Y390256D02*
D03*
X425300Y384644D02*
D03*
Y390156D02*
D03*
X435700Y384744D02*
D03*
Y390256D02*
D03*
X421100Y384644D02*
D03*
Y390156D02*
D03*
X456600Y384844D02*
D03*
Y390356D02*
D03*
X416100Y333756D02*
D03*
Y328244D02*
D03*
X420300Y333756D02*
D03*
Y328244D02*
D03*
X424500Y333756D02*
D03*
Y328244D02*
D03*
D13*
X443400Y390354D02*
D03*
Y384646D02*
D03*
D17*
X467900Y394644D02*
D03*
Y400156D02*
D03*
D22*
X369205Y457995D02*
X378500Y448700D01*
X372400Y382900D02*
Y412700D01*
X351700Y362200D02*
X372400Y382900D01*
X309844Y371656D02*
Y373244D01*
Y371656D02*
X319300Y362200D01*
X351700D01*
D23*
X464500Y372600D02*
X466400Y370700D01*
X464300Y371800D02*
Y372400D01*
X464500Y372600D01*
X466400Y295165D02*
Y370700D01*
X463600Y367900D02*
X464600Y366900D01*
X466400Y295165D02*
X467050Y294515D01*
X463900Y289335D02*
X467050Y292485D01*
Y294515D01*
X463900Y287200D02*
Y289335D01*
X464600Y293500D02*
Y366900D01*
X458300Y367100D02*
X462450Y362950D01*
Y295585D02*
Y362950D01*
X460250Y293385D02*
X462450Y295585D01*
X460250Y291250D02*
Y293385D01*
X452000Y301100D02*
X453600Y299500D01*
X452000Y301100D02*
Y336318D01*
X452350Y344332D02*
X453250Y343432D01*
X452350Y344332D02*
Y368150D01*
X452000Y336318D02*
X453250Y337568D01*
Y343432D01*
X439500Y381000D02*
X452350Y368150D01*
X456700Y293700D02*
Y300500D01*
X453500Y303700D02*
X456700Y300500D01*
X453500Y303700D02*
Y335838D01*
X454650Y336988D01*
Y351550D01*
X457300Y354200D01*
X460000Y296600D02*
Y356200D01*
Y356900D02*
Y357400D01*
X439500Y381000D02*
Y385600D01*
X443400Y389500D01*
Y390354D01*
D24*
X341400Y370934D02*
Y371056D01*
X330066Y370934D02*
X330500D01*
X448200Y390356D02*
Y394000D01*
X431300Y384744D02*
X435700D01*
Y381600D02*
Y384744D01*
X425400Y381100D02*
Y384544D01*
X425300Y384644D02*
X425400Y384544D01*
X421100Y384644D02*
X425300D01*
X419500Y383044D02*
X421100Y384644D01*
X419500Y381000D02*
Y383044D01*
X425300Y384644D02*
X431200D01*
X431300Y381000D02*
Y384744D01*
X443400Y384646D02*
X443598Y384844D01*
X443400Y383300D02*
Y384646D01*
Y383300D02*
X446000Y380700D01*
X452400Y384844D02*
X456600D01*
X443598D02*
X452400D01*
X416100Y333756D02*
X420300D01*
X424500D01*
X420300Y334056D02*
Y337600D01*
X311468Y378900D02*
X319434Y370934D01*
X301300Y378900D02*
X311468D01*
X281200Y399000D02*
X301300Y378900D01*
X281200Y399000D02*
Y412500D01*
D25*
X383400Y317900D02*
X386200D01*
X397000Y307100D01*
X401700Y302600D02*
Y310200D01*
X397000Y301400D02*
Y307100D01*
Y301400D02*
X400900Y297500D01*
X412600D01*
X417800Y302700D01*
X399492Y313008D02*
X402000Y310500D01*
X399492Y313008D02*
Y316288D01*
X395280Y320500D02*
X399492Y316288D01*
X331077Y320500D02*
X395280D01*
X330077Y319500D02*
X331077Y320500D01*
X259900Y319500D02*
X330077D01*
X258600Y320800D02*
X259900Y319500D01*
X249354Y320800D02*
X258600D01*
X249354Y315800D02*
X269800D01*
X249354Y310800D02*
X262670D01*
X263870Y312000D01*
X377501D01*
X383400Y317900D01*
X420800Y301000D02*
Y315300D01*
X420050Y316050D02*
X420800Y315300D01*
X388100Y325400D02*
X393000D01*
X393700Y324700D01*
X249604Y325550D02*
X250454Y326400D01*
X387100D01*
X388100Y325400D01*
X249354Y305800D02*
X250154Y305000D01*
X340500D01*
X342600Y307100D01*
X234000Y325800D02*
X240700D01*
X264600Y301900D02*
X341800D01*
X348800Y308900D01*
X356400D01*
X234000Y320800D02*
X240300D01*
X241700Y319400D01*
X234000Y315800D02*
X240400D01*
X241500Y314700D01*
X234000Y310800D02*
X240400D01*
X241400Y309800D01*
X406200Y286400D02*
X420800Y301000D01*
X264400Y296700D02*
X341600D01*
X348300Y303400D01*
X269800Y285900D02*
X270100Y286200D01*
X269800Y286400D02*
X406200D01*
X264000Y292200D02*
X351700D01*
X367500Y308000D01*
X371900D01*
X263900Y287400D02*
X267200D01*
X269100Y289300D01*
X357000D01*
X373800Y306100D01*
X377500D01*
D26*
X428600Y392956D02*
Y393456D01*
X421100Y390156D02*
X425300D01*
X428600Y393456D01*
Y393500D01*
X438056Y390256D02*
X439200Y391400D01*
X435700Y390256D02*
X438056D01*
X431300D02*
X435700D01*
X428600Y392956D02*
X431300Y390256D01*
X452400Y390356D02*
X456600D01*
X448200D02*
X452400D01*
X336024Y453386D02*
X340293D01*
X344902Y457995D01*
X369205D01*
X378500Y448700D02*
X400700D01*
X416100Y328244D02*
X420300D01*
X424500D01*
X335700Y377456D02*
Y382144D01*
X467900Y391100D02*
Y394644D01*
Y400156D02*
Y403100D01*
X410900Y328544D02*
X416100D01*
D27*
X460150Y284650D02*
X460300Y284500D01*
Y284100D02*
Y284500D01*
X461300Y375150D02*
X465556D01*
X468750Y288444D02*
Y371956D01*
X464956Y284650D02*
X468750Y288444D01*
X465556Y375150D02*
X468750Y371956D01*
X460150Y284650D02*
X464956D01*
X435200Y381100D02*
Y381600D01*
D28*
X451000Y342500D02*
Y351100D01*
X446800Y355300D02*
X451000Y351100D01*
D44*
X291900Y408860D02*
D03*
Y397049D02*
D03*
X383000Y409205D02*
D03*
Y397394D02*
D03*
X352600Y409406D02*
D03*
Y397594D02*
D03*
X322200Y409320D02*
D03*
Y397509D02*
D03*
X261200Y409406D02*
D03*
Y397594D02*
D03*
D45*
X282087Y453386D02*
D03*
X292874D02*
D03*
X303661D02*
D03*
X314449D02*
D03*
X357598D02*
D03*
X346811D02*
D03*
X336024D02*
D03*
X325236D02*
D03*
X287480Y464567D02*
D03*
X298268D02*
D03*
X309055D02*
D03*
X352205D02*
D03*
X341417D02*
D03*
X330630D02*
D03*
X319843D02*
D03*
D46*
X385689Y458976D02*
D03*
X253957D02*
D03*
D47*
X405800Y340200D02*
D03*
Y344300D02*
D03*
X412000Y341900D02*
D03*
X352300Y370934D02*
D03*
X341400D02*
D03*
X330500D02*
D03*
X319434D02*
D03*
X307300Y316000D02*
D03*
X305200Y322900D02*
D03*
X309200D02*
D03*
X305200Y307600D02*
D03*
X309200D02*
D03*
X328700Y307700D02*
D03*
X329000Y322100D02*
D03*
X391100Y328800D02*
D03*
X360200Y323200D02*
D03*
X391100Y299900D02*
D03*
X360228Y308672D02*
D03*
X460300Y284100D02*
D03*
X451000Y342500D02*
D03*
X446800Y355300D02*
D03*
X441200Y348900D02*
D03*
X439200Y391400D02*
D03*
X428600Y393500D02*
D03*
X448200Y394000D02*
D03*
X446118Y365518D02*
D03*
X446700Y351200D02*
D03*
X461300Y374800D02*
D03*
X464300Y371800D02*
D03*
X463600Y367900D02*
D03*
X463900Y287200D02*
D03*
X464600Y293500D02*
D03*
X457900Y366400D02*
D03*
X460250Y291250D02*
D03*
X439500Y381000D02*
D03*
X453600Y299500D02*
D03*
X457300Y354200D02*
D03*
X456700Y293700D02*
D03*
X459300Y356900D02*
D03*
X460000Y296600D02*
D03*
X450900Y338400D02*
D03*
X428900Y348900D02*
D03*
X400700Y448700D02*
D03*
X419500Y381000D02*
D03*
X431300D02*
D03*
X435200Y381100D02*
D03*
X425400D02*
D03*
X446000Y380700D02*
D03*
X420400Y337700D02*
D03*
X311100Y381900D02*
D03*
X324900Y382200D02*
D03*
X346800D02*
D03*
X335756D02*
D03*
X309844Y373244D02*
D03*
X372400Y412700D02*
D03*
X281200Y412500D02*
D03*
X405740Y414360D02*
D03*
X462700Y391300D02*
D03*
Y403300D02*
D03*
X456800Y333600D02*
D03*
X467900Y391100D02*
D03*
Y403100D02*
D03*
X373000Y426900D02*
D03*
X368400Y426800D02*
D03*
X342600Y427100D02*
D03*
X338000D02*
D03*
X312200Y427000D02*
D03*
X307600Y426900D02*
D03*
X281800Y426500D02*
D03*
X277300D02*
D03*
X251200Y427100D02*
D03*
X246600D02*
D03*
X409300Y442600D02*
D03*
X423200Y418100D02*
D03*
X402000Y310500D02*
D03*
X401700Y302600D02*
D03*
X417800Y302700D02*
D03*
X383400Y317900D02*
D03*
X413400Y380900D02*
D03*
X410900Y328544D02*
D03*
X414900Y337600D02*
D03*
X338500Y315100D02*
D03*
X393700Y324700D02*
D03*
X420050Y316050D02*
D03*
X269800Y315800D02*
D03*
X342600Y307100D02*
D03*
X241500Y325800D02*
D03*
X264600Y301900D02*
D03*
X356400Y308900D02*
D03*
X241500Y319400D02*
D03*
Y314700D02*
D03*
Y309800D02*
D03*
X264400Y296700D02*
D03*
X348300Y303400D02*
D03*
X264000Y292200D02*
D03*
X269800Y285900D02*
D03*
X371900Y308000D02*
D03*
X263900Y287400D02*
D03*
X377500Y306100D02*
D03*
X241700Y335700D02*
D03*
X241600Y331200D02*
D03*
X241500Y295300D02*
D03*
Y290900D02*
D03*
D48*
X249354Y335800D02*
D03*
Y330800D02*
D03*
Y325800D02*
D03*
Y320800D02*
D03*
Y315800D02*
D03*
Y310800D02*
D03*
Y305800D02*
D03*
Y300800D02*
D03*
Y295800D02*
D03*
Y290800D02*
D03*
X234000Y335800D02*
D03*
Y330800D02*
D03*
Y325800D02*
D03*
Y320800D02*
D03*
Y315800D02*
D03*
Y310800D02*
D03*
Y305800D02*
D03*
Y300800D02*
D03*
Y295800D02*
D03*
Y290800D02*
D03*
D49*
X335850Y371200D02*
D03*
D50*
X415750Y327250D02*
D03*
D51*
X418500Y339100D02*
D03*
D52*
X429850Y391000D02*
D03*
D53*
X424800Y383100D02*
D03*
D54*
X389600Y448000D02*
D03*
D55*
X242050Y293250D02*
D03*
D56*
X241850Y333300D02*
D03*
M02*
