%FSLAX25Y25*%
%MOIN*%
G70*
G01*
G75*
G04 Layer_Physical_Order=1*
G04 Layer_Color=255*
%ADD10R,0.03150X0.03150*%
%ADD11O,0.00984X0.05906*%
%ADD12O,0.05906X0.00984*%
%ADD13R,0.03543X0.02559*%
%ADD14R,0.01575X0.01378*%
%ADD15R,0.09449X0.06693*%
%ADD16R,0.04528X0.02756*%
%ADD17R,0.03150X0.02362*%
%ADD18R,0.03543X0.02362*%
%ADD19R,0.05000X0.10000*%
%ADD20C,0.04000*%
%ADD21R,0.02400X0.07400*%
%ADD22C,0.03000*%
%ADD23C,0.00800*%
%ADD24C,0.02000*%
%ADD25C,0.01500*%
%ADD26C,0.02500*%
%ADD27C,0.01000*%
%ADD28C,0.00700*%
%ADD29C,0.01200*%
%ADD30R,0.05700X0.15400*%
%ADD31R,0.07500X0.37100*%
%ADD32R,0.06900X0.17500*%
%ADD33R,0.31800X0.05600*%
%ADD34R,0.45600X0.06300*%
%ADD35R,0.08100X0.04200*%
%ADD36R,0.09200X0.14200*%
%ADD37R,0.09400X0.04200*%
%ADD38R,0.23100X0.07700*%
%ADD39R,0.14800X0.05700*%
%ADD40R,0.03600X0.14100*%
%ADD41R,0.02200X0.05400*%
%ADD42R,0.02158X0.06200*%
%ADD43R,0.22800X0.13900*%
%ADD44C,0.05906*%
%ADD45C,0.05512*%
%ADD46C,0.14173*%
%ADD47C,0.02500*%
G36*
X361900Y323100D02*
X362800Y322300D01*
Y318400D01*
X359900Y315500D01*
X349400D01*
X342233Y309500D01*
X336700D01*
X333300Y307700D01*
X330600Y306000D01*
Y296500D01*
X326800D01*
Y333200D01*
X330500D01*
Y324300D01*
X331900Y323000D01*
X356600D01*
X358300Y324700D01*
Y333200D01*
X361900D01*
Y323100D01*
D02*
G37*
D10*
X313800Y373244D02*
D03*
Y378756D02*
D03*
X346800Y373244D02*
D03*
Y378756D02*
D03*
X335756Y373244D02*
D03*
Y378756D02*
D03*
X324900Y373244D02*
D03*
Y378756D02*
D03*
X438763Y400990D02*
D03*
Y395478D02*
D03*
X434223Y400990D02*
D03*
Y395478D02*
D03*
X446842Y333690D02*
D03*
Y328178D02*
D03*
X433442Y333790D02*
D03*
Y328278D02*
D03*
X437642Y333790D02*
D03*
Y328278D02*
D03*
X442343Y328278D02*
D03*
Y333790D02*
D03*
X429143Y333790D02*
D03*
Y328278D02*
D03*
X414843Y333734D02*
D03*
Y328222D02*
D03*
X419343Y333734D02*
D03*
Y328222D02*
D03*
X423842Y333734D02*
D03*
Y328222D02*
D03*
X413600Y398856D02*
D03*
Y393344D02*
D03*
D11*
X415579Y386384D02*
D03*
X417547D02*
D03*
X419516D02*
D03*
X421484D02*
D03*
X423453D02*
D03*
X425421D02*
D03*
X427390D02*
D03*
X429358D02*
D03*
X431327D02*
D03*
X433295D02*
D03*
X435264D02*
D03*
X437232D02*
D03*
X439201D02*
D03*
X441169D02*
D03*
X443138D02*
D03*
X445106D02*
D03*
Y342684D02*
D03*
X443138D02*
D03*
X441169D02*
D03*
X439201D02*
D03*
X437232D02*
D03*
X435264D02*
D03*
X433295D02*
D03*
X431327D02*
D03*
X429358D02*
D03*
X427390D02*
D03*
X425421D02*
D03*
X423453D02*
D03*
X421484D02*
D03*
X419516D02*
D03*
X417547D02*
D03*
X415579D02*
D03*
D12*
X452193Y379298D02*
D03*
Y377329D02*
D03*
Y375361D02*
D03*
Y373392D02*
D03*
Y371424D02*
D03*
Y369455D02*
D03*
Y367487D02*
D03*
Y365518D02*
D03*
Y363550D02*
D03*
Y361581D02*
D03*
Y359613D02*
D03*
Y357644D02*
D03*
Y355676D02*
D03*
Y353707D02*
D03*
Y351739D02*
D03*
Y349770D02*
D03*
X408492D02*
D03*
Y351739D02*
D03*
Y353707D02*
D03*
Y355676D02*
D03*
Y357644D02*
D03*
Y359613D02*
D03*
Y361581D02*
D03*
Y363550D02*
D03*
Y365518D02*
D03*
Y367487D02*
D03*
Y369455D02*
D03*
Y371424D02*
D03*
Y373392D02*
D03*
Y375361D02*
D03*
Y377329D02*
D03*
Y379298D02*
D03*
D13*
X352434Y361824D02*
D03*
Y367533D02*
D03*
X346934Y361801D02*
D03*
Y367510D02*
D03*
X341434Y361824D02*
D03*
Y367533D02*
D03*
X335934Y361824D02*
D03*
Y367533D02*
D03*
X330434Y361746D02*
D03*
Y367454D02*
D03*
X324934Y361746D02*
D03*
Y367454D02*
D03*
X319434Y361824D02*
D03*
Y367533D02*
D03*
X313934Y361824D02*
D03*
Y367533D02*
D03*
X455300Y342454D02*
D03*
Y336746D02*
D03*
X418600Y398954D02*
D03*
Y393246D02*
D03*
X402600D02*
D03*
Y398954D02*
D03*
X408300Y393246D02*
D03*
Y398954D02*
D03*
D14*
X281900Y422154D02*
D03*
Y416446D02*
D03*
X277300D02*
D03*
Y422154D02*
D03*
X373000Y422500D02*
D03*
Y416791D02*
D03*
X368400D02*
D03*
Y422500D02*
D03*
X342600Y422700D02*
D03*
Y416991D02*
D03*
X338000D02*
D03*
Y422700D02*
D03*
X312200Y422614D02*
D03*
Y416905D02*
D03*
X307600D02*
D03*
Y422614D02*
D03*
X251200Y422700D02*
D03*
Y416991D02*
D03*
X246600D02*
D03*
Y422700D02*
D03*
D15*
X296100Y437100D02*
D03*
Y417809D02*
D03*
X387200Y437446D02*
D03*
Y418154D02*
D03*
X356800Y437646D02*
D03*
Y418354D02*
D03*
X326400Y437560D02*
D03*
Y418268D02*
D03*
X265400Y437646D02*
D03*
Y418354D02*
D03*
D16*
X287300Y416160D02*
D03*
Y423640D02*
D03*
X378400Y416505D02*
D03*
Y423986D02*
D03*
X348000Y416706D02*
D03*
Y424186D02*
D03*
X317600Y416620D02*
D03*
Y424100D02*
D03*
X256600Y416706D02*
D03*
Y424186D02*
D03*
D17*
X462700Y394644D02*
D03*
Y400156D02*
D03*
D18*
X419324Y414360D02*
D03*
Y418100D02*
D03*
Y421840D02*
D03*
X409876D02*
D03*
Y414360D02*
D03*
D19*
X409300Y456648D02*
D03*
Y435152D02*
D03*
X419300D02*
D03*
Y456648D02*
D03*
D20*
X405400Y318600D02*
D03*
X451800Y320900D02*
D03*
X409900Y302700D02*
D03*
X425900Y302900D02*
D03*
D21*
X387787Y328800D02*
D03*
Y301000D02*
D03*
X383850Y328800D02*
D03*
Y301000D02*
D03*
X379913Y328800D02*
D03*
Y301000D02*
D03*
X375976Y328800D02*
D03*
Y301000D02*
D03*
X372039Y328800D02*
D03*
Y301000D02*
D03*
X368102Y328800D02*
D03*
Y301000D02*
D03*
X364165Y328800D02*
D03*
Y301000D02*
D03*
X360228Y328800D02*
D03*
Y301000D02*
D03*
X356291Y328800D02*
D03*
Y301000D02*
D03*
X352354Y328800D02*
D03*
Y301000D02*
D03*
X344480Y328800D02*
D03*
Y301000D02*
D03*
X340543Y328800D02*
D03*
Y301000D02*
D03*
X336606Y328800D02*
D03*
Y301000D02*
D03*
X332669Y328800D02*
D03*
Y301000D02*
D03*
X328732Y328800D02*
D03*
Y301000D02*
D03*
X324795Y328800D02*
D03*
Y301000D02*
D03*
X320858Y328800D02*
D03*
Y301000D02*
D03*
X316921Y328800D02*
D03*
Y301000D02*
D03*
X312984Y328800D02*
D03*
Y301000D02*
D03*
X309047Y328800D02*
D03*
Y301000D02*
D03*
X305110Y328800D02*
D03*
Y301000D02*
D03*
X301173Y328800D02*
D03*
Y301000D02*
D03*
X297236Y328800D02*
D03*
Y301000D02*
D03*
X293299Y328800D02*
D03*
Y301000D02*
D03*
X289362Y328800D02*
D03*
Y301000D02*
D03*
X285425Y328800D02*
D03*
Y301000D02*
D03*
X281488Y328800D02*
D03*
Y301000D02*
D03*
X273614Y328800D02*
D03*
Y301000D02*
D03*
X277551D02*
D03*
Y328800D02*
D03*
D22*
X317867Y464567D02*
X319843D01*
X309000Y455700D02*
X317867Y464567D01*
X309000Y450800D02*
Y455700D01*
X296100Y437900D02*
X309000Y450800D01*
X356800Y437646D02*
Y446400D01*
X352400Y450800D02*
X356800Y446400D01*
X352400Y450800D02*
Y455300D01*
X343133Y464567D02*
X352400Y455300D01*
X342219Y464567D02*
X343133D01*
X381754Y437446D02*
X387200D01*
X354633Y464567D02*
X381754Y437446D01*
X352205Y464567D02*
X354633D01*
X326400Y437560D02*
Y443400D01*
X330630Y447630D01*
Y464567D01*
X265400Y437646D02*
Y448900D01*
X275100Y458600D01*
X292301D01*
X298268Y464567D01*
X346192Y373244D02*
X346800D01*
X343125Y376311D02*
X346192Y373244D01*
X343125Y376311D02*
Y411831D01*
X348000Y416706D01*
X335148Y373244D02*
X335756D01*
X331200Y377192D02*
X335148Y373244D01*
X331200Y377192D02*
Y383700D01*
X324300Y390600D02*
X331200Y383700D01*
X318500Y390600D02*
X324300D01*
X313200Y395900D02*
X318500Y390600D01*
X313200Y395900D02*
Y412220D01*
X317600Y416620D01*
X324292Y373244D02*
X324900D01*
X320300Y377236D02*
X324292Y373244D01*
X320300Y377236D02*
Y379900D01*
X313800Y386400D02*
X320300Y379900D01*
X263400Y386400D02*
X313800D01*
X253600Y396200D02*
X263400Y386400D01*
X253600Y396200D02*
Y413705D01*
X256600Y416706D01*
X409300Y456648D02*
X419300D01*
X401352Y448700D02*
X409300Y456648D01*
X400700Y448700D02*
X401352D01*
D23*
X408400Y315900D02*
Y319843D01*
X406643Y321600D02*
X408400Y319843D01*
X404100Y347800D02*
X406070Y349770D01*
X408492D01*
X402500Y350400D02*
X403839Y351739D01*
X408492D01*
X401600Y352800D02*
X402507Y353707D01*
X408492D01*
X400200Y362600D02*
X401219Y361581D01*
X408492D01*
X400800Y365650D02*
X402900Y363550D01*
X408492D01*
X401700Y355676D02*
X408492D01*
X375400Y330884D02*
X379216Y334700D01*
X375400Y329376D02*
Y330884D01*
Y329376D02*
X375976Y328800D01*
X393900Y306400D02*
X451530D01*
X467400Y322270D01*
X450967Y308100D02*
X465800Y322933D01*
X396200Y308100D02*
X450967D01*
X388500Y315800D02*
X396200Y308100D01*
X450304Y309700D02*
X464200Y323596D01*
X405868Y309700D02*
X450304D01*
X347200Y286650D02*
X463900D01*
X336606Y297244D02*
Y299700D01*
Y297244D02*
X347200Y286650D01*
X332669Y298131D02*
X346300Y284500D01*
X460300D01*
X348950Y291250D02*
X460250D01*
X344480Y295720D02*
X348950Y291250D01*
X344480Y295720D02*
Y301000D01*
X348337Y288800D02*
X461265D01*
X462700Y290235D01*
X340543Y296595D02*
X348337Y288800D01*
X340543Y296595D02*
Y301000D01*
X352354Y295846D02*
Y301000D01*
Y295846D02*
X354400Y293800D01*
X456600D01*
X379913Y325087D02*
Y328800D01*
Y325087D02*
X386700Y318300D01*
X397268D01*
X372039Y326061D02*
X382300Y315800D01*
X372039Y298061D02*
Y301000D01*
Y298061D02*
X374000Y296100D01*
X396700Y299500D02*
X453600D01*
X390100Y306100D02*
X396700Y299500D01*
X377700Y306100D02*
X390100D01*
X375976Y304376D02*
X377700Y306100D01*
X375976Y301000D02*
Y304376D01*
X441169Y339221D02*
Y342684D01*
X443826Y336565D02*
X444414D01*
X441169Y339221D02*
X443826Y336565D01*
X444414D02*
X446842Y334136D01*
X439714Y336865D02*
X442343Y334237D01*
X439235Y336865D02*
X439714D01*
X437232Y338868D02*
X439235Y336865D01*
X437232Y338868D02*
Y342684D01*
X451800Y373400D02*
X457593D01*
X458245Y372747D01*
X459543D01*
X460490Y371800D01*
X464300D01*
X458880Y371147D02*
X460028Y370000D01*
X452469Y371147D02*
X458880D01*
X460028Y370000D02*
X462000D01*
X452193Y371424D02*
X452469Y371147D01*
X462000Y370000D02*
X464100Y367900D01*
X463471Y377329D02*
X467400Y373400D01*
X452193Y377329D02*
X463471D01*
X463600Y367900D02*
X464100D01*
X465800Y322933D02*
Y361965D01*
X452193Y369455D02*
X458310D01*
X465800Y361965D01*
X467400Y322270D02*
Y373400D01*
X462700Y291600D02*
X464600Y293500D01*
X462700Y290235D02*
Y291600D01*
X456813Y367487D02*
X457900Y366400D01*
X452193Y367487D02*
X456813D01*
X439201Y381299D02*
X439500Y381000D01*
X439201Y381299D02*
Y386384D01*
X456600Y293800D02*
X456700Y293700D01*
X452193Y355676D02*
X455424D01*
X456900Y354200D01*
X457300D01*
X452193Y351739D02*
X458961D01*
X460800Y349900D01*
X452193Y359613D02*
X456587D01*
X459300Y356900D01*
X460800Y325004D02*
Y349900D01*
X452193Y363550D02*
X459650D01*
X464200Y359000D01*
Y323596D02*
Y359000D01*
X400637Y359613D02*
X408492D01*
X399700Y360550D02*
X400637Y359613D01*
X452096Y320900D02*
X454396Y318600D01*
X449196Y313400D02*
X454396Y318600D01*
X460800Y325004D01*
X402000Y310500D02*
X403332D01*
X404200Y311368D01*
X397268Y318300D02*
X404200Y311368D01*
X405868Y309700D01*
X383400Y315800D02*
Y317900D01*
Y315800D02*
X388500D01*
X382300D02*
X383400D01*
X374000Y296100D02*
X459500D01*
X433295Y339105D02*
Y342684D01*
Y339105D02*
X437642Y334757D01*
Y333790D02*
Y334757D01*
X379216Y334700D02*
X390300D01*
X403400Y321600D01*
X406643D01*
X416200Y313400D02*
X449196D01*
X408400Y315900D02*
X410900Y313400D01*
X418850Y316050D02*
X420050D01*
X416200Y313400D02*
X418850Y316050D01*
X410900Y313400D02*
X416200D01*
X340543Y301000D02*
Y305043D01*
X342600Y307100D01*
D24*
X341400Y367567D02*
Y370934D01*
X335756Y367711D02*
Y373244D01*
X324900Y367488D02*
Y373244D01*
X313800Y367667D02*
Y373244D01*
X352300Y367533D02*
Y370934D01*
X330500Y367533D02*
Y370934D01*
X319434Y367533D02*
Y370934D01*
X428500Y348900D02*
X441916D01*
X424400D02*
X428500D01*
X413698Y393246D02*
X418600D01*
X408398Y393344D02*
X413600D01*
X402600Y398954D02*
X408300D01*
X409876Y421840D02*
X419324D01*
X415742Y333734D02*
X420243D01*
X423842D01*
X420243Y334034D02*
Y337543D01*
X309844Y373244D02*
X313800D01*
X372400Y412700D02*
X374594D01*
X378400Y416505D01*
X368686D02*
X378400D01*
X281200Y412500D02*
X283640D01*
X287300Y416160D01*
X277586D02*
X287300D01*
X405740Y414360D02*
X409876D01*
X413698Y398954D02*
X419546D01*
X421672Y396828D01*
D25*
X346800Y367643D02*
Y373244D01*
X373600Y350350D02*
X402500D01*
X373400Y350100D02*
X373600Y350300D01*
X373276Y350100D02*
X373400D01*
X345158Y352633D02*
X362133D01*
X335934Y361824D02*
X345158Y352600D01*
X313934Y361824D02*
X333858Y341900D01*
X368853D01*
X368853D02*
X374753Y347800D01*
X374753D02*
X404100D01*
X319434Y360466D02*
Y361824D01*
X324800Y359500D02*
Y361746D01*
X330300D02*
X342146Y349900D01*
Y349950D02*
X364300D01*
X400000Y362800D02*
X400200Y362600D01*
X341434Y361824D02*
X347958Y355300D01*
Y355317D02*
X359200D01*
X346831Y361801D02*
X350632Y358000D01*
Y358000D02*
X357200D01*
X352434Y361824D02*
X355924D01*
X359750Y365650D01*
Y365650D02*
X400800D01*
X387100Y313200D02*
X393900Y306400D01*
X359500Y313200D02*
X387100D01*
X356291Y309991D02*
X359500Y313200D01*
X356291Y304937D02*
Y309991D01*
X446000Y380700D02*
X450864D01*
X338286Y416706D02*
X348000D01*
X324800Y359500D02*
X337033Y347267D01*
X366367D01*
X319367Y360466D02*
X335250Y344583D01*
X367776Y344600D02*
X373276Y350100D01*
X367700Y344600D02*
X367776D01*
X367683Y344583D02*
X367700Y344600D01*
X335250Y344583D02*
X367683D01*
X362133Y352600D02*
X367533Y358000D01*
X399700D01*
X369850Y355450D02*
X401124D01*
X364300Y349900D02*
X369850Y355450D01*
X366367Y347267D02*
X371900Y352800D01*
Y352900D02*
X401600D01*
X364816Y360550D02*
X399700D01*
X359567Y355300D02*
X364816Y360550D01*
X362300Y363100D02*
X400000D01*
X357200Y358000D02*
X362300Y363100D01*
X401800Y302700D02*
X409900D01*
X417800D02*
X425700D01*
X241100Y325400D02*
X264600Y301900D01*
X241700Y319400D02*
X264400Y296700D01*
X348300Y303400D02*
X349954D01*
X352354Y301000D01*
X241500Y314700D02*
X264000Y292200D01*
X269800Y285900D02*
Y315800D01*
X371900Y301139D02*
Y308000D01*
X241500Y309800D02*
X263900Y287400D01*
X263850Y287350D02*
X263900Y287300D01*
D26*
X296100Y413060D02*
Y417809D01*
X291900Y408860D02*
X296100Y413060D01*
X326400Y413520D02*
Y418268D01*
X322200Y409320D02*
X326400Y413520D01*
X356700Y418254D02*
X356800Y418354D01*
X356700Y413506D02*
Y418254D01*
X352600Y409406D02*
X356700Y413506D01*
X387200Y413406D02*
Y418154D01*
X383000Y409205D02*
X387200Y413406D01*
X378400Y423986D02*
X384231Y418154D01*
X387200D01*
X348000Y424186D02*
X353832Y418354D01*
X356800D01*
X317600Y424100D02*
X323431Y418268D01*
X326400D01*
X287300Y423640D02*
X293131Y417809D01*
X296100D01*
X261200Y409406D02*
X265400Y413605D01*
Y418354D01*
X256600Y424186D02*
X262432Y418354D01*
X265400D01*
X328732Y323132D02*
Y328800D01*
X387787D02*
X391100D01*
X360200Y323200D02*
X360228Y323228D01*
Y328800D01*
X390000Y301000D02*
X391100Y299900D01*
X387787Y301000D02*
X390000D01*
X360200Y308700D02*
X360228Y308672D01*
Y301000D02*
Y308672D01*
X433300Y391300D02*
Y393500D01*
X434223Y394423D01*
Y395478D01*
X438763D01*
X419343Y328222D02*
X446798D01*
X429143Y333790D02*
X433442D01*
X307886Y416620D02*
X317600D01*
X246886Y416706D02*
X256600D01*
X313800Y378756D02*
Y379200D01*
X311100Y381900D02*
X313800Y379200D01*
X324900Y378756D02*
Y382200D01*
X335756Y378756D02*
Y382200D01*
X346800Y378756D02*
Y382200D01*
X408300Y398954D02*
Y401700D01*
X419324Y412724D01*
Y414360D01*
Y421840D02*
Y435128D01*
X419300Y435152D02*
X419324Y435128D01*
X462700Y391300D02*
Y394644D01*
Y400156D02*
Y403300D01*
X455300Y335100D02*
Y336746D01*
Y335100D02*
X456800Y333600D01*
X368400Y422500D02*
Y426800D01*
X373000Y422600D02*
Y426900D01*
X342600Y422800D02*
Y427100D01*
X338000Y422800D02*
Y427100D01*
X312200Y422700D02*
Y427000D01*
X307600Y422600D02*
Y426900D01*
X281800Y422200D02*
Y426500D01*
X277300Y422200D02*
Y426500D01*
X251200Y422800D02*
Y427100D01*
X246600Y422800D02*
Y427100D01*
X409300Y435152D02*
Y442600D01*
X419324Y418100D02*
X423200D01*
X434223Y400990D02*
X438763D01*
X430590D02*
X434223D01*
X428600Y399000D02*
X430590Y400990D01*
X428600Y393500D02*
Y399000D01*
X411222Y328222D02*
X414843D01*
X410900Y328544D02*
X411222Y328222D01*
X415742D02*
X419343D01*
D27*
X462500Y324300D02*
Y358100D01*
X449850Y311650D02*
X462500Y324300D01*
X408150Y311650D02*
X449850D01*
X460300Y284100D02*
Y284500D01*
X383850Y325150D02*
X386862Y322137D01*
X383850Y325150D02*
Y328650D01*
X445106Y386384D02*
Y390906D01*
X441169Y389411D02*
X442395Y390637D01*
X441169Y386384D02*
Y389411D01*
X442395Y390637D02*
X444837D01*
X419516Y381016D02*
Y386384D01*
X425421Y381121D02*
Y386384D01*
X435264Y381164D02*
Y386384D01*
X431327Y381027D02*
Y386384D01*
X433300Y386389D02*
Y391300D01*
X437232Y389432D02*
X439200Y391400D01*
X437232Y386384D02*
Y389432D01*
X427390Y386384D02*
Y392290D01*
X428600Y393500D01*
X429358Y392742D01*
Y386384D02*
Y392742D01*
X445106Y390906D02*
X448200Y394000D01*
X446100Y365500D02*
X446118Y365518D01*
X452193D01*
X446700Y351200D02*
X448130Y349770D01*
X452193D01*
X444395Y338400D02*
X450900D01*
X443306Y339488D02*
X444395Y338400D01*
X460739Y375361D02*
X461300Y374800D01*
X452193Y375361D02*
X460739D01*
X429358Y334306D02*
Y342684D01*
X443306Y339488D02*
Y342515D01*
X443138Y342684D02*
X443306Y342515D01*
X452193Y361581D02*
X459019D01*
X462500Y358100D01*
X427390Y342684D02*
Y345910D01*
X421500Y342699D02*
Y346000D01*
X421484Y342684D02*
X421500Y342699D01*
X428500Y348900D02*
X431327Y346073D01*
Y342684D02*
Y346073D01*
X445106Y342684D02*
Y345710D01*
X441916Y348900D02*
X445106Y345710D01*
X421500Y346000D02*
X424400Y348900D01*
X427390Y345910D01*
X421484Y386384D02*
Y390516D01*
X402600Y393246D02*
X403410D01*
X402600Y398484D02*
Y398954D01*
X421484Y390516D02*
X421672Y390703D01*
X417547Y386384D02*
Y393000D01*
X450864Y380700D02*
X452193Y379371D01*
X443138Y386384D02*
X443314Y386208D01*
Y383181D02*
Y386208D01*
Y383181D02*
X445795Y380700D01*
X446000D01*
X419516Y338269D02*
Y342684D01*
X415579D02*
X417547D01*
X419516D01*
X420400Y337700D02*
X421131Y338431D01*
X422227D01*
X423453Y339657D01*
Y342684D01*
X425421D01*
X400056Y357644D02*
X408492D01*
X403694Y316894D02*
X405400Y318600D01*
X397662Y322137D02*
X408150Y311650D01*
X421672Y390703D02*
Y396828D01*
X393700Y322137D02*
Y324700D01*
X386862Y322137D02*
X393700D01*
X397662D01*
D28*
X455254Y342500D02*
X455300Y342454D01*
X451000Y342500D02*
X455254D01*
X446800Y355300D02*
X448393Y353707D01*
X452193D01*
D29*
X403410Y393246D02*
X406365Y396200D01*
X410944D01*
X413600Y398856D01*
D30*
X405850Y338100D02*
D03*
D31*
X307150Y314850D02*
D03*
D32*
X408550Y373450D02*
D03*
D33*
X421000Y379400D02*
D03*
D34*
X425800Y327250D02*
D03*
D35*
X431150Y333500D02*
D03*
D36*
X415100Y339100D02*
D03*
D37*
X421300Y334200D02*
D03*
D38*
X431750Y351250D02*
D03*
D39*
X433900Y401050D02*
D03*
D40*
X428300Y396850D02*
D03*
D41*
X424400Y342600D02*
D03*
D42*
X428279Y387000D02*
D03*
D43*
X410500Y454350D02*
D03*
D44*
X291900Y408860D02*
D03*
Y397049D02*
D03*
X383000Y409205D02*
D03*
Y397394D02*
D03*
X352600Y409406D02*
D03*
Y397594D02*
D03*
X322200Y409320D02*
D03*
Y397509D02*
D03*
X261200Y409406D02*
D03*
Y397594D02*
D03*
D45*
X282087Y453386D02*
D03*
X292874D02*
D03*
X303661D02*
D03*
X314449D02*
D03*
X357598D02*
D03*
X346811D02*
D03*
X336024D02*
D03*
X325236D02*
D03*
X287480Y464567D02*
D03*
X298268D02*
D03*
X309055D02*
D03*
X352205D02*
D03*
X341417D02*
D03*
X330630D02*
D03*
X319843D02*
D03*
D46*
X385689Y458976D02*
D03*
X253957D02*
D03*
D47*
X405800Y340200D02*
D03*
Y344300D02*
D03*
X412000Y341900D02*
D03*
X352300Y370934D02*
D03*
X341400D02*
D03*
X330500D02*
D03*
X319434D02*
D03*
X307300Y316000D02*
D03*
X305200Y322900D02*
D03*
X309200D02*
D03*
X305200Y307600D02*
D03*
X309200D02*
D03*
X328700Y307700D02*
D03*
X329000Y322100D02*
D03*
X391100Y328800D02*
D03*
X360200Y323200D02*
D03*
X391100Y299900D02*
D03*
X360228Y308672D02*
D03*
X460300Y284100D02*
D03*
X451000Y342500D02*
D03*
X446800Y355300D02*
D03*
X441200Y348900D02*
D03*
X439200Y391400D02*
D03*
X428600Y393500D02*
D03*
X448200Y394000D02*
D03*
X446118Y365518D02*
D03*
X446700Y351200D02*
D03*
X461300Y374800D02*
D03*
X464300Y371800D02*
D03*
X463600Y367900D02*
D03*
X463900Y287200D02*
D03*
X464600Y293500D02*
D03*
X457900Y366400D02*
D03*
X460250Y291250D02*
D03*
X439500Y381000D02*
D03*
X453600Y299500D02*
D03*
X457300Y354200D02*
D03*
X456700Y293700D02*
D03*
X459300Y356900D02*
D03*
X460000Y296600D02*
D03*
X450900Y338400D02*
D03*
X428900Y348900D02*
D03*
X400700Y448700D02*
D03*
X419500Y381000D02*
D03*
X431300D02*
D03*
X435200Y381100D02*
D03*
X425400D02*
D03*
X446000Y380700D02*
D03*
X420400Y337700D02*
D03*
X311100Y381900D02*
D03*
X324900Y382200D02*
D03*
X346800D02*
D03*
X335756D02*
D03*
X309844Y373244D02*
D03*
X372400Y412700D02*
D03*
X281200Y412500D02*
D03*
X405740Y414360D02*
D03*
X462700Y391300D02*
D03*
Y403300D02*
D03*
X456800Y333600D02*
D03*
X467900Y391100D02*
D03*
Y403100D02*
D03*
X373000Y426900D02*
D03*
X368400Y426800D02*
D03*
X342600Y427100D02*
D03*
X338000D02*
D03*
X312200Y427000D02*
D03*
X307600Y426900D02*
D03*
X281800Y426500D02*
D03*
X277300D02*
D03*
X251200Y427100D02*
D03*
X246600D02*
D03*
X409300Y442600D02*
D03*
X423200Y418100D02*
D03*
X402000Y310500D02*
D03*
X401700Y302600D02*
D03*
X417800Y302700D02*
D03*
X383400Y317900D02*
D03*
X413400Y380900D02*
D03*
X410900Y328544D02*
D03*
X414900Y337600D02*
D03*
X338500Y315100D02*
D03*
X393700Y324700D02*
D03*
X420050Y316050D02*
D03*
X269800Y315800D02*
D03*
X342600Y307100D02*
D03*
X241500Y325800D02*
D03*
X264600Y301900D02*
D03*
X356400Y308900D02*
D03*
X241500Y319400D02*
D03*
Y314700D02*
D03*
Y309800D02*
D03*
X264400Y296700D02*
D03*
X348300Y303400D02*
D03*
X264000Y292200D02*
D03*
X269800Y285900D02*
D03*
X371900Y308000D02*
D03*
X263900Y287400D02*
D03*
X377500Y306100D02*
D03*
X241700Y335700D02*
D03*
X241600Y331200D02*
D03*
X241500Y295300D02*
D03*
Y290900D02*
D03*
M02*
