%FSLAX25Y25*%
%MOIN*%
G70*
G01*
G75*
G04 Layer_Color=16711935*
%ADD10R,0.03150X0.03150*%
%ADD11O,0.00984X0.05906*%
%ADD12O,0.05906X0.00984*%
%ADD13R,0.03543X0.02559*%
%ADD14R,0.01575X0.01378*%
%ADD15R,0.09449X0.06693*%
%ADD16R,0.04528X0.02756*%
%ADD17R,0.03150X0.02362*%
%ADD18R,0.03543X0.02362*%
%ADD19R,0.05000X0.10000*%
%ADD20C,0.04000*%
%ADD21R,0.02400X0.07400*%
%ADD22C,0.03000*%
%ADD23C,0.00800*%
%ADD24C,0.02000*%
%ADD25C,0.01500*%
%ADD26C,0.02500*%
%ADD27C,0.01000*%
%ADD28C,0.00700*%
%ADD29C,0.01200*%
%ADD30R,0.05700X0.15400*%
%ADD31R,0.07500X0.37100*%
%ADD32R,0.06900X0.17500*%
%ADD33R,0.31800X0.05600*%
%ADD34R,0.45600X0.06300*%
%ADD35R,0.08100X0.04200*%
%ADD36R,0.09200X0.14200*%
%ADD37R,0.09400X0.04200*%
%ADD38R,0.23100X0.07700*%
%ADD39R,0.14800X0.05700*%
%ADD40R,0.03600X0.14100*%
%ADD41R,0.02200X0.05400*%
%ADD42R,0.02158X0.06200*%
%ADD43R,0.22800X0.13900*%
%ADD44C,0.05906*%
%ADD45C,0.05512*%
%ADD46C,0.14173*%
%ADD47C,0.02500*%
%ADD48R,0.09449X0.02992*%
%ADD49R,0.38300X0.04600*%
%ADD50R,0.25500X0.07100*%
%ADD51R,0.15800X0.14200*%
%ADD52R,0.21700X0.05400*%
%ADD53R,0.25000X0.07200*%
%ADD54R,0.23800X0.05800*%
%ADD55R,0.25700X0.08500*%
%ADD56R,0.24900X0.08000*%
%ADD57C,0.02362*%
%ADD58C,0.00984*%
%ADD59C,0.00600*%
%ADD60C,0.00787*%
%ADD61R,0.03950X0.03950*%
%ADD62O,0.01784X0.06706*%
%ADD63O,0.06706X0.01784*%
%ADD64R,0.04343X0.03359*%
%ADD65R,0.02375X0.02178*%
%ADD66R,0.10249X0.07493*%
%ADD67R,0.05328X0.03556*%
%ADD68R,0.03950X0.03162*%
%ADD69R,0.04343X0.03162*%
%ADD70R,0.05800X0.10800*%
%ADD71C,0.04800*%
%ADD72R,0.02800X0.07800*%
%ADD73C,0.06706*%
%ADD74C,0.06312*%
%ADD75C,0.14973*%
%ADD76C,0.00800*%
%ADD77C,0.03300*%
%ADD78R,0.10249X0.03792*%
D61*
X335700Y371944D02*
D03*
Y377456D02*
D03*
X452400Y384844D02*
D03*
Y390356D02*
D03*
X448100Y384744D02*
D03*
Y390256D02*
D03*
X431300Y384744D02*
D03*
Y390256D02*
D03*
X425300Y384644D02*
D03*
Y390156D02*
D03*
X435700Y384744D02*
D03*
Y390256D02*
D03*
X421100Y384644D02*
D03*
Y390156D02*
D03*
X456600Y384844D02*
D03*
Y390356D02*
D03*
X416100Y333756D02*
D03*
Y328244D02*
D03*
X420300Y333756D02*
D03*
Y328244D02*
D03*
X424500Y333756D02*
D03*
Y328244D02*
D03*
D64*
X443400Y390354D02*
D03*
Y384646D02*
D03*
D68*
X467900Y394644D02*
D03*
Y400156D02*
D03*
D73*
X291900Y408860D02*
D03*
Y397049D02*
D03*
X383000Y409205D02*
D03*
Y397394D02*
D03*
X352600Y409406D02*
D03*
Y397594D02*
D03*
X322200Y409320D02*
D03*
Y397509D02*
D03*
X261200Y409406D02*
D03*
Y397594D02*
D03*
D74*
X282087Y453386D02*
D03*
X292874D02*
D03*
X303661D02*
D03*
X314449D02*
D03*
X357598D02*
D03*
X346811D02*
D03*
X336024D02*
D03*
X325236D02*
D03*
X287480Y464567D02*
D03*
X298268D02*
D03*
X309055D02*
D03*
X352205D02*
D03*
X341417D02*
D03*
X330630D02*
D03*
X319843D02*
D03*
D75*
X385689Y458976D02*
D03*
X253957D02*
D03*
D76*
X396142Y314900D02*
D03*
X265258Y308650D02*
D03*
D77*
X405800Y340200D02*
D03*
Y344300D02*
D03*
X412000Y341900D02*
D03*
X352300Y370934D02*
D03*
X341400D02*
D03*
X330500D02*
D03*
X319434D02*
D03*
X307300Y316000D02*
D03*
X305200Y322900D02*
D03*
X309200D02*
D03*
X305200Y307600D02*
D03*
X309200D02*
D03*
X328700Y307700D02*
D03*
X329000Y322100D02*
D03*
X391100Y328800D02*
D03*
X360200Y323200D02*
D03*
X391100Y299900D02*
D03*
X360228Y308672D02*
D03*
X460300Y284100D02*
D03*
X451000Y342500D02*
D03*
X446800Y355300D02*
D03*
X441200Y348900D02*
D03*
X439200Y391400D02*
D03*
X428600Y393500D02*
D03*
X448200Y394000D02*
D03*
X446118Y365518D02*
D03*
X446700Y351200D02*
D03*
X461300Y374800D02*
D03*
X464300Y371800D02*
D03*
X463600Y367900D02*
D03*
X463900Y287200D02*
D03*
X464600Y293500D02*
D03*
X457900Y366400D02*
D03*
X460250Y291250D02*
D03*
X439500Y381000D02*
D03*
X453600Y299500D02*
D03*
X457300Y354200D02*
D03*
X456700Y293700D02*
D03*
X459300Y356900D02*
D03*
X460000Y296600D02*
D03*
X450900Y338400D02*
D03*
X428900Y348900D02*
D03*
X400700Y448700D02*
D03*
X419500Y381000D02*
D03*
X431300D02*
D03*
X435200Y381100D02*
D03*
X425400D02*
D03*
X446000Y380700D02*
D03*
X420400Y337700D02*
D03*
X311100Y381900D02*
D03*
X324900Y382200D02*
D03*
X346800D02*
D03*
X335756D02*
D03*
X309844Y373244D02*
D03*
X372400Y412700D02*
D03*
X281200Y412500D02*
D03*
X405740Y414360D02*
D03*
X462700Y391300D02*
D03*
Y403300D02*
D03*
X456800Y333600D02*
D03*
X467900Y391100D02*
D03*
Y403100D02*
D03*
X373000Y426900D02*
D03*
X368400Y426800D02*
D03*
X342600Y427100D02*
D03*
X338000D02*
D03*
X312200Y427000D02*
D03*
X307600Y426900D02*
D03*
X281800Y426500D02*
D03*
X277300D02*
D03*
X251200Y427100D02*
D03*
X246600D02*
D03*
X409300Y442600D02*
D03*
X423200Y418100D02*
D03*
X402000Y310500D02*
D03*
X401700Y302600D02*
D03*
X417800Y302700D02*
D03*
X383400Y317900D02*
D03*
X413400Y380900D02*
D03*
X410900Y328544D02*
D03*
X414900Y337600D02*
D03*
X338500Y315100D02*
D03*
X393700Y324700D02*
D03*
X420050Y316050D02*
D03*
X269800Y315800D02*
D03*
X342600Y307100D02*
D03*
X241500Y325800D02*
D03*
X264600Y301900D02*
D03*
X356400Y308900D02*
D03*
X241500Y319400D02*
D03*
Y314700D02*
D03*
Y309800D02*
D03*
X264400Y296700D02*
D03*
X348300Y303400D02*
D03*
X264000Y292200D02*
D03*
X269800Y285900D02*
D03*
X371900Y308000D02*
D03*
X263900Y287400D02*
D03*
X377500Y306100D02*
D03*
X241700Y335700D02*
D03*
X241600Y331200D02*
D03*
X241500Y295300D02*
D03*
Y290900D02*
D03*
D78*
X249354Y335800D02*
D03*
Y330800D02*
D03*
Y325800D02*
D03*
Y320800D02*
D03*
Y315800D02*
D03*
Y310800D02*
D03*
Y305800D02*
D03*
Y300800D02*
D03*
Y295800D02*
D03*
Y290800D02*
D03*
X234000Y335800D02*
D03*
Y330800D02*
D03*
Y325800D02*
D03*
Y320800D02*
D03*
Y315800D02*
D03*
Y310800D02*
D03*
Y305800D02*
D03*
Y300800D02*
D03*
Y295800D02*
D03*
Y290800D02*
D03*
M02*
