%FSLAX25Y25*%
%MOIN*%
G70*
G01*
G75*
G04 Layer_Color=32896*
%ADD10R,0.03150X0.03150*%
%ADD11O,0.00984X0.05906*%
%ADD12O,0.05906X0.00984*%
%ADD13R,0.03543X0.02559*%
%ADD14R,0.01575X0.01378*%
%ADD15R,0.09449X0.06693*%
%ADD16R,0.04528X0.02756*%
%ADD17R,0.03150X0.02362*%
%ADD18R,0.03543X0.02362*%
%ADD19R,0.05000X0.10000*%
%ADD20C,0.04000*%
%ADD21R,0.02400X0.07400*%
%ADD22C,0.03000*%
%ADD23C,0.00800*%
%ADD24C,0.02000*%
%ADD25C,0.01500*%
%ADD26C,0.02500*%
%ADD27C,0.01000*%
%ADD28C,0.00700*%
%ADD29C,0.01200*%
%ADD30R,0.05700X0.15400*%
%ADD31R,0.07500X0.37100*%
%ADD32R,0.06900X0.17500*%
%ADD33R,0.31800X0.05600*%
%ADD34R,0.45600X0.06300*%
%ADD35R,0.08100X0.04200*%
%ADD36R,0.09200X0.14200*%
%ADD37R,0.09400X0.04200*%
%ADD38R,0.23100X0.07700*%
%ADD39R,0.14800X0.05700*%
%ADD40R,0.03600X0.14100*%
%ADD41R,0.02200X0.05400*%
%ADD42R,0.02158X0.06200*%
%ADD43R,0.22800X0.13900*%
%ADD44C,0.05906*%
%ADD45C,0.05512*%
%ADD46C,0.14173*%
%ADD47C,0.02500*%
%ADD48R,0.09449X0.02992*%
%ADD49R,0.38300X0.04600*%
%ADD50R,0.25500X0.07100*%
%ADD51R,0.15800X0.14200*%
%ADD52R,0.21700X0.05400*%
%ADD53R,0.25000X0.07200*%
%ADD54R,0.23800X0.05800*%
%ADD55R,0.25700X0.08500*%
%ADD56R,0.24900X0.08000*%
%ADD57C,0.02362*%
%ADD58C,0.00984*%
%ADD59C,0.00600*%
%ADD60C,0.00787*%
%ADD61R,0.03950X0.03950*%
%ADD62O,0.01784X0.06706*%
%ADD63O,0.06706X0.01784*%
%ADD64R,0.04343X0.03359*%
%ADD65R,0.02375X0.02178*%
%ADD66R,0.10249X0.07493*%
%ADD67R,0.05328X0.03556*%
%ADD68R,0.03950X0.03162*%
%ADD69R,0.04343X0.03162*%
%ADD70R,0.05800X0.10800*%
%ADD71C,0.04800*%
%ADD72R,0.02800X0.07800*%
%ADD73C,0.06706*%
%ADD74C,0.06312*%
%ADD75C,0.14973*%
%ADD76C,0.00800*%
%ADD77C,0.03300*%
%ADD78R,0.10249X0.03792*%
%ADD79R,0.01500X0.01500*%
D22*
X288841Y377600D02*
X303841Y353600D01*
X288841Y377600D02*
X293528D01*
Y386600D01*
X272528D02*
X293528D01*
X272528Y377600D02*
Y386600D01*
Y377600D02*
X276862D01*
X269862Y367100D02*
X276862Y377600D01*
X262862D02*
X269862Y367100D01*
X262862Y377600D02*
X266528D01*
Y386600D01*
X245528D02*
X266528D01*
X245528Y377600D02*
Y386600D01*
Y377600D02*
X249591D01*
X234591Y353600D02*
X249591Y377600D01*
X230528Y353600D02*
X234591D01*
X230528Y344600D02*
Y353600D01*
Y344600D02*
X251528D01*
Y353600D01*
X247362D02*
X251528D01*
X247362D02*
X256445Y367225D01*
X261528Y359600D01*
X257528Y350600D02*
Y359600D01*
X261528D01*
X257528Y350600D02*
X281528D01*
X281528Y359600D02*
X281528Y350600D01*
X277695Y359600D02*
X282695Y367100D01*
X277695Y359600D02*
X281528D01*
X282695Y367100D02*
X291695Y353600D01*
X287528D02*
X291695D01*
X287528Y344600D02*
Y353600D01*
Y344600D02*
X308528D01*
Y353600D01*
X303841Y353600D02*
X308528Y353600D01*
D27*
X230705Y467232D02*
X233206D01*
X230705D02*
Y467732D01*
X233206D01*
X232206Y470231D02*
X232705Y469732D01*
Y469232D02*
Y469732D01*
Y468231D02*
Y469232D01*
Y468231D02*
X233705Y467232D01*
X235705D01*
X236206Y467732D02*
X239705D01*
X236206Y467232D02*
Y467732D01*
Y467232D02*
X239206D01*
X243205Y477232D02*
X244205D01*
X243706Y477732D02*
Y478231D01*
Y477732D02*
X244205Y477232D01*
Y476231D02*
Y477232D01*
Y476231D02*
X245706D01*
X245205Y471732D02*
X245706D01*
X246205Y471232D01*
X247205D01*
X245706D02*
X247205D01*
X245706D02*
Y472231D01*
X247205D01*
X249205Y470731D02*
X250706D01*
X248706Y470231D02*
X249205Y470731D01*
X248706Y470231D02*
Y470731D01*
Y471232D01*
X249205Y470731D01*
X249706Y471232D01*
Y471732D01*
X248205D02*
X249706D01*
X247706Y474731D02*
X249706Y476731D01*
Y478231D01*
X246706Y481231D02*
X249706Y478231D01*
X246706Y481231D02*
Y482232D01*
X247706Y483231D01*
Y483732D01*
X248706Y484731D01*
Y485231D01*
X249706Y486232D01*
Y486731D01*
X250205Y487231D01*
Y488232D01*
X251205Y489231D01*
Y489732D01*
X253205Y491732D01*
X254205D01*
X256206Y489732D01*
Y489231D02*
Y489732D01*
X256705Y486232D02*
Y488731D01*
X253205Y482731D02*
X256705Y486232D01*
X252706Y482731D02*
X253205D01*
X252205Y481732D02*
Y482232D01*
X251706Y479732D02*
Y481231D01*
X252205Y478731D02*
Y479232D01*
X252706Y476231D02*
Y478231D01*
X250706Y474231D02*
X252706Y476231D01*
X250205Y471732D02*
Y473732D01*
X250706Y470731D02*
Y471232D01*
X249205Y470231D02*
X250205D01*
X248205Y469732D02*
X249205D01*
X230705Y489732D02*
X231206Y490232D01*
X229706Y489732D02*
X230705D01*
X234705Y481732D02*
X235206D01*
X236206Y479732D02*
X236705Y480232D01*
X235206Y479732D02*
X236206D01*
X233705D02*
X234206D01*
X234705Y480232D02*
X235206D01*
X229706Y478731D02*
X230705D01*
X229706Y479232D02*
X231206D01*
X229706Y479732D02*
X231206D01*
X230205Y480232D02*
X230705D01*
X233705Y487231D02*
X239705D01*
X233206Y486731D02*
X233705Y487231D01*
X232206Y486731D02*
X233206D01*
X231206Y485732D02*
X232206Y486731D01*
X231206Y484731D02*
Y485732D01*
X230705Y484232D02*
X231206Y484731D01*
X230705Y483231D02*
Y484232D01*
X230205Y482731D02*
X230705Y483231D01*
X230205Y480731D02*
Y482731D01*
X229706Y480232D02*
X230205Y480731D01*
X229706Y478231D02*
Y480232D01*
Y478231D02*
X230705Y477232D01*
X231206D01*
X232206Y476231D01*
X233206D01*
X233705Y475732D01*
X234705D01*
X231206Y473732D02*
Y476231D01*
X231705Y471732D02*
Y473232D01*
X232206Y470231D02*
Y471232D01*
X228706Y474731D02*
X230705D01*
X227706Y474231D02*
X228205D01*
X227706Y472231D02*
Y474231D01*
Y472231D02*
X228205D01*
X228706Y471732D01*
X231206D01*
X239705Y486731D02*
X242206D01*
X243205Y487732D01*
X243706D01*
X244205Y488232D01*
X245205Y488731D02*
X246205D01*
X246706Y489231D01*
X247706D01*
X248205Y489732D02*
X248706Y489231D01*
Y488232D02*
Y489231D01*
X245205Y485231D02*
X246706Y486731D01*
X244706Y485231D02*
X245205D01*
X243706Y484232D02*
X244706Y485231D01*
X243205Y483732D02*
X243706Y484232D01*
X243205Y482232D02*
Y483732D01*
X247706Y489231D02*
X248205Y489732D01*
X244706Y488232D02*
X245205Y488731D01*
X244205Y488232D02*
X244706D01*
X246706Y486731D02*
X247205D01*
X243205Y481231D02*
Y482232D01*
X243706Y480232D02*
Y481231D01*
X244205Y478731D02*
Y479732D01*
X244706Y477732D02*
Y478731D01*
X245205Y476731D02*
Y477732D01*
X245706Y476231D02*
Y476731D01*
Y476231D02*
X246205Y475732D01*
Y475232D02*
Y475732D01*
Y475232D02*
X247205Y474231D01*
Y473732D02*
Y474231D01*
X233206Y488232D02*
X233705Y487732D01*
X233206Y488232D02*
Y488731D01*
X232705Y489231D02*
X233206Y488731D01*
X232705Y489231D02*
Y489732D01*
X231705Y490731D02*
X232705Y489732D01*
X231705Y490731D02*
Y491231D01*
X230705Y492232D02*
X231705Y491231D01*
X230205Y492232D02*
X230705D01*
X229706Y491732D02*
X230205Y492232D01*
X229706Y491231D02*
Y491732D01*
X229205Y490731D02*
X229706Y491231D01*
X229205Y489231D02*
Y490731D01*
Y487231D02*
Y489231D01*
Y487231D02*
X229706Y486731D01*
Y486232D02*
Y486731D01*
Y486232D02*
X230205Y485732D01*
Y485231D02*
Y485732D01*
Y485231D02*
X230705D01*
X231206Y484731D01*
X239206Y480232D02*
X240206D01*
X238705Y479732D02*
X240705D01*
X238705Y479232D02*
X240705D01*
X239206Y478731D02*
X240206D01*
X246205Y487231D02*
Y488232D01*
Y487231D02*
X246706Y487732D01*
X247205D01*
X246706Y488232D02*
X247205Y487732D01*
X246706Y488232D02*
X247205D01*
X247706Y488731D01*
X248205D01*
X247706Y487732D02*
Y488232D01*
X237705Y484232D02*
X238206D01*
X237206Y483732D02*
X238705D01*
X237206Y483231D02*
X238705D01*
X237705Y482731D02*
X238206D01*
X233206Y484232D02*
X233705D01*
X232705Y483732D02*
X234206D01*
Y483231D02*
Y483732D01*
X232705Y483231D02*
X234206D01*
X233206Y482731D02*
X233705D01*
X233206Y480232D02*
X233705Y479732D01*
X247706Y469732D02*
Y473232D01*
X247205Y468231D02*
Y469232D01*
X246205Y467232D02*
X246706Y467732D01*
X239705Y467232D02*
X246205D01*
X240206Y467732D02*
Y470231D01*
X240705Y470731D02*
Y471232D01*
X241206Y471732D02*
X243205D01*
X240206Y475232D02*
X241206D01*
X239206Y475732D02*
X240206D01*
X238705Y474231D02*
Y475232D01*
X238206Y473732D02*
Y474231D01*
X238705Y473232D02*
X239705D01*
X241705Y474231D02*
Y474731D01*
Y474231D02*
Y474731D01*
X238705Y473232D02*
X239705D01*
X238206Y473732D02*
Y474231D01*
X238705D02*
Y475232D01*
X239206Y475732D02*
X240206D01*
Y475232D02*
X241206D01*
Y471732D02*
X243205D01*
X240705Y470731D02*
Y471232D01*
X240206Y467732D02*
Y470231D01*
X239705Y467232D02*
X246205D01*
X246706Y467732D01*
X247205Y468231D02*
Y469232D01*
X247706Y469732D02*
Y473232D01*
X233206Y480232D02*
X233705Y479732D01*
X233206Y482731D02*
X233705D01*
X232705Y483231D02*
X234206D01*
Y483732D01*
X232705D02*
X234206D01*
X233206Y484232D02*
X233705D01*
X237705Y482731D02*
X238206D01*
X237206Y483231D02*
X238705D01*
X237206Y483732D02*
X238705D01*
X237705Y484232D02*
X238206D01*
X247706Y487732D02*
Y488232D01*
Y488731D02*
X248205D01*
X247205Y488232D02*
X247706Y488731D01*
X246706Y488232D02*
X247205D01*
X246706D02*
X247205Y487732D01*
X246706D02*
X247205D01*
X246205Y487231D02*
X246706Y487732D01*
X246205Y487231D02*
Y488232D01*
X239206Y478731D02*
X240206D01*
X238705Y479232D02*
X240705D01*
X238705Y479732D02*
X240705D01*
X239206Y480232D02*
X240206D01*
X230705Y485231D02*
X231206Y484731D01*
X230205Y485231D02*
X230705D01*
X230205D02*
Y485732D01*
X229706Y486232D02*
X230205Y485732D01*
X229706Y486232D02*
Y486731D01*
X229205Y487231D02*
X229706Y486731D01*
X229205Y487231D02*
Y489231D01*
Y490731D01*
X229706Y491231D01*
Y491732D01*
X230205Y492232D01*
X230705D01*
X231705Y491231D01*
Y490731D02*
Y491231D01*
Y490731D02*
X232705Y489732D01*
Y489231D02*
Y489732D01*
Y489231D02*
X233206Y488731D01*
Y488232D02*
Y488731D01*
Y488232D02*
X233705Y487732D01*
X247205Y473732D02*
Y474231D01*
X246205Y475232D02*
X247205Y474231D01*
X246205Y475232D02*
Y475732D01*
X245706Y476231D02*
X246205Y475732D01*
X245706Y476231D02*
Y476731D01*
X245205D02*
Y477732D01*
X244706D02*
Y478731D01*
X244205D02*
Y479732D01*
X243706Y480232D02*
Y481231D01*
X243205D02*
Y482232D01*
X246706Y486731D02*
X247205D01*
X244205Y488232D02*
X244706D01*
X245205Y488731D01*
X247706Y489231D02*
X248205Y489732D01*
X243205Y482232D02*
Y483732D01*
X243706Y484232D01*
X244706Y485231D01*
X245205D01*
X246706Y486731D01*
X247205D02*
X248706Y488232D01*
Y489231D01*
X248205Y489732D02*
X248706Y489231D01*
X246706D02*
X247706D01*
X246205Y488731D02*
X246706Y489231D01*
X245205Y488731D02*
X246205D01*
X243706Y487732D02*
X244205Y488232D01*
X243205Y487732D02*
X243706D01*
X242206Y486731D02*
X243205Y487732D01*
X239705Y486731D02*
X242206D01*
X228706Y471732D02*
X231206D01*
X228205Y472231D02*
X228706Y471732D01*
X227706Y472231D02*
X228205D01*
X227706D02*
Y474231D01*
X228205D01*
X228706Y474731D02*
X230705D01*
X232206Y470231D02*
Y471232D01*
X231705Y471732D02*
Y473232D01*
X231206Y473732D02*
Y476231D01*
X233705Y475732D02*
X234705D01*
X233206Y476231D02*
X233705Y475732D01*
X232206Y476231D02*
X233206D01*
X231206Y477232D02*
X232206Y476231D01*
X230705Y477232D02*
X231206D01*
X229706Y478231D02*
X230705Y477232D01*
X229706Y478231D02*
Y480232D01*
X230205Y480731D01*
Y482731D01*
X230705Y483231D01*
Y484232D01*
X231206Y484731D01*
Y485732D01*
X232206Y486731D01*
X233206D01*
X233705Y487231D01*
X239705D01*
X230205Y480232D02*
X230705D01*
X229706Y479732D02*
X231206D01*
X229706Y479232D02*
X231206D01*
X229706Y478731D02*
X230705D01*
X234705Y480232D02*
X235206D01*
X233705Y479732D02*
X234206D01*
X235206D02*
X236206D01*
X236705Y480232D01*
X234705Y481732D02*
X235206D01*
X229706Y489732D02*
X230705D01*
X231206Y490232D01*
X248205Y469732D02*
X249205D01*
Y470231D02*
X250205D01*
X250706Y470731D02*
Y471232D01*
X250205Y471732D02*
Y473732D01*
X250706Y474231D02*
X252706Y476231D01*
Y478231D01*
X252205Y478731D02*
Y479232D01*
X251706Y479732D02*
Y481231D01*
X252205Y481732D02*
Y482232D01*
X252706Y482731D02*
X253205D01*
X256705Y486232D01*
Y488731D01*
X256206Y489231D02*
Y489732D01*
X254205Y491732D02*
X256206Y489732D01*
X253205Y491732D02*
X254205D01*
X251205Y489732D02*
X253205Y491732D01*
X251205Y489231D02*
Y489732D01*
X250205Y488232D02*
X251205Y489231D01*
X250205Y487231D02*
Y488232D01*
X249706Y486731D02*
X250205Y487231D01*
X249706Y486232D02*
Y486731D01*
X248706Y485231D02*
X249706Y486232D01*
X248706Y484731D02*
Y485231D01*
X247706Y483732D02*
X248706Y484731D01*
X247706Y483231D02*
Y483732D01*
X246706Y482232D02*
X247706Y483231D01*
X246706Y481231D02*
Y482232D01*
Y481231D02*
X249706Y478231D01*
Y476731D02*
Y478231D01*
X247706Y474731D02*
X249706Y476731D01*
X248205Y471732D02*
X249706D01*
Y471232D02*
Y471732D01*
X249205Y470731D02*
X249706Y471232D01*
X248706D02*
X249205Y470731D01*
X248706D02*
Y471232D01*
Y470231D02*
Y470731D01*
Y470231D02*
X249205Y470731D01*
X250706D01*
X245706Y472231D02*
X247205D01*
X245706Y471232D02*
Y472231D01*
Y471232D02*
X247205D01*
X246205D02*
X247205D01*
X245706Y471732D02*
X246205Y471232D01*
X245205Y471732D02*
X245706D01*
X244205Y476231D02*
X245706D01*
X244205D02*
Y477232D01*
X243706Y477732D02*
X244205Y477232D01*
X243706Y477732D02*
Y478231D01*
X243205Y477232D02*
X244205D01*
X236206Y467232D02*
X239206D01*
X236206D02*
Y467732D01*
X239705D01*
X233705Y467232D02*
X235705D01*
X232705Y468231D02*
X233705Y467232D01*
X232705Y468231D02*
Y469232D01*
Y469732D01*
X232206Y470231D02*
X232705Y469732D01*
X230705Y467732D02*
X233206D01*
X230705Y467232D02*
Y467732D01*
Y467232D02*
X233206D01*
X247205Y486731D02*
X248706Y488232D01*
X249501Y346698D02*
X251501D01*
X250501D01*
Y341700D01*
X251501Y340700D01*
X252500D01*
X253500Y341700D01*
X244503Y340700D02*
Y346698D01*
X247502Y343699D01*
X243503D01*
D59*
X334322Y374700D02*
X337078D01*
X451022Y387600D02*
X453778D01*
X465735Y397400D02*
X470065D01*
X446722Y387500D02*
X449478D01*
X441235D02*
X445565D01*
X429922D02*
X432678D01*
X423922Y387400D02*
X426678D01*
X434322Y387500D02*
X437078D01*
X419722Y387400D02*
X422478D01*
X455222Y387600D02*
X457978D01*
X414722Y331000D02*
X417478D01*
X418922D02*
X421678D01*
X423122D02*
X425878D01*
X444900Y381800D02*
X441901D01*
Y380300D01*
X442401Y379801D01*
X443400D01*
X443900Y380300D01*
Y381800D01*
Y380800D02*
X444900Y379801D01*
Y378801D02*
Y377801D01*
Y378301D01*
X441901D01*
X442401Y378801D01*
X461801Y400200D02*
X464800D01*
Y398201D01*
Y395202D02*
Y397201D01*
X462801Y395202D01*
X462301D01*
X461801Y395702D01*
Y396701D01*
X462301Y397201D01*
X426299Y394899D02*
X426799Y394399D01*
Y393400D01*
X426299Y392900D01*
X424300D01*
X423800Y393400D01*
Y394399D01*
X424300Y394899D01*
X423800Y395899D02*
Y396899D01*
Y396399D01*
X426799D01*
X426299Y395899D01*
X423800Y399898D02*
X426799D01*
X425300Y398398D01*
Y400398D01*
X432299Y394999D02*
X432799Y394499D01*
Y393500D01*
X432299Y393000D01*
X430300D01*
X429800Y393500D01*
Y394499D01*
X430300Y394999D01*
X429800Y395999D02*
Y396999D01*
Y396499D01*
X432799D01*
X432299Y395999D01*
Y398498D02*
X432799Y398998D01*
Y399998D01*
X432299Y400498D01*
X431799D01*
X431299Y399998D01*
Y399498D01*
Y399998D01*
X430800Y400498D01*
X430300D01*
X429800Y399998D01*
Y398998D01*
X430300Y398498D01*
X457599Y394843D02*
X458099Y394344D01*
Y393344D01*
X457599Y392844D01*
X455600D01*
X455100Y393344D01*
Y394344D01*
X455600Y394843D01*
Y395843D02*
X455100Y396343D01*
Y397343D01*
X455600Y397843D01*
X457599D01*
X458099Y397343D01*
Y396343D01*
X457599Y395843D01*
X457099D01*
X456600Y396343D01*
Y397843D01*
X449099Y394999D02*
X449599Y394499D01*
Y393500D01*
X449099Y393000D01*
X447100D01*
X446600Y393500D01*
Y394499D01*
X447100Y394999D01*
X449099Y395999D02*
X449599Y396499D01*
Y397498D01*
X449099Y397998D01*
X448599D01*
X448100Y397498D01*
X447600Y397998D01*
X447100D01*
X446600Y397498D01*
Y396499D01*
X447100Y395999D01*
X447600D01*
X448100Y396499D01*
X448599Y395999D01*
X449099D01*
X448100Y396499D02*
Y397498D01*
X338301Y376201D02*
X337801Y376700D01*
Y377700D01*
X338301Y378200D01*
X340300D01*
X340800Y377700D01*
Y376700D01*
X340300Y376201D01*
X340800Y375201D02*
Y374201D01*
Y374701D01*
X337801D01*
X338301Y375201D01*
X340300Y372702D02*
X340800Y372202D01*
Y371202D01*
X340300Y370702D01*
X338301D01*
X337801Y371202D01*
Y372202D01*
X338301Y372702D01*
X338801D01*
X339300Y372202D01*
Y370702D01*
X453299Y394999D02*
X453799Y394499D01*
Y393500D01*
X453299Y393000D01*
X451300D01*
X450800Y393500D01*
Y394499D01*
X451300Y394999D01*
X450800Y397998D02*
Y395999D01*
X452799Y397998D01*
X453299D01*
X453799Y397498D01*
Y396499D01*
X453299Y395999D01*
X450800Y398998D02*
Y399998D01*
Y399498D01*
X453799D01*
X453299Y398998D01*
X421899Y394999D02*
X422399Y394499D01*
Y393500D01*
X421899Y393000D01*
X419900D01*
X419400Y393500D01*
Y394499D01*
X419900Y394999D01*
X419400Y397998D02*
Y395999D01*
X421399Y397998D01*
X421899D01*
X422399Y397498D01*
Y396499D01*
X421899Y395999D01*
X419400Y400997D02*
Y398998D01*
X421399Y400997D01*
X421899D01*
X422399Y400498D01*
Y399498D01*
X421899Y398998D01*
X435101Y397299D02*
X435601Y397799D01*
X436600D01*
X437100Y397299D01*
Y395300D01*
X436600Y394800D01*
X435601D01*
X435101Y395300D01*
X432102Y394800D02*
X434101D01*
X432102Y396799D01*
Y397299D01*
X432601Y397799D01*
X433601D01*
X434101Y397299D01*
X431102D02*
X430602Y397799D01*
X429602D01*
X429103Y397299D01*
Y396799D01*
X429602Y396300D01*
X430102D01*
X429602D01*
X429103Y395800D01*
Y395300D01*
X429602Y394800D01*
X430602D01*
X431102Y395300D01*
X423501Y323501D02*
X423001Y324001D01*
Y325000D01*
X423501Y325500D01*
X425500D01*
X426000Y325000D01*
Y324001D01*
X425500Y323501D01*
X426000Y320502D02*
Y322501D01*
X424001Y320502D01*
X423501D01*
X423001Y321002D01*
Y322001D01*
X423501Y322501D01*
X426000Y318002D02*
X423001D01*
X424501Y319502D01*
Y317503D01*
X419401Y323401D02*
X418901Y323901D01*
Y324900D01*
X419401Y325400D01*
X421400D01*
X421900Y324900D01*
Y323901D01*
X421400Y323401D01*
X421900Y320402D02*
Y322401D01*
X419901Y320402D01*
X419401D01*
X418901Y320901D01*
Y321901D01*
X419401Y322401D01*
X418901Y317403D02*
Y319402D01*
X420400D01*
X419901Y318402D01*
Y317902D01*
X420400Y317403D01*
X421400D01*
X421900Y317902D01*
Y318902D01*
X421400Y319402D01*
X414901Y323301D02*
X414401Y323800D01*
Y324800D01*
X414901Y325300D01*
X416900D01*
X417400Y324800D01*
Y323800D01*
X416900Y323301D01*
X417400Y320302D02*
Y322301D01*
X415401Y320302D01*
X414901D01*
X414401Y320801D01*
Y321801D01*
X414901Y322301D01*
X414401Y317303D02*
X414901Y318302D01*
X415901Y319302D01*
X416900D01*
X417400Y318802D01*
Y317802D01*
X416900Y317303D01*
X416400D01*
X415901Y317802D01*
Y319302D01*
D79*
X230456Y490981D02*
D03*
D03*
M02*
