%FSLAX25Y25*%
%MOIN*%
G70*
G01*
G75*
G04 Layer_Physical_Order=3*
G04 Layer_Color=16440176*
%ADD10R,0.03150X0.03150*%
%ADD11O,0.00984X0.05906*%
%ADD12O,0.05906X0.00984*%
%ADD13R,0.03543X0.02559*%
%ADD14R,0.01575X0.01378*%
%ADD15R,0.09449X0.06693*%
%ADD16R,0.04528X0.02756*%
%ADD17R,0.03150X0.02362*%
%ADD18R,0.03543X0.02362*%
%ADD19R,0.05000X0.10000*%
%ADD20C,0.04000*%
%ADD21R,0.02400X0.07400*%
%ADD22C,0.03000*%
%ADD23C,0.00800*%
%ADD24C,0.02000*%
%ADD25C,0.01500*%
%ADD26C,0.02500*%
%ADD27C,0.01000*%
%ADD28C,0.00700*%
%ADD29C,0.01200*%
%ADD30R,0.05700X0.15400*%
%ADD31R,0.07500X0.37100*%
%ADD32R,0.06900X0.17500*%
%ADD33R,0.31800X0.05600*%
%ADD34R,0.45600X0.06300*%
%ADD35R,0.08100X0.04200*%
%ADD36R,0.09200X0.14200*%
%ADD37R,0.09400X0.04200*%
%ADD38R,0.23100X0.07700*%
%ADD39R,0.14800X0.05700*%
%ADD40R,0.03600X0.14100*%
%ADD41R,0.02200X0.05400*%
%ADD42R,0.02158X0.06200*%
%ADD43R,0.22800X0.13900*%
%ADD44C,0.05906*%
%ADD45C,0.05512*%
%ADD46C,0.14173*%
%ADD47C,0.02500*%
G36*
X470978Y281200D02*
X223022D01*
Y338621D01*
X223100Y338700D01*
X293668D01*
X295003Y337366D01*
X294900Y337263D01*
Y337262D01*
X295003Y337366D01*
X413060D01*
X413157Y336878D01*
X413566Y336266D01*
X414178Y335857D01*
X414900Y335714D01*
X415622Y335857D01*
X416234Y336266D01*
X416643Y336878D01*
X416740Y337366D01*
X418580D01*
X418657Y336978D01*
X419066Y336366D01*
X419678Y335957D01*
X420400Y335814D01*
X421122Y335957D01*
X421734Y336366D01*
X422143Y336978D01*
X422220Y337366D01*
X425349D01*
X440566Y352693D01*
X440056Y353206D01*
X440011Y353315D01*
X440010Y353316D01*
Y353317D01*
X439965Y353427D01*
Y379150D01*
Y379206D01*
X440222Y379257D01*
X440834Y379666D01*
X441243Y380278D01*
X441386Y381000D01*
X441243Y381722D01*
X440834Y382334D01*
X440222Y382743D01*
X439965Y382794D01*
Y389686D01*
X440534Y390066D01*
X440943Y390678D01*
X441086Y391400D01*
X440943Y392122D01*
X440534Y392734D01*
X439965Y393114D01*
Y397666D01*
Y397738D01*
X440010Y397847D01*
Y397848D01*
X440011Y397849D01*
X440056Y397959D01*
X443369Y401296D01*
X443780Y401710D01*
X443997Y401800D01*
X461615D01*
X461978Y401557D01*
X462700Y401414D01*
X463422Y401557D01*
X463785Y401800D01*
X466544D01*
X466566Y401766D01*
X467178Y401357D01*
X467900Y401214D01*
X468622Y401357D01*
X469234Y401766D01*
X469256Y401800D01*
X470978D01*
Y281200D01*
D02*
G37*
G36*
X470600Y432300D02*
Y402449D01*
X470051D01*
X469734Y402836D01*
X469786Y403100D01*
X469643Y403822D01*
X469234Y404434D01*
X468622Y404843D01*
X467900Y404986D01*
X467178Y404843D01*
X466566Y404434D01*
X466157Y403822D01*
X466014Y403100D01*
X466066Y402836D01*
X465749Y402449D01*
X465219D01*
X464931Y402800D01*
X460469D01*
X460181Y402449D01*
X443997D01*
X443877Y402400D01*
X443747Y402399D01*
X443530Y402309D01*
X443438Y402217D01*
X443319Y402167D01*
X442908Y401753D01*
X439595Y398417D01*
X439550Y398306D01*
X439549Y398306D01*
X439548Y398305D01*
X439544Y398295D01*
X439455Y398205D01*
X439410Y398095D01*
X439365Y397987D01*
Y397859D01*
X439361Y397848D01*
Y397847D01*
D01*
X439316Y397738D01*
Y397666D01*
Y393381D01*
X439200Y393286D01*
X438478Y393143D01*
X437866Y392734D01*
X437457Y392122D01*
X437314Y391400D01*
X437457Y390678D01*
X437866Y390066D01*
X438478Y389657D01*
X439200Y389514D01*
X439316Y389419D01*
Y382850D01*
X438778Y382743D01*
X438166Y382334D01*
X437822Y381819D01*
X437332Y381916D01*
X437319Y381978D01*
X436822Y382722D01*
X436078Y383220D01*
X435700Y383295D01*
Y381100D01*
Y378905D01*
X436078Y378980D01*
X436822Y379478D01*
X437307Y380204D01*
X437807D01*
X438166Y379666D01*
X438778Y379257D01*
X439316Y379150D01*
D01*
Y353427D01*
X439361Y353317D01*
Y353316D01*
X439365Y353306D01*
Y353179D01*
X439410Y353069D01*
X439410Y353069D01*
Y353069D01*
X439455Y352960D01*
X439544Y352870D01*
X439549Y352859D01*
X439550Y352858D01*
X439361Y352401D01*
X425078Y338015D01*
X422631D01*
X422519Y338578D01*
X422022Y339322D01*
X421278Y339820D01*
X420900Y339895D01*
Y337700D01*
X419900D01*
Y339895D01*
X419522Y339820D01*
X418778Y339322D01*
X418281Y338578D01*
X418169Y338015D01*
X417111D01*
X417019Y338478D01*
X416522Y339222D01*
X415778Y339720D01*
X415400Y339795D01*
Y337600D01*
X414400D01*
Y339795D01*
X414022Y339720D01*
X413278Y339222D01*
X412781Y338478D01*
X412688Y338015D01*
X406721D01*
X406576Y338494D01*
X407134Y338866D01*
X407543Y339478D01*
X407686Y340200D01*
X407543Y340922D01*
X407134Y341534D01*
X406522Y341943D01*
X406234Y342000D01*
Y342500D01*
X406522Y342557D01*
X407134Y342966D01*
X407543Y343578D01*
X407686Y344300D01*
X407543Y345022D01*
X407134Y345634D01*
X406522Y346043D01*
X405800Y346186D01*
X405078Y346043D01*
X404466Y345634D01*
X404057Y345022D01*
X403914Y344300D01*
X404057Y343578D01*
X404466Y342966D01*
X405078Y342557D01*
X405366Y342500D01*
Y342000D01*
X405078Y341943D01*
X404466Y341534D01*
X404057Y340922D01*
X403914Y340200D01*
X404057Y339478D01*
X404466Y338866D01*
X405024Y338494D01*
X404879Y338015D01*
X295272D01*
X294128Y339159D01*
X293668Y339349D01*
X223400D01*
Y495500D01*
X241568D01*
X241657Y495440D01*
X242087Y495355D01*
X397480D01*
X397909Y495440D01*
X397999Y495500D01*
X470600D01*
Y432300D01*
D02*
G37*
%LPC*%
G36*
X458995Y333100D02*
X457300D01*
Y331405D01*
X457678Y331481D01*
X458422Y331978D01*
X458919Y332722D01*
X458995Y333100D01*
D02*
G37*
G36*
X456300D02*
X454605D01*
X454681Y332722D01*
X455178Y331978D01*
X455922Y331481D01*
X456300Y331405D01*
Y333100D01*
D02*
G37*
G36*
X391100Y330686D02*
X390378Y330543D01*
X389766Y330134D01*
X389357Y329522D01*
X389214Y328800D01*
X389357Y328078D01*
X389766Y327466D01*
X390378Y327057D01*
X391100Y326914D01*
X391822Y327057D01*
X392434Y327466D01*
X392843Y328078D01*
X392986Y328800D01*
X392843Y329522D01*
X392434Y330134D01*
X391822Y330543D01*
X391100Y330686D01*
D02*
G37*
G36*
X241600Y333086D02*
X240878Y332943D01*
X240266Y332534D01*
X239857Y331922D01*
X239714Y331200D01*
X239857Y330478D01*
X240266Y329866D01*
X240878Y329457D01*
X241600Y329314D01*
X242322Y329457D01*
X242934Y329866D01*
X243343Y330478D01*
X243486Y331200D01*
X243343Y331922D01*
X242934Y332534D01*
X242322Y332943D01*
X241600Y333086D01*
D02*
G37*
G36*
X451000Y344386D02*
X450278Y344243D01*
X449666Y343834D01*
X449257Y343222D01*
X449114Y342500D01*
X449257Y341778D01*
X449666Y341166D01*
X450278Y340757D01*
X450278Y340757D01*
X450278D01*
X450317Y340728D01*
X450182Y340143D01*
X450178Y340143D01*
X449566Y339734D01*
X449157Y339122D01*
X449014Y338400D01*
X449157Y337678D01*
X449566Y337066D01*
X450178Y336657D01*
X450900Y336514D01*
X451622Y336657D01*
X452234Y337066D01*
X452643Y337678D01*
X452786Y338400D01*
X452643Y339122D01*
X452234Y339734D01*
X451622Y340143D01*
X451622Y340143D01*
X451622D01*
X451094Y340543D01*
X451094Y340543D01*
X451000Y340614D01*
X451722Y340757D01*
X452334Y341166D01*
X452743Y341778D01*
X452886Y342500D01*
X452743Y343222D01*
X452334Y343834D01*
X451722Y344243D01*
X451000Y344386D01*
D02*
G37*
G36*
X411500Y341400D02*
X409805D01*
X409881Y341022D01*
X410378Y340278D01*
X411122Y339780D01*
X411500Y339705D01*
Y341400D01*
D02*
G37*
G36*
X457300Y335795D02*
Y334100D01*
X458995D01*
X458919Y334478D01*
X458422Y335222D01*
X457678Y335719D01*
X457300Y335795D01*
D02*
G37*
G36*
X241700Y337586D02*
X240978Y337443D01*
X240366Y337034D01*
X239957Y336422D01*
X239814Y335700D01*
X239957Y334978D01*
X240366Y334366D01*
X240978Y333957D01*
X241700Y333814D01*
X242422Y333957D01*
X243034Y334366D01*
X243443Y334978D01*
X243586Y335700D01*
X243443Y336422D01*
X243034Y337034D01*
X242422Y337443D01*
X241700Y337586D01*
D02*
G37*
G36*
X456300Y335795D02*
X455922Y335719D01*
X455178Y335222D01*
X454681Y334478D01*
X454605Y334100D01*
X456300D01*
Y335795D01*
D02*
G37*
G36*
X410900Y330430D02*
X410178Y330287D01*
X409566Y329878D01*
X409157Y329266D01*
X409014Y328544D01*
X409157Y327822D01*
X409566Y327210D01*
X410178Y326801D01*
X410900Y326658D01*
X411622Y326801D01*
X412234Y327210D01*
X412643Y327822D01*
X412786Y328544D01*
X412643Y329266D01*
X412234Y329878D01*
X411622Y330287D01*
X410900Y330430D01*
D02*
G37*
G36*
X311395Y322400D02*
X309700D01*
Y320705D01*
X310078Y320780D01*
X310822Y321278D01*
X311319Y322022D01*
X311395Y322400D01*
D02*
G37*
G36*
X360200Y325086D02*
X359478Y324943D01*
X358866Y324534D01*
X358457Y323922D01*
X358314Y323200D01*
X358457Y322478D01*
X358866Y321866D01*
X359478Y321457D01*
X360200Y321314D01*
X360922Y321457D01*
X361534Y321866D01*
X361943Y322478D01*
X362086Y323200D01*
X361943Y323922D01*
X361534Y324534D01*
X360922Y324943D01*
X360200Y325086D01*
D02*
G37*
G36*
X304700Y322400D02*
X303005D01*
X303081Y322022D01*
X303578Y321278D01*
X304322Y320780D01*
X304700Y320705D01*
Y322400D01*
D02*
G37*
G36*
X241500Y321286D02*
X240778Y321143D01*
X240166Y320734D01*
X239757Y320122D01*
X239614Y319400D01*
X239757Y318678D01*
X240166Y318066D01*
X240778Y317657D01*
X241500Y317514D01*
X242222Y317657D01*
X242834Y318066D01*
X243243Y318678D01*
X243386Y319400D01*
X243243Y320122D01*
X242834Y320734D01*
X242222Y321143D01*
X241500Y321286D01*
D02*
G37*
G36*
X329000Y323986D02*
X328278Y323843D01*
X327666Y323434D01*
X327257Y322822D01*
X327114Y322100D01*
X327257Y321378D01*
X327666Y320766D01*
X328278Y320357D01*
X329000Y320214D01*
X329722Y320357D01*
X330334Y320766D01*
X330743Y321378D01*
X330886Y322100D01*
X330743Y322822D01*
X330334Y323434D01*
X329722Y323843D01*
X329000Y323986D01*
D02*
G37*
G36*
X241500Y327686D02*
X240778Y327543D01*
X240166Y327134D01*
X239757Y326522D01*
X239614Y325800D01*
X239757Y325078D01*
X240166Y324466D01*
X240778Y324057D01*
X241500Y323914D01*
X242222Y324057D01*
X242834Y324466D01*
X243243Y325078D01*
X243386Y325800D01*
X243243Y326522D01*
X242834Y327134D01*
X242222Y327543D01*
X241500Y327686D01*
D02*
G37*
G36*
X308700Y325095D02*
X308322Y325020D01*
X307578Y324522D01*
X307500Y324406D01*
X306900D01*
X306822Y324522D01*
X306078Y325020D01*
X305700Y325095D01*
Y322900D01*
Y320705D01*
X306078Y320780D01*
X306822Y321278D01*
X306900Y321394D01*
X307500D01*
X307578Y321278D01*
X308322Y320780D01*
X308700Y320705D01*
Y322900D01*
Y325095D01*
D02*
G37*
G36*
X309700D02*
Y323400D01*
X311395D01*
X311319Y323778D01*
X310822Y324522D01*
X310078Y325020D01*
X309700Y325095D01*
D02*
G37*
G36*
X393700Y326586D02*
X392978Y326443D01*
X392366Y326034D01*
X391957Y325422D01*
X391814Y324700D01*
X391957Y323978D01*
X392366Y323366D01*
X392978Y322957D01*
X393700Y322814D01*
X394422Y322957D01*
X395034Y323366D01*
X395443Y323978D01*
X395586Y324700D01*
X395443Y325422D01*
X395034Y326034D01*
X394422Y326443D01*
X393700Y326586D01*
D02*
G37*
G36*
X304700Y325095D02*
X304322Y325020D01*
X303578Y324522D01*
X303081Y323778D01*
X303005Y323400D01*
X304700D01*
Y325095D01*
D02*
G37*
G36*
X414195Y341400D02*
X412500D01*
Y339705D01*
X412878Y339780D01*
X413622Y340278D01*
X414119Y341022D01*
X414195Y341400D01*
D02*
G37*
G36*
X445500Y380200D02*
X443805D01*
X443881Y379822D01*
X444378Y379078D01*
X445122Y378580D01*
X445500Y378505D01*
Y380200D01*
D02*
G37*
G36*
X448195D02*
X446500D01*
Y378505D01*
X446878Y378580D01*
X447622Y379078D01*
X448119Y379822D01*
X448195Y380200D01*
D02*
G37*
G36*
X309844Y375130D02*
X309122Y374987D01*
X308510Y374578D01*
X308101Y373966D01*
X307958Y373244D01*
X308101Y372522D01*
X308510Y371910D01*
X309122Y371501D01*
X309844Y371358D01*
X310566Y371501D01*
X311178Y371910D01*
X311587Y372522D01*
X311730Y373244D01*
X311587Y373966D01*
X311178Y374578D01*
X310566Y374987D01*
X309844Y375130D01*
D02*
G37*
G36*
X341400Y372820D02*
X340678Y372676D01*
X340066Y372268D01*
X339657Y371656D01*
X339514Y370934D01*
X339657Y370212D01*
X340066Y369600D01*
X340678Y369191D01*
X341400Y369048D01*
X342122Y369191D01*
X342734Y369600D01*
X343143Y370212D01*
X343286Y370934D01*
X343143Y371656D01*
X342734Y372268D01*
X342122Y372676D01*
X341400Y372820D01*
D02*
G37*
G36*
X352300D02*
X351578Y372676D01*
X350966Y372268D01*
X350557Y371656D01*
X350414Y370934D01*
X350557Y370212D01*
X350966Y369600D01*
X351578Y369191D01*
X352300Y369048D01*
X353022Y369191D01*
X353634Y369600D01*
X354043Y370212D01*
X354186Y370934D01*
X354043Y371656D01*
X353634Y372268D01*
X353022Y372676D01*
X352300Y372820D01*
D02*
G37*
G36*
X421695Y380500D02*
X420000D01*
Y378805D01*
X420378Y378881D01*
X421122Y379378D01*
X421619Y380122D01*
X421695Y380500D01*
D02*
G37*
G36*
X430800D02*
X429105D01*
X429181Y380122D01*
X429678Y379378D01*
X430422Y378881D01*
X430800Y378805D01*
Y380500D01*
D02*
G37*
G36*
X419000D02*
X417305D01*
X417381Y380122D01*
X417878Y379378D01*
X418622Y378881D01*
X419000Y378805D01*
Y380500D01*
D02*
G37*
G36*
X412900Y380400D02*
X411205D01*
X411281Y380022D01*
X411778Y379278D01*
X412522Y378781D01*
X412900Y378705D01*
Y380400D01*
D02*
G37*
G36*
X415595D02*
X413900D01*
Y378705D01*
X414278Y378781D01*
X415022Y379278D01*
X415519Y380022D01*
X415595Y380400D01*
D02*
G37*
G36*
X330500Y372820D02*
X329778Y372676D01*
X329166Y372268D01*
X328757Y371656D01*
X328614Y370934D01*
X328757Y370212D01*
X329166Y369600D01*
X329778Y369191D01*
X330500Y369048D01*
X331222Y369191D01*
X331834Y369600D01*
X332243Y370212D01*
X332386Y370934D01*
X332243Y371656D01*
X331834Y372268D01*
X331222Y372676D01*
X330500Y372820D01*
D02*
G37*
G36*
X441200Y350786D02*
X440478Y350643D01*
X439866Y350234D01*
X439457Y349622D01*
X439314Y348900D01*
X439457Y348178D01*
X439866Y347566D01*
X440478Y347157D01*
X441200Y347014D01*
X441922Y347157D01*
X442534Y347566D01*
X442943Y348178D01*
X443086Y348900D01*
X442943Y349622D01*
X442534Y350234D01*
X441922Y350643D01*
X441200Y350786D01*
D02*
G37*
G36*
X446800Y357186D02*
X446078Y357043D01*
X445466Y356634D01*
X445057Y356022D01*
X444914Y355300D01*
X445057Y354578D01*
X445466Y353966D01*
X446078Y353557D01*
X446078Y353557D01*
X446078D01*
X446117Y353528D01*
X445982Y352943D01*
X445978Y352943D01*
X445366Y352534D01*
X444957Y351922D01*
X444814Y351200D01*
X444957Y350478D01*
X445366Y349866D01*
X445978Y349457D01*
X446700Y349314D01*
X447422Y349457D01*
X448034Y349866D01*
X448443Y350478D01*
X448586Y351200D01*
X448443Y351922D01*
X448034Y352534D01*
X447422Y352943D01*
X447422Y352943D01*
X447422D01*
X446894Y353343D01*
X446894Y353343D01*
X446800Y353414D01*
X447522Y353557D01*
X448134Y353966D01*
X448543Y354578D01*
X448686Y355300D01*
X448543Y356022D01*
X448134Y356634D01*
X447522Y357043D01*
X446800Y357186D01*
D02*
G37*
G36*
X428900Y350786D02*
X428178Y350643D01*
X427566Y350234D01*
X427157Y349622D01*
X427014Y348900D01*
X427157Y348178D01*
X427566Y347566D01*
X428178Y347157D01*
X428900Y347014D01*
X429622Y347157D01*
X430234Y347566D01*
X430643Y348178D01*
X430786Y348900D01*
X430643Y349622D01*
X430234Y350234D01*
X429622Y350643D01*
X428900Y350786D01*
D02*
G37*
G36*
X411500Y344095D02*
X411122Y344020D01*
X410378Y343522D01*
X409881Y342778D01*
X409805Y342400D01*
X411500D01*
Y344095D01*
D02*
G37*
G36*
X412500D02*
Y342400D01*
X414195D01*
X414119Y342778D01*
X413622Y343522D01*
X412878Y344020D01*
X412500Y344095D01*
D02*
G37*
G36*
X461300Y376686D02*
X460578Y376543D01*
X459966Y376134D01*
X459557Y375522D01*
X459414Y374800D01*
X459557Y374078D01*
X459966Y373466D01*
X460578Y373057D01*
X461300Y372914D01*
X462022Y373057D01*
X462357Y373281D01*
X462781Y372857D01*
X462557Y372522D01*
X462414Y371800D01*
X462557Y371078D01*
X462966Y370466D01*
X463244Y370281D01*
X463127Y369692D01*
X462878Y369643D01*
X462266Y369234D01*
X461857Y368622D01*
X461714Y367900D01*
X461857Y367178D01*
X462266Y366566D01*
X462878Y366157D01*
X463600Y366014D01*
X464322Y366157D01*
X464934Y366566D01*
X465343Y367178D01*
X465486Y367900D01*
X465343Y368622D01*
X464934Y369234D01*
X464656Y369419D01*
X464773Y370008D01*
X465022Y370057D01*
X465634Y370466D01*
X466043Y371078D01*
X466186Y371800D01*
X466043Y372522D01*
X465634Y373134D01*
X465022Y373543D01*
X464300Y373686D01*
X463578Y373543D01*
X463243Y373319D01*
X462819Y373743D01*
X463043Y374078D01*
X463186Y374800D01*
X463043Y375522D01*
X462634Y376134D01*
X462022Y376543D01*
X461300Y376686D01*
D02*
G37*
G36*
X319434Y372820D02*
X318712Y372676D01*
X318100Y372268D01*
X317691Y371656D01*
X317548Y370934D01*
X317691Y370212D01*
X318100Y369600D01*
X318712Y369191D01*
X319434Y369048D01*
X320156Y369191D01*
X320768Y369600D01*
X321177Y370212D01*
X321320Y370934D01*
X321177Y371656D01*
X320768Y372268D01*
X320156Y372676D01*
X319434Y372820D01*
D02*
G37*
G36*
X457900Y368286D02*
X457178Y368143D01*
X456566Y367734D01*
X456157Y367122D01*
X456014Y366400D01*
X456157Y365678D01*
X456566Y365066D01*
X457178Y364657D01*
X457900Y364514D01*
X458622Y364657D01*
X459234Y365066D01*
X459643Y365678D01*
X459786Y366400D01*
X459643Y367122D01*
X459234Y367734D01*
X458622Y368143D01*
X457900Y368286D01*
D02*
G37*
G36*
X459300Y358786D02*
X458578Y358643D01*
X457966Y358234D01*
X457557Y357622D01*
X457414Y356900D01*
X457438Y356779D01*
X457300Y356086D01*
X456578Y355943D01*
X455966Y355534D01*
X455557Y354922D01*
X455414Y354200D01*
X455557Y353478D01*
X455966Y352866D01*
X456578Y352457D01*
X457300Y352314D01*
X458022Y352457D01*
X458634Y352866D01*
X459043Y353478D01*
X459186Y354200D01*
X459162Y354321D01*
X459300Y355014D01*
X460022Y355157D01*
X460634Y355566D01*
X461043Y356178D01*
X461186Y356900D01*
X461043Y357622D01*
X460634Y358234D01*
X460022Y358643D01*
X459300Y358786D01*
D02*
G37*
G36*
X446118Y367404D02*
X445396Y367261D01*
X444784Y366852D01*
X444376Y366240D01*
X444232Y365518D01*
X444376Y364796D01*
X444784Y364184D01*
X445396Y363775D01*
X446118Y363632D01*
X446840Y363775D01*
X447452Y364184D01*
X447861Y364796D01*
X448004Y365518D01*
X447861Y366240D01*
X447452Y366852D01*
X446840Y367261D01*
X446118Y367404D01*
D02*
G37*
G36*
X307800Y318195D02*
Y316500D01*
X309495D01*
X309419Y316878D01*
X308922Y317622D01*
X308178Y318120D01*
X307800Y318195D01*
D02*
G37*
G36*
X242000Y297495D02*
Y295800D01*
X243695D01*
X243619Y296178D01*
X243122Y296922D01*
X242378Y297420D01*
X242000Y297495D01*
D02*
G37*
G36*
X453600Y301386D02*
X452878Y301243D01*
X452266Y300834D01*
X451857Y300222D01*
X451714Y299500D01*
X451857Y298778D01*
X452266Y298166D01*
X452878Y297757D01*
X453600Y297614D01*
X454322Y297757D01*
X454934Y298166D01*
X455343Y298778D01*
X455486Y299500D01*
X455343Y300222D01*
X454934Y300834D01*
X454322Y301243D01*
X453600Y301386D01*
D02*
G37*
G36*
X241000Y297495D02*
X240622Y297420D01*
X239878Y296922D01*
X239381Y296178D01*
X239305Y295800D01*
X241000D01*
Y297495D01*
D02*
G37*
G36*
X460000Y298486D02*
X459278Y298343D01*
X458666Y297934D01*
X458257Y297322D01*
X458114Y296600D01*
X458257Y295878D01*
X458666Y295266D01*
X459278Y294857D01*
X460000Y294714D01*
X460722Y294857D01*
X461334Y295266D01*
X461743Y295878D01*
X461886Y296600D01*
X461743Y297322D01*
X461334Y297934D01*
X460722Y298343D01*
X460000Y298486D01*
D02*
G37*
G36*
X264400Y298586D02*
X263678Y298443D01*
X263066Y298034D01*
X262657Y297422D01*
X262514Y296700D01*
X262657Y295978D01*
X263066Y295366D01*
X263678Y294957D01*
X264400Y294814D01*
X265122Y294957D01*
X265734Y295366D01*
X266143Y295978D01*
X266286Y296700D01*
X266143Y297422D01*
X265734Y298034D01*
X265122Y298443D01*
X264400Y298586D01*
D02*
G37*
G36*
X417800Y304586D02*
X417078Y304443D01*
X416466Y304034D01*
X416057Y303422D01*
X415914Y302700D01*
X416057Y301978D01*
X416466Y301366D01*
X417078Y300957D01*
X417800Y300814D01*
X418522Y300957D01*
X419134Y301366D01*
X419543Y301978D01*
X419686Y302700D01*
X419543Y303422D01*
X419134Y304034D01*
X418522Y304443D01*
X417800Y304586D01*
D02*
G37*
G36*
X348300Y305286D02*
X347578Y305143D01*
X346966Y304734D01*
X346557Y304122D01*
X346414Y303400D01*
X346557Y302678D01*
X346966Y302066D01*
X347578Y301657D01*
X348300Y301514D01*
X349022Y301657D01*
X349634Y302066D01*
X350043Y302678D01*
X350186Y303400D01*
X350043Y304122D01*
X349634Y304734D01*
X349022Y305143D01*
X348300Y305286D01*
D02*
G37*
G36*
X401700Y304486D02*
X400978Y304343D01*
X400366Y303934D01*
X399957Y303322D01*
X399814Y302600D01*
X399957Y301878D01*
X400366Y301266D01*
X400978Y300857D01*
X401700Y300714D01*
X402422Y300857D01*
X403034Y301266D01*
X403443Y301878D01*
X403586Y302600D01*
X403443Y303322D01*
X403034Y303934D01*
X402422Y304343D01*
X401700Y304486D01*
D02*
G37*
G36*
X391100Y301786D02*
X390378Y301643D01*
X389766Y301234D01*
X389357Y300622D01*
X389214Y299900D01*
X389357Y299178D01*
X389766Y298566D01*
X390378Y298157D01*
X391100Y298014D01*
X391822Y298157D01*
X392434Y298566D01*
X392843Y299178D01*
X392986Y299900D01*
X392843Y300622D01*
X392434Y301234D01*
X391822Y301643D01*
X391100Y301786D01*
D02*
G37*
G36*
X264600Y303786D02*
X263878Y303643D01*
X263266Y303234D01*
X262857Y302622D01*
X262714Y301900D01*
X262857Y301178D01*
X263266Y300566D01*
X263878Y300157D01*
X264600Y300014D01*
X265322Y300157D01*
X265934Y300566D01*
X266343Y301178D01*
X266486Y301900D01*
X266343Y302622D01*
X265934Y303234D01*
X265322Y303643D01*
X264600Y303786D01*
D02*
G37*
G36*
X456700Y295586D02*
X455978Y295443D01*
X455366Y295034D01*
X454957Y294422D01*
X454814Y293700D01*
X454957Y292978D01*
X455366Y292366D01*
X455978Y291957D01*
X456700Y291814D01*
X457422Y291957D01*
X458034Y292366D01*
X458443Y292978D01*
X458586Y293700D01*
X458443Y294422D01*
X458034Y295034D01*
X457422Y295443D01*
X456700Y295586D01*
D02*
G37*
G36*
X263900Y289286D02*
X263178Y289143D01*
X262566Y288734D01*
X262157Y288122D01*
X262014Y287400D01*
X262157Y286678D01*
X262566Y286066D01*
X263178Y285657D01*
X263900Y285514D01*
X264622Y285657D01*
X265234Y286066D01*
X265643Y286678D01*
X265786Y287400D01*
X265643Y288122D01*
X265234Y288734D01*
X264622Y289143D01*
X263900Y289286D01*
D02*
G37*
G36*
X241000Y290400D02*
X239305D01*
X239381Y290022D01*
X239878Y289278D01*
X240622Y288780D01*
X241000Y288705D01*
Y290400D01*
D02*
G37*
G36*
X463900Y289086D02*
X463178Y288943D01*
X462566Y288534D01*
X462157Y287922D01*
X462014Y287200D01*
X462157Y286478D01*
X462566Y285866D01*
X463178Y285457D01*
X463900Y285314D01*
X464622Y285457D01*
X465234Y285866D01*
X465643Y286478D01*
X465786Y287200D01*
X465643Y287922D01*
X465234Y288534D01*
X464622Y288943D01*
X463900Y289086D01*
D02*
G37*
G36*
X460300Y285986D02*
X459578Y285843D01*
X458966Y285434D01*
X458557Y284822D01*
X458414Y284100D01*
X458557Y283378D01*
X458966Y282766D01*
X459578Y282357D01*
X460300Y282214D01*
X461022Y282357D01*
X461634Y282766D01*
X462043Y283378D01*
X462186Y284100D01*
X462043Y284822D01*
X461634Y285434D01*
X461022Y285843D01*
X460300Y285986D01*
D02*
G37*
G36*
X269800Y287786D02*
X269078Y287643D01*
X268466Y287234D01*
X268057Y286622D01*
X267914Y285900D01*
X268057Y285178D01*
X268466Y284566D01*
X269078Y284157D01*
X269800Y284014D01*
X270522Y284157D01*
X271134Y284566D01*
X271543Y285178D01*
X271686Y285900D01*
X271543Y286622D01*
X271134Y287234D01*
X270522Y287643D01*
X269800Y287786D01*
D02*
G37*
G36*
X243695Y294800D02*
X239305D01*
X239381Y294422D01*
X239878Y293678D01*
X240369Y293350D01*
Y292850D01*
X239878Y292522D01*
X239381Y291778D01*
X239305Y291400D01*
X243695D01*
X243619Y291778D01*
X243122Y292522D01*
X242632Y292850D01*
Y293350D01*
X243122Y293678D01*
X243619Y294422D01*
X243695Y294800D01*
D02*
G37*
G36*
X464600Y295386D02*
X463878Y295243D01*
X463266Y294834D01*
X462857Y294222D01*
X462714Y293500D01*
X462857Y292778D01*
X463266Y292166D01*
X463878Y291757D01*
X464600Y291614D01*
X465322Y291757D01*
X465934Y292166D01*
X466343Y292778D01*
X466486Y293500D01*
X466343Y294222D01*
X465934Y294834D01*
X465322Y295243D01*
X464600Y295386D01*
D02*
G37*
G36*
X264000Y294086D02*
X263278Y293943D01*
X262666Y293534D01*
X262257Y292922D01*
X262114Y292200D01*
X262257Y291478D01*
X262666Y290866D01*
X263278Y290457D01*
X264000Y290314D01*
X264722Y290457D01*
X265334Y290866D01*
X265743Y291478D01*
X265886Y292200D01*
X265743Y292922D01*
X265334Y293534D01*
X264722Y293943D01*
X264000Y294086D01*
D02*
G37*
G36*
X243695Y290400D02*
X242000D01*
Y288705D01*
X242378Y288780D01*
X243122Y289278D01*
X243619Y290022D01*
X243695Y290400D01*
D02*
G37*
G36*
X460250Y293136D02*
X459528Y292993D01*
X458916Y292584D01*
X458507Y291972D01*
X458364Y291250D01*
X458507Y290528D01*
X458916Y289916D01*
X459528Y289507D01*
X460250Y289364D01*
X460972Y289507D01*
X461584Y289916D01*
X461993Y290528D01*
X462136Y291250D01*
X461993Y291972D01*
X461584Y292584D01*
X460972Y292993D01*
X460250Y293136D01*
D02*
G37*
G36*
X377500Y307986D02*
X376778Y307843D01*
X376166Y307434D01*
X375757Y306822D01*
X375614Y306100D01*
X375757Y305378D01*
X376166Y304766D01*
X376778Y304357D01*
X377500Y304214D01*
X378222Y304357D01*
X378834Y304766D01*
X379243Y305378D01*
X379386Y306100D01*
X379243Y306822D01*
X378834Y307434D01*
X378222Y307843D01*
X377500Y307986D01*
D02*
G37*
G36*
X338500Y316986D02*
X337778Y316843D01*
X337166Y316434D01*
X336757Y315822D01*
X336614Y315100D01*
X336757Y314378D01*
X337166Y313766D01*
X337778Y313357D01*
X338500Y313214D01*
X339222Y313357D01*
X339834Y313766D01*
X340243Y314378D01*
X340386Y315100D01*
X340243Y315822D01*
X339834Y316434D01*
X339222Y316843D01*
X338500Y316986D01*
D02*
G37*
G36*
X306800Y315500D02*
X305105D01*
X305181Y315122D01*
X305678Y314378D01*
X306422Y313880D01*
X306800Y313805D01*
Y315500D01*
D02*
G37*
G36*
X241500Y316586D02*
X240778Y316443D01*
X240166Y316034D01*
X239757Y315422D01*
X239614Y314700D01*
X239757Y313978D01*
X240166Y313366D01*
X240778Y312957D01*
X241500Y312814D01*
X242222Y312957D01*
X242834Y313366D01*
X243243Y313978D01*
X243386Y314700D01*
X243243Y315422D01*
X242834Y316034D01*
X242222Y316443D01*
X241500Y316586D01*
D02*
G37*
G36*
X308700Y309795D02*
X308322Y309719D01*
X307578Y309222D01*
X307500Y309106D01*
X306900D01*
X306822Y309222D01*
X306078Y309719D01*
X305700Y309795D01*
Y307600D01*
Y305405D01*
X306078Y305481D01*
X306822Y305978D01*
X306900Y306094D01*
X307500D01*
X307578Y305978D01*
X308322Y305481D01*
X308700Y305405D01*
Y307600D01*
Y309795D01*
D02*
G37*
G36*
X396142Y317523D02*
X395463Y317434D01*
X394831Y317172D01*
X394288Y316755D01*
X393871Y316212D01*
X393609Y315579D01*
X393520Y314900D01*
X393609Y314222D01*
X393871Y313589D01*
X394288Y313046D01*
X394831Y312629D01*
X395463Y312367D01*
X396142Y312278D01*
X396821Y312367D01*
X397453Y312629D01*
X397997Y313046D01*
X398413Y313589D01*
X398675Y314222D01*
X398765Y314900D01*
X398675Y315579D01*
X398413Y316212D01*
X397997Y316755D01*
X397453Y317172D01*
X396821Y317434D01*
X396142Y317523D01*
D02*
G37*
G36*
X383400Y319786D02*
X382678Y319643D01*
X382066Y319234D01*
X381657Y318622D01*
X381514Y317900D01*
X381657Y317178D01*
X382066Y316566D01*
X382678Y316157D01*
X383400Y316014D01*
X384122Y316157D01*
X384734Y316566D01*
X385143Y317178D01*
X385286Y317900D01*
X385143Y318622D01*
X384734Y319234D01*
X384122Y319643D01*
X383400Y319786D01*
D02*
G37*
G36*
X306800Y318195D02*
X306422Y318120D01*
X305678Y317622D01*
X305181Y316878D01*
X305105Y316500D01*
X306800D01*
Y318195D01*
D02*
G37*
G36*
X420050Y317936D02*
X419328Y317793D01*
X418716Y317384D01*
X418307Y316772D01*
X418164Y316050D01*
X418307Y315328D01*
X418716Y314716D01*
X419328Y314307D01*
X420050Y314164D01*
X420772Y314307D01*
X421384Y314716D01*
X421793Y315328D01*
X421936Y316050D01*
X421793Y316772D01*
X421384Y317384D01*
X420772Y317793D01*
X420050Y317936D01*
D02*
G37*
G36*
X309495Y315500D02*
X307800D01*
Y313805D01*
X308178Y313880D01*
X308922Y314378D01*
X309419Y315122D01*
X309495Y315500D01*
D02*
G37*
G36*
X269800Y317686D02*
X269078Y317543D01*
X268466Y317134D01*
X268057Y316522D01*
X267914Y315800D01*
X268057Y315078D01*
X268466Y314466D01*
X269078Y314057D01*
X269800Y313914D01*
X270522Y314057D01*
X271134Y314466D01*
X271543Y315078D01*
X271686Y315800D01*
X271543Y316522D01*
X271134Y317134D01*
X270522Y317543D01*
X269800Y317686D01*
D02*
G37*
G36*
X402000Y312386D02*
X401278Y312243D01*
X400666Y311834D01*
X400257Y311222D01*
X400114Y310500D01*
X400257Y309778D01*
X400666Y309166D01*
X401278Y308757D01*
X402000Y308614D01*
X402722Y308757D01*
X403334Y309166D01*
X403743Y309778D01*
X403886Y310500D01*
X403743Y311222D01*
X403334Y311834D01*
X402722Y312243D01*
X402000Y312386D01*
D02*
G37*
G36*
X328700Y309586D02*
X327978Y309443D01*
X327366Y309034D01*
X326957Y308422D01*
X326814Y307700D01*
X326957Y306978D01*
X327366Y306366D01*
X327978Y305957D01*
X328700Y305814D01*
X329422Y305957D01*
X330034Y306366D01*
X330443Y306978D01*
X330586Y307700D01*
X330443Y308422D01*
X330034Y309034D01*
X329422Y309443D01*
X328700Y309586D01*
D02*
G37*
G36*
X265258Y311273D02*
X264579Y311184D01*
X263947Y310922D01*
X263403Y310505D01*
X262987Y309962D01*
X262725Y309329D01*
X262635Y308650D01*
X262725Y307972D01*
X262987Y307339D01*
X263403Y306796D01*
X263947Y306379D01*
X264579Y306117D01*
X265258Y306028D01*
X265936Y306117D01*
X266569Y306379D01*
X267112Y306796D01*
X267529Y307339D01*
X267791Y307972D01*
X267880Y308650D01*
X267791Y309329D01*
X267529Y309962D01*
X267112Y310505D01*
X266569Y310922D01*
X265936Y311184D01*
X265258Y311273D01*
D02*
G37*
G36*
X311395Y307100D02*
X309700D01*
Y305405D01*
X310078Y305481D01*
X310822Y305978D01*
X311319Y306722D01*
X311395Y307100D01*
D02*
G37*
G36*
X342600Y308986D02*
X341878Y308843D01*
X341266Y308434D01*
X340857Y307822D01*
X340714Y307100D01*
X340857Y306378D01*
X341266Y305766D01*
X341878Y305357D01*
X342600Y305214D01*
X343322Y305357D01*
X343934Y305766D01*
X344343Y306378D01*
X344486Y307100D01*
X344343Y307822D01*
X343934Y308434D01*
X343322Y308843D01*
X342600Y308986D01*
D02*
G37*
G36*
X304700Y307100D02*
X303005D01*
X303081Y306722D01*
X303578Y305978D01*
X304322Y305481D01*
X304700Y305405D01*
Y307100D01*
D02*
G37*
G36*
Y309795D02*
X304322Y309719D01*
X303578Y309222D01*
X303081Y308478D01*
X303005Y308100D01*
X304700D01*
Y309795D01*
D02*
G37*
G36*
X309700D02*
Y308100D01*
X311395D01*
X311319Y308478D01*
X310822Y309222D01*
X310078Y309719D01*
X309700Y309795D01*
D02*
G37*
G36*
X241500Y311686D02*
X240778Y311543D01*
X240166Y311134D01*
X239757Y310522D01*
X239614Y309800D01*
X239757Y309078D01*
X240166Y308466D01*
X240778Y308057D01*
X241500Y307914D01*
X242222Y308057D01*
X242834Y308466D01*
X243243Y309078D01*
X243386Y309800D01*
X243243Y310522D01*
X242834Y311134D01*
X242222Y311543D01*
X241500Y311686D01*
D02*
G37*
G36*
X371900Y309886D02*
X371178Y309743D01*
X370566Y309334D01*
X370157Y308722D01*
X370014Y308000D01*
X370157Y307278D01*
X370566Y306666D01*
X371178Y306257D01*
X371900Y306114D01*
X372622Y306257D01*
X373234Y306666D01*
X373643Y307278D01*
X373786Y308000D01*
X373643Y308722D01*
X373234Y309334D01*
X372622Y309743D01*
X371900Y309886D01*
D02*
G37*
G36*
X356400Y310786D02*
X355678Y310643D01*
X355066Y310234D01*
X354657Y309622D01*
X354514Y308900D01*
X354657Y308178D01*
X355066Y307566D01*
X355678Y307157D01*
X356400Y307014D01*
X357122Y307157D01*
X357734Y307566D01*
X357915Y307837D01*
X358089Y307872D01*
X358538D01*
X358894Y307339D01*
X359506Y306930D01*
X360228Y306786D01*
X360950Y306930D01*
X361561Y307339D01*
X361970Y307950D01*
X362114Y308672D01*
X361970Y309394D01*
X361561Y310006D01*
X360950Y310415D01*
X360228Y310559D01*
X359506Y310415D01*
X358894Y310006D01*
X358713Y309735D01*
X358539Y309701D01*
X358090D01*
X357734Y310234D01*
X357122Y310643D01*
X356400Y310786D01*
D02*
G37*
G36*
X281300Y428695D02*
X280922Y428619D01*
X280178Y428122D01*
X279680Y427378D01*
X279605Y427000D01*
X281300D01*
Y428695D01*
D02*
G37*
G36*
X282300D02*
Y427000D01*
X283995D01*
X283920Y427378D01*
X283422Y428122D01*
X282678Y428619D01*
X282300Y428695D01*
D02*
G37*
G36*
X338000Y428986D02*
X337278Y428843D01*
X336666Y428434D01*
X336257Y427822D01*
X336114Y427100D01*
X336257Y426378D01*
X336666Y425766D01*
X337278Y425357D01*
X338000Y425214D01*
X338722Y425357D01*
X339334Y425766D01*
X339743Y426378D01*
X339846Y426898D01*
X339892D01*
Y427302D01*
X339846D01*
X339743Y427822D01*
X339334Y428434D01*
X338722Y428843D01*
X338000Y428986D01*
D02*
G37*
G36*
X307600Y428786D02*
X306878Y428643D01*
X306266Y428234D01*
X305857Y427622D01*
X305714Y426900D01*
X305857Y426178D01*
X306266Y425566D01*
X306878Y425157D01*
X307600Y425014D01*
X308322Y425157D01*
X308934Y425566D01*
X309343Y426178D01*
X309456Y426748D01*
X309492D01*
Y427152D01*
X309456D01*
Y427152D01*
X309436D01*
X309343Y427622D01*
X308934Y428234D01*
X308322Y428643D01*
X307600Y428786D01*
D02*
G37*
G36*
X246600Y428986D02*
X245878Y428843D01*
X245266Y428434D01*
X244857Y427822D01*
X244714Y427100D01*
X244857Y426378D01*
X245266Y425766D01*
X245878Y425357D01*
X246600Y425214D01*
X247322Y425357D01*
X247934Y425766D01*
X248343Y426378D01*
X248446Y426898D01*
X248492D01*
Y427302D01*
X248446D01*
X248343Y427822D01*
X247934Y428434D01*
X247322Y428843D01*
X246600Y428986D01*
D02*
G37*
G36*
X312700Y429195D02*
Y427500D01*
X314395D01*
X314319Y427878D01*
X313822Y428622D01*
X313078Y429119D01*
X312700Y429195D01*
D02*
G37*
G36*
X250700Y429295D02*
X250322Y429219D01*
X249578Y428722D01*
X249080Y427978D01*
X249005Y427600D01*
X250700D01*
Y429295D01*
D02*
G37*
G36*
X311700Y429195D02*
X311322Y429119D01*
X310578Y428622D01*
X310081Y427878D01*
X310005Y427500D01*
X311700D01*
Y429195D01*
D02*
G37*
G36*
X372500Y429095D02*
X372122Y429019D01*
X371378Y428522D01*
X370881Y427778D01*
X370805Y427400D01*
X372500D01*
Y429095D01*
D02*
G37*
G36*
X373500D02*
Y427400D01*
X375195D01*
X375119Y427778D01*
X374622Y428522D01*
X373878Y429019D01*
X373500Y429095D01*
D02*
G37*
G36*
X368400Y428686D02*
X367678Y428543D01*
X367066Y428134D01*
X366657Y427522D01*
X366514Y426800D01*
X366657Y426078D01*
X367066Y425466D01*
X367678Y425057D01*
X368400Y424914D01*
X369122Y425057D01*
X369734Y425466D01*
X370143Y426078D01*
X370256Y426648D01*
X370292D01*
Y427052D01*
X370256D01*
Y427052D01*
X370236D01*
X370143Y427522D01*
X369734Y428134D01*
X369122Y428543D01*
X368400Y428686D01*
D02*
G37*
G36*
X375195Y426400D02*
X373500D01*
Y424705D01*
X373878Y424781D01*
X374622Y425278D01*
X375119Y426022D01*
X375195Y426400D01*
D02*
G37*
G36*
X311700Y426500D02*
X310005D01*
X310081Y426122D01*
X310578Y425378D01*
X311322Y424881D01*
X311700Y424805D01*
Y426500D01*
D02*
G37*
G36*
X372500Y426400D02*
X370805D01*
X370881Y426022D01*
X371378Y425278D01*
X372122Y424781D01*
X372500Y424705D01*
Y426400D01*
D02*
G37*
G36*
X283995Y426000D02*
X282300D01*
Y424305D01*
X282678Y424381D01*
X283422Y424878D01*
X283920Y425622D01*
X283995Y426000D01*
D02*
G37*
G36*
X277300Y428386D02*
X276578Y428243D01*
X275966Y427834D01*
X275557Y427222D01*
X275414Y426500D01*
X275557Y425778D01*
X275966Y425166D01*
X276578Y424757D01*
X277300Y424614D01*
X278022Y424757D01*
X278634Y425166D01*
X279043Y425778D01*
X279096Y426047D01*
X279096D01*
X279187Y426500D01*
X279096Y426953D01*
X279096D01*
X279043Y427222D01*
X278634Y427834D01*
X278022Y428243D01*
X277300Y428386D01*
D02*
G37*
G36*
X342100Y426600D02*
X340405D01*
X340480Y426222D01*
X340978Y425478D01*
X341722Y424981D01*
X342100Y424905D01*
Y426600D01*
D02*
G37*
G36*
X344795D02*
X343100D01*
Y424905D01*
X343478Y424981D01*
X344222Y425478D01*
X344720Y426222D01*
X344795Y426600D01*
D02*
G37*
G36*
X253395D02*
X251700D01*
Y424905D01*
X252078Y424981D01*
X252822Y425478D01*
X253320Y426222D01*
X253395Y426600D01*
D02*
G37*
G36*
X314395Y426500D02*
X312700D01*
Y424805D01*
X313078Y424881D01*
X313822Y425378D01*
X314319Y426122D01*
X314395Y426500D01*
D02*
G37*
G36*
X250700Y426600D02*
X249005D01*
X249080Y426222D01*
X249578Y425478D01*
X250322Y424981D01*
X250700Y424905D01*
Y426600D01*
D02*
G37*
G36*
X251700Y429295D02*
Y427600D01*
X253395D01*
X253320Y427978D01*
X252822Y428722D01*
X252078Y429219D01*
X251700Y429295D01*
D02*
G37*
G36*
X287480Y467952D02*
X286604Y467836D01*
X285788Y467498D01*
X285087Y466960D01*
X284549Y466259D01*
X284211Y465443D01*
X284096Y464567D01*
X284211Y463691D01*
X284549Y462875D01*
X285087Y462174D01*
X285788Y461636D01*
X286604Y461297D01*
X287480Y461182D01*
X288356Y461297D01*
X289173Y461636D01*
X289874Y462174D01*
X290412Y462875D01*
X290750Y463691D01*
X290865Y464567D01*
X290750Y465443D01*
X290412Y466259D01*
X289874Y466960D01*
X289173Y467498D01*
X288356Y467836D01*
X287480Y467952D01*
D02*
G37*
G36*
X298268D02*
X297392Y467836D01*
X296575Y467498D01*
X295874Y466960D01*
X295336Y466259D01*
X294998Y465443D01*
X294883Y464567D01*
X294998Y463691D01*
X295336Y462875D01*
X295874Y462174D01*
X296575Y461636D01*
X297392Y461297D01*
X298268Y461182D01*
X299144Y461297D01*
X299960Y461636D01*
X300661Y462174D01*
X301199Y462875D01*
X301537Y463691D01*
X301653Y464567D01*
X301537Y465443D01*
X301199Y466259D01*
X300661Y466960D01*
X299960Y467498D01*
X299144Y467836D01*
X298268Y467952D01*
D02*
G37*
G36*
X385689Y466700D02*
X384182Y466552D01*
X382733Y466112D01*
X381398Y465399D01*
X380227Y464438D01*
X379267Y463268D01*
X378553Y461932D01*
X378114Y460483D01*
X377965Y458976D01*
X378114Y457470D01*
X378553Y456021D01*
X379267Y454685D01*
X380227Y453515D01*
X381398Y452554D01*
X382733Y451840D01*
X384182Y451401D01*
X385689Y451253D01*
X387196Y451401D01*
X388645Y451840D01*
X389980Y452554D01*
X391150Y453515D01*
X392111Y454685D01*
X392825Y456021D01*
X393264Y457470D01*
X393413Y458976D01*
X393264Y460483D01*
X392825Y461932D01*
X392111Y463268D01*
X391150Y464438D01*
X389980Y465399D01*
X388645Y466112D01*
X387196Y466552D01*
X385689Y466700D01*
D02*
G37*
G36*
X357598Y456771D02*
X356722Y456655D01*
X355906Y456317D01*
X355205Y455779D01*
X354667Y455078D01*
X354329Y454262D01*
X354214Y453386D01*
X354329Y452510D01*
X354667Y451693D01*
X355205Y450992D01*
X355906Y450455D01*
X356722Y450116D01*
X357598Y450001D01*
X358474Y450116D01*
X359291Y450455D01*
X359992Y450992D01*
X360530Y451693D01*
X360868Y452510D01*
X360983Y453386D01*
X360868Y454262D01*
X360530Y455078D01*
X359992Y455779D01*
X359291Y456317D01*
X358474Y456655D01*
X357598Y456771D01*
D02*
G37*
G36*
X253957Y466700D02*
X252450Y466552D01*
X251001Y466112D01*
X249666Y465399D01*
X248495Y464438D01*
X247535Y463268D01*
X246821Y461932D01*
X246381Y460483D01*
X246233Y458976D01*
X246381Y457470D01*
X246821Y456021D01*
X247535Y454685D01*
X248495Y453515D01*
X249666Y452554D01*
X251001Y451840D01*
X252450Y451401D01*
X253957Y451253D01*
X255464Y451401D01*
X256912Y451840D01*
X258248Y452554D01*
X259418Y453515D01*
X260379Y454685D01*
X261092Y456021D01*
X261532Y457470D01*
X261681Y458976D01*
X261532Y460483D01*
X261092Y461932D01*
X260379Y463268D01*
X259418Y464438D01*
X258248Y465399D01*
X256912Y466112D01*
X255464Y466552D01*
X253957Y466700D01*
D02*
G37*
G36*
X341417Y467952D02*
X340541Y467836D01*
X339725Y467498D01*
X339024Y466960D01*
X338486Y466259D01*
X338148Y465443D01*
X338033Y464567D01*
X338148Y463691D01*
X338486Y462875D01*
X339024Y462174D01*
X339725Y461636D01*
X340541Y461297D01*
X341417Y461182D01*
X342293Y461297D01*
X343110Y461636D01*
X343811Y462174D01*
X344349Y462875D01*
X344687Y463691D01*
X344802Y464567D01*
X344687Y465443D01*
X344349Y466259D01*
X343811Y466960D01*
X343110Y467498D01*
X342293Y467836D01*
X341417Y467952D01*
D02*
G37*
G36*
X352205D02*
X351329Y467836D01*
X350512Y467498D01*
X349811Y466960D01*
X349273Y466259D01*
X348935Y465443D01*
X348820Y464567D01*
X348935Y463691D01*
X349273Y462875D01*
X349811Y462174D01*
X350512Y461636D01*
X351329Y461297D01*
X352205Y461182D01*
X353081Y461297D01*
X353897Y461636D01*
X354598Y462174D01*
X355136Y462875D01*
X355474Y463691D01*
X355590Y464567D01*
X355474Y465443D01*
X355136Y466259D01*
X354598Y466960D01*
X353897Y467498D01*
X353081Y467836D01*
X352205Y467952D01*
D02*
G37*
G36*
X330630D02*
X329754Y467836D01*
X328938Y467498D01*
X328237Y466960D01*
X327698Y466259D01*
X327360Y465443D01*
X327245Y464567D01*
X327360Y463691D01*
X327698Y462875D01*
X328237Y462174D01*
X328938Y461636D01*
X329754Y461297D01*
X330630Y461182D01*
X331506Y461297D01*
X332322Y461636D01*
X333023Y462174D01*
X333561Y462875D01*
X333899Y463691D01*
X334015Y464567D01*
X333899Y465443D01*
X333561Y466259D01*
X333023Y466960D01*
X332322Y467498D01*
X331506Y467836D01*
X330630Y467952D01*
D02*
G37*
G36*
X309055D02*
X308179Y467836D01*
X307363Y467498D01*
X306662Y466960D01*
X306124Y466259D01*
X305786Y465443D01*
X305670Y464567D01*
X305786Y463691D01*
X306124Y462875D01*
X306662Y462174D01*
X307363Y461636D01*
X308179Y461297D01*
X309055Y461182D01*
X309931Y461297D01*
X310748Y461636D01*
X311449Y462174D01*
X311986Y462875D01*
X312325Y463691D01*
X312440Y464567D01*
X312325Y465443D01*
X311986Y466259D01*
X311449Y466960D01*
X310748Y467498D01*
X309931Y467836D01*
X309055Y467952D01*
D02*
G37*
G36*
X319843D02*
X318966Y467836D01*
X318150Y467498D01*
X317449Y466960D01*
X316911Y466259D01*
X316573Y465443D01*
X316458Y464567D01*
X316573Y463691D01*
X316911Y462875D01*
X317449Y462174D01*
X318150Y461636D01*
X318966Y461297D01*
X319843Y461182D01*
X320719Y461297D01*
X321535Y461636D01*
X322236Y462174D01*
X322774Y462875D01*
X323112Y463691D01*
X323227Y464567D01*
X323112Y465443D01*
X322774Y466259D01*
X322236Y466960D01*
X321535Y467498D01*
X320719Y467836D01*
X319843Y467952D01*
D02*
G37*
G36*
X346811Y456771D02*
X345935Y456655D01*
X345119Y456317D01*
X344418Y455779D01*
X343880Y455078D01*
X343542Y454262D01*
X343426Y453386D01*
X343542Y452510D01*
X343880Y451693D01*
X344418Y450992D01*
X345119Y450455D01*
X345935Y450116D01*
X346811Y450001D01*
X347687Y450116D01*
X348503Y450455D01*
X349204Y450992D01*
X349742Y451693D01*
X350080Y452510D01*
X350196Y453386D01*
X350080Y454262D01*
X349742Y455078D01*
X349204Y455779D01*
X348503Y456317D01*
X347687Y456655D01*
X346811Y456771D01*
D02*
G37*
G36*
X400700Y450586D02*
X399978Y450443D01*
X399366Y450034D01*
X398957Y449422D01*
X398814Y448700D01*
X398957Y447978D01*
X399366Y447366D01*
X399978Y446957D01*
X400700Y446814D01*
X401422Y446957D01*
X402034Y447366D01*
X402443Y447978D01*
X402586Y448700D01*
X402443Y449422D01*
X402034Y450034D01*
X401422Y450443D01*
X400700Y450586D01*
D02*
G37*
G36*
X282087Y456771D02*
X281210Y456655D01*
X280394Y456317D01*
X279693Y455779D01*
X279155Y455078D01*
X278817Y454262D01*
X278702Y453386D01*
X278817Y452510D01*
X279155Y451693D01*
X279693Y450992D01*
X280394Y450455D01*
X281210Y450116D01*
X282087Y450001D01*
X282963Y450116D01*
X283779Y450455D01*
X284480Y450992D01*
X285018Y451693D01*
X285356Y452510D01*
X285472Y453386D01*
X285356Y454262D01*
X285018Y455078D01*
X284480Y455779D01*
X283779Y456317D01*
X282963Y456655D01*
X282087Y456771D01*
D02*
G37*
G36*
X409300Y444486D02*
X408578Y444343D01*
X407966Y443934D01*
X407557Y443322D01*
X407414Y442600D01*
X407557Y441878D01*
X407966Y441266D01*
X408578Y440857D01*
X409300Y440714D01*
X410022Y440857D01*
X410634Y441266D01*
X411043Y441878D01*
X411186Y442600D01*
X411043Y443322D01*
X410634Y443934D01*
X410022Y444343D01*
X409300Y444486D01*
D02*
G37*
G36*
X342100Y429295D02*
X341722Y429219D01*
X340978Y428722D01*
X340480Y427978D01*
X340405Y427600D01*
X342100D01*
Y429295D01*
D02*
G37*
G36*
X343100D02*
Y427600D01*
X344795D01*
X344720Y427978D01*
X344222Y428722D01*
X343478Y429219D01*
X343100Y429295D01*
D02*
G37*
G36*
X325236Y456771D02*
X324360Y456655D01*
X323544Y456317D01*
X322843Y455779D01*
X322305Y455078D01*
X321967Y454262D01*
X321851Y453386D01*
X321967Y452510D01*
X322305Y451693D01*
X322843Y450992D01*
X323544Y450455D01*
X324360Y450116D01*
X325236Y450001D01*
X326112Y450116D01*
X326929Y450455D01*
X327630Y450992D01*
X328168Y451693D01*
X328506Y452510D01*
X328621Y453386D01*
X328506Y454262D01*
X328168Y455078D01*
X327630Y455779D01*
X326929Y456317D01*
X326112Y456655D01*
X325236Y456771D01*
D02*
G37*
G36*
X336024D02*
X335148Y456655D01*
X334331Y456317D01*
X333630Y455779D01*
X333092Y455078D01*
X332754Y454262D01*
X332639Y453386D01*
X332754Y452510D01*
X333092Y451693D01*
X333630Y450992D01*
X334331Y450455D01*
X335148Y450116D01*
X336024Y450001D01*
X336900Y450116D01*
X337716Y450455D01*
X338417Y450992D01*
X338955Y451693D01*
X339293Y452510D01*
X339408Y453386D01*
X339293Y454262D01*
X338955Y455078D01*
X338417Y455779D01*
X337716Y456317D01*
X336900Y456655D01*
X336024Y456771D01*
D02*
G37*
G36*
X314449D02*
X313573Y456655D01*
X312756Y456317D01*
X312055Y455779D01*
X311518Y455078D01*
X311179Y454262D01*
X311064Y453386D01*
X311179Y452510D01*
X311518Y451693D01*
X312055Y450992D01*
X312756Y450455D01*
X313573Y450116D01*
X314449Y450001D01*
X315325Y450116D01*
X316141Y450455D01*
X316842Y450992D01*
X317380Y451693D01*
X317718Y452510D01*
X317834Y453386D01*
X317718Y454262D01*
X317380Y455078D01*
X316842Y455779D01*
X316141Y456317D01*
X315325Y456655D01*
X314449Y456771D01*
D02*
G37*
G36*
X292874D02*
X291998Y456655D01*
X291182Y456317D01*
X290481Y455779D01*
X289943Y455078D01*
X289604Y454262D01*
X289489Y453386D01*
X289604Y452510D01*
X289943Y451693D01*
X290481Y450992D01*
X291182Y450455D01*
X291998Y450116D01*
X292874Y450001D01*
X293750Y450116D01*
X294566Y450455D01*
X295268Y450992D01*
X295805Y451693D01*
X296144Y452510D01*
X296259Y453386D01*
X296144Y454262D01*
X295805Y455078D01*
X295268Y455779D01*
X294566Y456317D01*
X293750Y456655D01*
X292874Y456771D01*
D02*
G37*
G36*
X303661D02*
X302785Y456655D01*
X301969Y456317D01*
X301268Y455779D01*
X300730Y455078D01*
X300392Y454262D01*
X300277Y453386D01*
X300392Y452510D01*
X300730Y451693D01*
X301268Y450992D01*
X301969Y450455D01*
X302785Y450116D01*
X303661Y450001D01*
X304538Y450116D01*
X305354Y450455D01*
X306055Y450992D01*
X306593Y451693D01*
X306931Y452510D01*
X307046Y453386D01*
X306931Y454262D01*
X306593Y455078D01*
X306055Y455779D01*
X305354Y456317D01*
X304538Y456655D01*
X303661Y456771D01*
D02*
G37*
G36*
X425900Y383295D02*
Y381600D01*
X427595D01*
X427519Y381978D01*
X427022Y382722D01*
X426278Y383220D01*
X425900Y383295D01*
D02*
G37*
G36*
X434700D02*
X434322Y383220D01*
X433578Y382722D01*
X433467Y382556D01*
X432967D01*
X432922Y382622D01*
X432178Y383120D01*
X431800Y383195D01*
Y381000D01*
Y378805D01*
X432178Y378881D01*
X432922Y379378D01*
X433033Y379544D01*
X433533D01*
X433578Y379478D01*
X434322Y378980D01*
X434700Y378905D01*
Y381100D01*
Y383295D01*
D02*
G37*
G36*
X424900D02*
X424522Y383220D01*
X423778Y382722D01*
X423281Y381978D01*
X423205Y381600D01*
X424900D01*
Y383295D01*
D02*
G37*
G36*
X420000Y383195D02*
Y381500D01*
X421695D01*
X421619Y381878D01*
X421122Y382622D01*
X420378Y383120D01*
X420000Y383195D01*
D02*
G37*
G36*
X430800D02*
X430422Y383120D01*
X429678Y382622D01*
X429181Y381878D01*
X429105Y381500D01*
X430800D01*
Y383195D01*
D02*
G37*
G36*
X428600Y395386D02*
X427878Y395243D01*
X427266Y394834D01*
X426857Y394222D01*
X426714Y393500D01*
X426857Y392778D01*
X427266Y392166D01*
X427878Y391757D01*
X428600Y391614D01*
X429322Y391757D01*
X429934Y392166D01*
X430343Y392778D01*
X430486Y393500D01*
X430343Y394222D01*
X429934Y394834D01*
X429322Y395243D01*
X428600Y395386D01*
D02*
G37*
G36*
X462200Y393495D02*
X461822Y393420D01*
X461078Y392922D01*
X460581Y392178D01*
X460505Y391800D01*
X462200D01*
Y393495D01*
D02*
G37*
G36*
X467900Y392986D02*
X467178Y392843D01*
X466566Y392434D01*
X466157Y391822D01*
X466014Y391100D01*
X466157Y390378D01*
X466566Y389766D01*
X467178Y389357D01*
X467900Y389214D01*
X468622Y389357D01*
X469234Y389766D01*
X469643Y390378D01*
X469786Y391100D01*
X469643Y391822D01*
X469234Y392434D01*
X468622Y392843D01*
X467900Y392986D01*
D02*
G37*
G36*
X462200Y390800D02*
X460505D01*
X460581Y390422D01*
X461078Y389678D01*
X461822Y389180D01*
X462200Y389105D01*
Y390800D01*
D02*
G37*
G36*
X464895D02*
X463200D01*
Y389105D01*
X463578Y389180D01*
X464322Y389678D01*
X464819Y390422D01*
X464895Y390800D01*
D02*
G37*
G36*
X419000Y383195D02*
X418622Y383120D01*
X417878Y382622D01*
X417381Y381878D01*
X417305Y381500D01*
X419000D01*
Y383195D01*
D02*
G37*
G36*
X324900Y384086D02*
X324178Y383943D01*
X323566Y383534D01*
X323157Y382922D01*
X323014Y382200D01*
X323157Y381478D01*
X323566Y380866D01*
X324178Y380457D01*
X324900Y380314D01*
X325622Y380457D01*
X326234Y380866D01*
X326643Y381478D01*
X326786Y382200D01*
X326643Y382922D01*
X326234Y383534D01*
X325622Y383943D01*
X324900Y384086D01*
D02*
G37*
G36*
X335756D02*
X335034Y383943D01*
X334422Y383534D01*
X334013Y382922D01*
X333870Y382200D01*
X334013Y381478D01*
X334422Y380866D01*
X335034Y380457D01*
X335756Y380314D01*
X336478Y380457D01*
X337090Y380866D01*
X337499Y381478D01*
X337642Y382200D01*
X337499Y382922D01*
X337090Y383534D01*
X336478Y383943D01*
X335756Y384086D01*
D02*
G37*
G36*
X311100Y383786D02*
X310378Y383643D01*
X309766Y383234D01*
X309357Y382622D01*
X309214Y381900D01*
X309357Y381178D01*
X309766Y380566D01*
X310378Y380157D01*
X311100Y380014D01*
X311822Y380157D01*
X312434Y380566D01*
X312843Y381178D01*
X312986Y381900D01*
X312843Y382622D01*
X312434Y383234D01*
X311822Y383643D01*
X311100Y383786D01*
D02*
G37*
G36*
X424900Y380600D02*
X423205D01*
X423281Y380222D01*
X423778Y379478D01*
X424522Y378980D01*
X424900Y378905D01*
Y380600D01*
D02*
G37*
G36*
X427595D02*
X425900D01*
Y378905D01*
X426278Y378980D01*
X427022Y379478D01*
X427519Y380222D01*
X427595Y380600D01*
D02*
G37*
G36*
X412900Y383095D02*
X412522Y383019D01*
X411778Y382522D01*
X411281Y381778D01*
X411205Y381400D01*
X412900D01*
Y383095D01*
D02*
G37*
G36*
X413900D02*
Y381400D01*
X415595D01*
X415519Y381778D01*
X415022Y382522D01*
X414278Y383019D01*
X413900Y383095D01*
D02*
G37*
G36*
X446500Y382895D02*
Y381200D01*
X448195D01*
X448119Y381578D01*
X447622Y382322D01*
X446878Y382820D01*
X446500Y382895D01*
D02*
G37*
G36*
X346800Y384086D02*
X346078Y383943D01*
X345466Y383534D01*
X345057Y382922D01*
X344914Y382200D01*
X345057Y381478D01*
X345466Y380866D01*
X346078Y380457D01*
X346800Y380314D01*
X347522Y380457D01*
X348134Y380866D01*
X348543Y381478D01*
X348686Y382200D01*
X348543Y382922D01*
X348134Y383534D01*
X347522Y383943D01*
X346800Y384086D01*
D02*
G37*
G36*
X445500Y382895D02*
X445122Y382820D01*
X444378Y382322D01*
X443881Y381578D01*
X443805Y381200D01*
X445500D01*
Y382895D01*
D02*
G37*
G36*
X463200Y393495D02*
Y391800D01*
X464895D01*
X464819Y392178D01*
X464322Y392922D01*
X463578Y393420D01*
X463200Y393495D01*
D02*
G37*
G36*
X372400Y414586D02*
X371678Y414443D01*
X371066Y414034D01*
X370657Y413422D01*
X370514Y412700D01*
X370657Y411978D01*
X371066Y411366D01*
X371678Y410957D01*
X372400Y410814D01*
X373122Y410957D01*
X373734Y411366D01*
X374143Y411978D01*
X374286Y412700D01*
X374143Y413422D01*
X373734Y414034D01*
X373122Y414443D01*
X372400Y414586D01*
D02*
G37*
G36*
X405240Y413860D02*
X403546D01*
X403621Y413482D01*
X404118Y412738D01*
X404862Y412240D01*
X405240Y412165D01*
Y413860D01*
D02*
G37*
G36*
X281200Y414386D02*
X280478Y414243D01*
X279866Y413834D01*
X279457Y413222D01*
X279314Y412500D01*
X279457Y411778D01*
X279866Y411166D01*
X280478Y410757D01*
X281200Y410614D01*
X281922Y410757D01*
X282534Y411166D01*
X282943Y411778D01*
X283086Y412500D01*
X282943Y413222D01*
X282534Y413834D01*
X281922Y414243D01*
X281200Y414386D01*
D02*
G37*
G36*
X261200Y412989D02*
X260273Y412867D01*
X259408Y412509D01*
X258666Y411939D01*
X258097Y411197D01*
X257739Y410333D01*
X257617Y409406D01*
X257739Y408478D01*
X258097Y407614D01*
X258666Y406872D01*
X259408Y406302D01*
X260273Y405944D01*
X261200Y405822D01*
X262127Y405944D01*
X262992Y406302D01*
X263734Y406872D01*
X264303Y407614D01*
X264661Y408478D01*
X264783Y409406D01*
X264661Y410333D01*
X264303Y411197D01*
X263734Y411939D01*
X262992Y412509D01*
X262127Y412867D01*
X261200Y412989D01*
D02*
G37*
G36*
X352600D02*
X351673Y412867D01*
X350808Y412509D01*
X350066Y411939D01*
X349497Y411197D01*
X349139Y410333D01*
X349017Y409406D01*
X349139Y408478D01*
X349497Y407614D01*
X350066Y406872D01*
X350808Y406302D01*
X351673Y405944D01*
X352600Y405822D01*
X353527Y405944D01*
X354392Y406302D01*
X355134Y406872D01*
X355703Y407614D01*
X356061Y408478D01*
X356183Y409406D01*
X356061Y410333D01*
X355703Y411197D01*
X355134Y411939D01*
X354392Y412509D01*
X353527Y412867D01*
X352600Y412989D01*
D02*
G37*
G36*
X423200Y419986D02*
X422478Y419843D01*
X421866Y419434D01*
X421457Y418822D01*
X421314Y418100D01*
X421457Y417378D01*
X421866Y416766D01*
X422478Y416357D01*
X423200Y416214D01*
X423922Y416357D01*
X424534Y416766D01*
X424943Y417378D01*
X425086Y418100D01*
X424943Y418822D01*
X424534Y419434D01*
X423922Y419843D01*
X423200Y419986D01*
D02*
G37*
G36*
X281300Y426000D02*
X279605D01*
X279680Y425622D01*
X280178Y424878D01*
X280922Y424381D01*
X281300Y424305D01*
Y426000D01*
D02*
G37*
G36*
X406240Y416554D02*
Y414860D01*
X407935D01*
X407860Y415238D01*
X407362Y415982D01*
X406618Y416479D01*
X406240Y416554D01*
D02*
G37*
G36*
X407935Y413860D02*
X406240D01*
Y412165D01*
X406618Y412240D01*
X407362Y412738D01*
X407860Y413482D01*
X407935Y413860D01*
D02*
G37*
G36*
X405240Y416554D02*
X404862Y416479D01*
X404118Y415982D01*
X403621Y415238D01*
X403546Y414860D01*
X405240D01*
Y416554D01*
D02*
G37*
G36*
X322200Y412903D02*
X321273Y412781D01*
X320408Y412423D01*
X319666Y411854D01*
X319097Y411111D01*
X318739Y410247D01*
X318617Y409320D01*
X318739Y408392D01*
X319097Y407528D01*
X319666Y406786D01*
X320408Y406216D01*
X321273Y405858D01*
X322200Y405736D01*
X323127Y405858D01*
X323992Y406216D01*
X324734Y406786D01*
X325303Y407528D01*
X325661Y408392D01*
X325783Y409320D01*
X325661Y410247D01*
X325303Y411111D01*
X324734Y411854D01*
X323992Y412423D01*
X323127Y412781D01*
X322200Y412903D01*
D02*
G37*
G36*
Y401092D02*
X321273Y400970D01*
X320408Y400612D01*
X319666Y400042D01*
X319097Y399300D01*
X318739Y398436D01*
X318617Y397509D01*
X318739Y396581D01*
X319097Y395717D01*
X319666Y394975D01*
X320408Y394405D01*
X321273Y394047D01*
X322200Y393925D01*
X323127Y394047D01*
X323992Y394405D01*
X324734Y394975D01*
X325303Y395717D01*
X325661Y396581D01*
X325783Y397509D01*
X325661Y398436D01*
X325303Y399300D01*
X324734Y400042D01*
X323992Y400612D01*
X323127Y400970D01*
X322200Y401092D01*
D02*
G37*
G36*
X261200Y401178D02*
X260273Y401056D01*
X259408Y400698D01*
X258666Y400128D01*
X258097Y399386D01*
X257739Y398522D01*
X257617Y397594D01*
X257739Y396667D01*
X258097Y395803D01*
X258666Y395061D01*
X259408Y394491D01*
X260273Y394133D01*
X261200Y394011D01*
X262127Y394133D01*
X262992Y394491D01*
X263734Y395061D01*
X264303Y395803D01*
X264661Y396667D01*
X264783Y397594D01*
X264661Y398522D01*
X264303Y399386D01*
X263734Y400128D01*
X262992Y400698D01*
X262127Y401056D01*
X261200Y401178D01*
D02*
G37*
G36*
X383000Y400978D02*
X382073Y400856D01*
X381208Y400498D01*
X380466Y399928D01*
X379897Y399186D01*
X379539Y398322D01*
X379417Y397394D01*
X379539Y396467D01*
X379897Y395603D01*
X380466Y394861D01*
X381208Y394291D01*
X382073Y393933D01*
X383000Y393811D01*
X383927Y393933D01*
X384792Y394291D01*
X385534Y394861D01*
X386103Y395603D01*
X386461Y396467D01*
X386583Y397394D01*
X386461Y398322D01*
X386103Y399186D01*
X385534Y399928D01*
X384792Y400498D01*
X383927Y400856D01*
X383000Y400978D01*
D02*
G37*
G36*
X448200Y395886D02*
X447478Y395743D01*
X446866Y395334D01*
X446457Y394722D01*
X446314Y394000D01*
X446457Y393278D01*
X446866Y392666D01*
X447478Y392257D01*
X448200Y392114D01*
X448922Y392257D01*
X449534Y392666D01*
X449943Y393278D01*
X450086Y394000D01*
X449943Y394722D01*
X449534Y395334D01*
X448922Y395743D01*
X448200Y395886D01*
D02*
G37*
G36*
X291900Y400632D02*
X290973Y400510D01*
X290108Y400152D01*
X289366Y399583D01*
X288797Y398840D01*
X288439Y397976D01*
X288317Y397049D01*
X288439Y396121D01*
X288797Y395257D01*
X289366Y394515D01*
X290108Y393946D01*
X290973Y393587D01*
X291900Y393465D01*
X292827Y393587D01*
X293692Y393946D01*
X294434Y394515D01*
X295003Y395257D01*
X295361Y396121D01*
X295483Y397049D01*
X295361Y397976D01*
X295003Y398840D01*
X294434Y399583D01*
X293692Y400152D01*
X292827Y400510D01*
X291900Y400632D01*
D02*
G37*
G36*
Y412443D02*
X290973Y412321D01*
X290108Y411963D01*
X289366Y411394D01*
X288797Y410651D01*
X288439Y409787D01*
X288317Y408860D01*
X288439Y407932D01*
X288797Y407068D01*
X289366Y406326D01*
X290108Y405757D01*
X290973Y405399D01*
X291900Y405276D01*
X292827Y405399D01*
X293692Y405757D01*
X294434Y406326D01*
X295003Y407068D01*
X295361Y407932D01*
X295483Y408860D01*
X295361Y409787D01*
X295003Y410651D01*
X294434Y411394D01*
X293692Y411963D01*
X292827Y412321D01*
X291900Y412443D01*
D02*
G37*
G36*
X383000Y412789D02*
X382073Y412667D01*
X381208Y412309D01*
X380466Y411739D01*
X379897Y410997D01*
X379539Y410133D01*
X379417Y409205D01*
X379539Y408278D01*
X379897Y407414D01*
X380466Y406672D01*
X381208Y406102D01*
X382073Y405744D01*
X383000Y405622D01*
X383927Y405744D01*
X384792Y406102D01*
X385534Y406672D01*
X386103Y407414D01*
X386461Y408278D01*
X386583Y409205D01*
X386461Y410133D01*
X386103Y410997D01*
X385534Y411739D01*
X384792Y412309D01*
X383927Y412667D01*
X383000Y412789D01*
D02*
G37*
G36*
X463200Y405495D02*
Y403800D01*
X464895D01*
X464819Y404178D01*
X464322Y404922D01*
X463578Y405419D01*
X463200Y405495D01*
D02*
G37*
G36*
X352600Y401178D02*
X351673Y401056D01*
X350808Y400698D01*
X350066Y400128D01*
X349497Y399386D01*
X349139Y398522D01*
X349017Y397594D01*
X349139Y396667D01*
X349497Y395803D01*
X350066Y395061D01*
X350808Y394491D01*
X351673Y394133D01*
X352600Y394011D01*
X353527Y394133D01*
X354392Y394491D01*
X355134Y395061D01*
X355703Y395803D01*
X356061Y396667D01*
X356183Y397594D01*
X356061Y398522D01*
X355703Y399386D01*
X355134Y400128D01*
X354392Y400698D01*
X353527Y401056D01*
X352600Y401178D01*
D02*
G37*
G36*
X462200Y405495D02*
X461822Y405419D01*
X461078Y404922D01*
X460581Y404178D01*
X460505Y403800D01*
X462200D01*
Y405495D01*
D02*
G37*
%LPD*%
D47*
X412000Y341900D02*
D03*
X307300Y316000D02*
D03*
X305200Y322900D02*
D03*
X309200D02*
D03*
X305200Y307600D02*
D03*
X309200D02*
D03*
X419500Y381000D02*
D03*
X431300D02*
D03*
X435200Y381100D02*
D03*
X425400D02*
D03*
X446000Y380700D02*
D03*
X420400Y337700D02*
D03*
X405740Y414360D02*
D03*
X462700Y391300D02*
D03*
Y403300D02*
D03*
X456800Y333600D02*
D03*
X373000Y426900D02*
D03*
X342600Y427100D02*
D03*
X312200Y427000D02*
D03*
X281800Y426500D02*
D03*
X251200Y427100D02*
D03*
X413400Y380900D02*
D03*
X414900Y337600D02*
D03*
X241500Y295300D02*
D03*
Y290900D02*
D03*
M02*
