%FSLAX25Y25*%
%MOIN*%
G70*
G01*
G75*
G04 Layer_Color=128*
%ADD10R,0.03150X0.03150*%
%ADD11O,0.00984X0.05906*%
%ADD12O,0.05906X0.00984*%
%ADD13R,0.03543X0.02559*%
%ADD14R,0.01575X0.01378*%
%ADD15R,0.09449X0.06693*%
%ADD16R,0.04528X0.02756*%
%ADD17R,0.03150X0.02362*%
%ADD18R,0.03543X0.02362*%
%ADD19R,0.05000X0.10000*%
%ADD20C,0.04000*%
%ADD21R,0.02400X0.07400*%
%ADD22C,0.03000*%
%ADD23C,0.00800*%
%ADD24C,0.02000*%
%ADD25C,0.01500*%
%ADD26C,0.02500*%
%ADD27C,0.01000*%
%ADD28C,0.00700*%
%ADD29C,0.01200*%
%ADD30R,0.05700X0.15400*%
%ADD31R,0.07500X0.37100*%
%ADD32R,0.06900X0.17500*%
%ADD33R,0.31800X0.05600*%
%ADD34R,0.45600X0.06300*%
%ADD35R,0.08100X0.04200*%
%ADD36R,0.09200X0.14200*%
%ADD37R,0.09400X0.04200*%
%ADD38R,0.23100X0.07700*%
%ADD39R,0.14800X0.05700*%
%ADD40R,0.03600X0.14100*%
%ADD41R,0.02200X0.05400*%
%ADD42R,0.02158X0.06200*%
%ADD43R,0.22800X0.13900*%
%ADD44C,0.05906*%
%ADD45C,0.05512*%
%ADD46C,0.14173*%
%ADD47C,0.02500*%
%ADD48R,0.09449X0.02992*%
%ADD49R,0.38300X0.04600*%
%ADD50R,0.25500X0.07100*%
%ADD51R,0.15800X0.14200*%
%ADD52R,0.21700X0.05400*%
%ADD53R,0.25000X0.07200*%
%ADD54R,0.23800X0.05800*%
%ADD55R,0.25700X0.08500*%
%ADD56R,0.24900X0.08000*%
%ADD57C,0.02362*%
%ADD58C,0.00984*%
%ADD59C,0.00600*%
%ADD60C,0.00787*%
%ADD61R,0.03950X0.03950*%
%ADD62O,0.01784X0.06706*%
%ADD63O,0.06706X0.01784*%
%ADD64R,0.04343X0.03359*%
%ADD65R,0.02375X0.02178*%
%ADD66R,0.10249X0.07493*%
%ADD67R,0.05328X0.03556*%
%ADD68R,0.03950X0.03162*%
%ADD69R,0.04343X0.03162*%
%ADD70R,0.05800X0.10800*%
%ADD71C,0.04800*%
%ADD72R,0.02800X0.07800*%
%ADD73C,0.06706*%
%ADD74C,0.06312*%
%ADD75C,0.14973*%
%ADD76C,0.00800*%
%ADD77C,0.03300*%
%ADD78R,0.10249X0.03792*%
D10*
X335700Y371944D02*
D03*
Y377456D02*
D03*
X452400Y384844D02*
D03*
Y390356D02*
D03*
X448100Y384744D02*
D03*
Y390256D02*
D03*
X431300Y384744D02*
D03*
Y390256D02*
D03*
X425300Y384644D02*
D03*
Y390156D02*
D03*
X435700Y384744D02*
D03*
Y390256D02*
D03*
X421100Y384644D02*
D03*
Y390156D02*
D03*
X456600Y384844D02*
D03*
Y390356D02*
D03*
X416100Y333756D02*
D03*
Y328244D02*
D03*
X420300Y333756D02*
D03*
Y328244D02*
D03*
X424500Y333756D02*
D03*
Y328244D02*
D03*
D13*
X443400Y390354D02*
D03*
Y384646D02*
D03*
D17*
X467900Y394644D02*
D03*
Y400156D02*
D03*
D48*
X249354Y335800D02*
D03*
Y330800D02*
D03*
Y325800D02*
D03*
Y320800D02*
D03*
Y315800D02*
D03*
Y310800D02*
D03*
Y305800D02*
D03*
Y300800D02*
D03*
Y295800D02*
D03*
Y290800D02*
D03*
X234000Y335800D02*
D03*
Y330800D02*
D03*
Y325800D02*
D03*
Y320800D02*
D03*
Y315800D02*
D03*
Y310800D02*
D03*
Y305800D02*
D03*
Y300800D02*
D03*
Y295800D02*
D03*
Y290800D02*
D03*
M02*
