M48
;Layer_Color=9474304
;FILE_FORMAT=2:5
INCH,LZ
;TYPE=PLATED
T1F00S00C0.01500
T2F00S00C0.03937
T3F00S00C0.04331
T4F00S00C0.12598
;TYPE=NON_PLATED
T5F00S00C0.04000
%
T01
X03287Y03077
X03426Y03071
X03483Y03034
X03564Y03089
X0360228Y0308672
X03719Y0308
X03775Y03061
X03911Y02999
X04017Y03026
X0402Y03105
X04178Y03027
X04536Y02995
X04567Y02937
X046025Y029125
X046Y02966
X04646Y02935
X04639Y02872
X04603Y02841
X03092Y03076
X03052
X02646Y03019
X02644Y02967
X0264Y02922
X02639Y02874
X02698Y02859
X02415Y02909
Y02953
Y03098
Y03147
Y03194
Y03258
X02416Y03312
X02417Y03357
X02698Y03158
X03073Y0316
X03092Y03229
X03052
X0309844Y0373244
X03111Y03819
X03122Y0427
X03076Y04269
X02818Y04265
X02773
X02812Y04125
X02512Y04271
X02466
X0338
X03426
X03684Y04268
X0373Y04269
X03724Y04127
X040574Y041436
X04232Y04181
X04286Y03935
X04392Y03914
X04395Y0381
X04352Y03811
X04313Y0381
X04254Y03811
X04195Y0381
X04134Y03809
X0446Y03807
X0446118Y0365518
X04468Y03553
X04467Y03512
X04412Y03489
X04289
X04204Y03377
X04149Y03376
X0412Y03419
X04058Y03402
Y03443
X04109Y0328544
X03911Y03288
X03937Y03247
X03834Y03179
X03602Y03232
X03385Y03151
X0329Y03221
X03305Y0370934
X03414
X03523
X03468Y03822
X0335756
X03249
X0319434Y0370934
X04579Y03664
X04636Y03679
X04643Y03718
X04613Y03748
X04627Y03913
X04679Y03911
Y04031
X04627Y04033
X04482Y0394
X04593Y03569
X04573Y03542
X0451Y03425
X04509Y03384
X04568Y03336
X042005Y031605
X04093Y04426
X04007Y04487
T02
X0282087Y0453386
X0292874
X0303661
X0298268Y0464567
X028748
X0309055
X0319843
X033063
X0341417
X0352205
X0346811Y0453386
X0336024
X0325236
X0314449
X0357598
T03
X02612Y0397594
Y0409406
X02919Y040886
Y0397049
X03222Y0397509
Y040932
X03526Y0409406
Y0397594
X0383Y0397394
Y0409205
T04
X0253957Y0458976
X0385689
T05
X0265258Y030865
X0396142Y03149
M30
